<?xml version="1.0" encoding="UTF-8"?>
<!-- Generator: visioncortex VTracer 0.6.3 -->
<svg version="1.1" xmlns="http://www.w3.org/2000/svg" width="1280" height="1280">
<path d="M0 0 C13.63 0.01 27.27 0.01 40.9 -0 C180.27 -0.09 180.27 -0.09 242.9 1.21 C244.48 1.24 244.48 1.24 246.09 1.28 C252.83 1.42 259.56 1.57 266.3 1.73 C267.13 1.75 267.96 1.77 268.82 1.79 C271.12 1.84 273.42 1.9 275.72 1.97 C277.62 2.01 277.62 2.01 279.56 2.06 C283.12 2.26 286.57 2.72 290.09 3.26 C292.38 3.45 294.68 3.62 296.98 3.76 C298.88 3.88 298.88 3.88 300.82 4.01 C302.81 4.13 304.79 4.26 306.78 4.38 C308.72 4.51 310.66 4.63 312.6 4.76 C313.75 4.83 314.9 4.9 316.09 4.98 C318.56 5.21 320.71 5.61 323.09 6.26 C325.15 6.41 327.21 6.53 329.28 6.63 C335.05 7.01 340.65 7.75 346.34 8.76 C347.08 8.89 347.82 9.02 348.58 9.15 C353.81 10.12 353.81 10.12 356.09 11.26 C357.35 11.36 358.61 11.47 359.9 11.57 C365.1 12.1 369.8 13.62 374.75 15.22 C377.91 16.2 381.06 17.01 384.28 17.76 C388.91 18.88 393.17 20.38 397.55 22.24 C400.24 23.32 402.95 24.16 405.72 25.01 C413.59 27.6 420.79 31.38 428.09 35.26 C428.83 35.65 429.56 36.04 430.32 36.44 C450.7 47.31 469.36 60.48 487.09 75.26 C487.91 75.9 488.74 76.54 489.58 77.2 C492.27 79.41 494.66 81.77 497.09 84.26 C498.2 85.35 499.31 86.44 500.42 87.52 C501.58 88.66 502.74 89.8 503.9 90.95 C504.5 91.53 505.1 92.11 505.71 92.71 C507.21 94.19 508.66 95.72 510.09 97.26 C510.09 97.92 510.09 98.58 510.09 99.26 C510.75 99.26 511.41 99.26 512.09 99.26 C513.78 100.9 513.78 100.9 515.65 103.07 C516.27 103.78 516.89 104.49 517.53 105.22 C519.09 107.26 519.09 107.26 520.09 110.26 C520.75 110.26 521.41 110.26 522.09 110.26 C524.7 113.01 526.84 116.21 529.09 119.26 C529.55 119.87 530.01 120.48 530.48 121.11 C542.07 136.61 552.84 152.72 561.09 170.26 C562.13 172.26 563.17 174.26 564.22 176.26 C566.68 181.18 568.5 186.12 570.15 191.37 C571.06 194.18 572.1 196.9 573.22 199.63 C575.13 204.34 576.88 208.76 577.59 213.82 C577.92 217.12 577.92 217.12 579.03 219.49 C580.35 222.94 580.97 226.44 581.59 230.07 C582.72 236.42 582.72 236.42 584.22 242.7 C585.1 246.28 585.53 249.71 585.84 253.38 C586 255.35 586 255.35 587.09 257.26 C587.28 259.53 587.41 261.8 587.53 264.07 C587.8 268.95 588.25 273.69 589.09 278.51 C590.15 284.85 590.49 291.14 590.75 297.55 C590.78 298.32 590.81 299.08 590.84 299.88 C590.87 300.55 590.89 301.23 590.92 301.93 C591.07 304.41 591.07 304.41 591.58 307.47 C592.07 311.07 592.28 314.55 592.39 318.18 C592.41 318.85 592.43 319.52 592.45 320.21 C592.51 322.48 592.57 324.74 592.63 327 C592.65 327.82 592.67 328.63 592.69 329.47 C592.86 336.02 593.01 342.58 593.15 349.13 C593.19 350.63 593.19 350.63 593.22 352.16 C594.19 396.32 594.31 440.48 594.34 484.65 C594.34 490.11 594.34 495.57 594.35 501.02 C594.41 539.29 594.24 577.54 593.32 615.8 C593.26 618.23 593.21 620.66 593.16 623.09 C591.98 676.74 591.98 676.74 585.15 700.82 C583.88 705.39 582.65 709.96 581.53 714.57 C579.6 722.32 577.48 729.69 574.11 736.94 C573.04 739.37 572.19 741.81 571.34 744.32 C568.86 751.27 565.47 757.72 562.1 764.27 C561.16 766.11 560.26 767.97 559.37 769.83 C555.23 778.42 550.43 786.4 545.28 794.41 C543.55 797.1 541.86 799.81 540.15 802.51 C536.23 808.72 536.23 808.72 534.09 811.26 C533.43 811.26 532.77 811.26 532.09 811.26 C531.63 812.43 531.63 812.43 531.15 813.63 C530.09 816.26 530.09 816.26 529.09 818.26 C528.43 818.26 527.77 818.26 527.09 818.26 C526.73 819.08 526.73 819.08 526.36 819.92 C524.79 822.82 522.83 825.16 520.72 827.7 C517.28 831.82 517.28 831.82 513.9 835.99 C512.38 837.9 510.94 839.66 509.09 841.26 C508.43 841.26 507.77 841.26 507.09 841.26 C507.09 841.92 507.09 842.58 507.09 843.26 C506.43 843.26 505.77 843.26 505.09 843.26 C504.76 844.25 504.43 845.24 504.09 846.26 C503.43 846.26 502.77 846.26 502.09 846.26 C502.09 846.92 502.09 847.58 502.09 848.26 C501.43 848.26 500.77 848.26 500.09 848.26 C499.76 849.25 499.43 850.24 499.09 851.26 C498.43 851.26 497.77 851.26 497.09 851.26 C497.09 851.92 497.09 852.58 497.09 853.26 C494.63 855.81 491.82 858 489.09 860.26 C488.2 861 487.32 861.74 486.4 862.5 C479.36 868.26 479.36 868.26 477.09 868.26 C476.76 869.25 476.43 870.24 476.09 871.26 C473.94 873.06 473.94 873.06 471.15 875.01 C470.16 875.71 469.18 876.4 468.16 877.12 C467.14 877.82 466.13 878.53 465.09 879.26 C463.68 880.29 463.68 880.29 462.24 881.34 C461.37 881.97 460.49 882.61 459.59 883.26 C458.4 884.13 458.4 884.13 457.18 885.01 C455.09 886.26 455.09 886.26 452.09 886.26 C452.09 886.92 452.09 887.58 452.09 888.26 C451.1 888.26 450.11 888.26 449.09 888.26 C449.09 888.92 449.09 889.58 449.09 890.26 C445.66 892.23 442.23 894.19 438.79 896.15 C436.62 897.38 434.45 898.63 432.3 899.9 C431.53 900.35 430.76 900.8 429.97 901.26 C429.3 901.65 428.64 902.04 427.96 902.45 C426.09 903.26 426.09 903.26 422.09 903.26 C422.09 903.92 422.09 904.58 422.09 905.26 C415.38 908.36 408.63 911.33 401.79 914.14 C399.74 914.99 397.72 915.89 395.72 916.82 C391.05 918.67 386.29 919.95 381.45 921.28 C378.84 922.04 376.36 922.87 373.84 923.88 C369.93 925.32 366.18 926.12 362.09 926.83 C360.1 927.07 360.1 927.07 359.09 928.26 C356.38 928.83 353.65 929.22 350.91 929.65 C348.18 930.09 345.46 930.54 342.73 931.02 C333.62 932.59 324.66 933.64 315.41 933.97 C314.67 933.99 313.93 934.02 313.16 934.05 C312.2 934.07 312.2 934.07 311.21 934.1 C309 934.23 309 934.23 306.48 934.73 C289.89 937.3 272.62 936.43 255.88 936.49 C251.37 936.5 246.86 936.53 242.36 936.55 C229.56 936.62 216.76 936.68 203.96 936.74 C196.86 936.76 189.75 936.8 182.65 936.84 C178.91 936.86 175.18 936.88 171.44 936.89 C143.45 936.39 143.45 936.39 116.09 941.26 C113.66 941.7 111.22 942.11 108.78 942.51 C100.26 944 92.27 946.66 84.14 949.55 C81.24 950.55 78.32 951.46 75.4 952.38 C70.88 953.89 67.16 955.79 63.09 958.26 C61.45 958.93 59.81 959.61 58.17 960.28 C53.29 962.57 48.72 965.51 44.09 968.26 C42.9 968.93 41.72 969.6 40.53 970.26 C32.05 975.19 24.14 980.65 16.34 986.58 C11.72 990.08 7.02 993.44 2.22 996.7 C-4.32 1001.14 -10.74 1005.71 -17.13 1010.35 C-22.19 1014.03 -27.29 1017.66 -32.41 1021.26 C-38.27 1025.38 -44.1 1029.55 -49.91 1033.76 C-56.41 1038.47 -62.95 1043.12 -69.52 1047.74 C-75.43 1051.91 -81.3 1056.14 -87.16 1060.39 C-93.09 1064.69 -99.07 1068.92 -105.08 1073.13 C-109.16 1075.99 -113.16 1078.93 -117.11 1081.96 C-120.61 1084.49 -123.57 1086.26 -127.91 1086.26 C-127.91 1086.92 -127.91 1087.58 -127.91 1088.26 C-128.96 1088.64 -128.96 1088.64 -130.03 1089.03 C-130.98 1089.37 -131.93 1089.72 -132.91 1090.07 C-133.92 1090.44 -134.94 1090.8 -135.98 1091.18 C-137.64 1091.79 -139.29 1092.42 -140.93 1093.09 C-163.66 1102.4 -188.68 1099.34 -210.91 1090.26 C-218.25 1087.04 -225.5 1083.09 -231.91 1078.26 C-231.91 1077.6 -231.91 1076.94 -231.91 1076.26 C-233.23 1075.93 -234.55 1075.6 -235.91 1075.26 C-235.91 1074.6 -235.91 1073.94 -235.91 1073.26 C-236.48 1073.02 -237.04 1072.78 -237.62 1072.53 C-240.38 1071 -242.26 1069.14 -244.47 1066.88 C-245.24 1066.11 -246 1065.34 -246.79 1064.55 C-251.91 1059.02 -251.91 1059.02 -251.91 1056.26 C-252.57 1056.26 -253.23 1056.26 -253.91 1056.26 C-253.91 1055.27 -253.91 1054.28 -253.91 1053.26 C-254.57 1053.26 -255.23 1053.26 -255.91 1053.26 C-260.89 1046.66 -263.93 1038.9 -266.91 1031.26 C-267.25 1030.43 -267.6 1029.61 -267.95 1028.76 C-274.79 1010.99 -275.07 985.29 -267.82 967.6 C-267.46 966.79 -267.1 965.97 -266.72 965.13 C-264.23 959.28 -263.72 953.51 -264.91 947.26 C-267.8 942.02 -271.29 939.18 -276.91 937.26 C-279.5 936.96 -279.5 936.96 -282.24 936.99 C-283.28 936.98 -284.32 936.97 -285.4 936.96 C-286.52 936.95 -287.65 936.95 -288.8 936.95 C-291.23 936.93 -293.66 936.9 -296.08 936.87 C-299.87 936.85 -303.66 936.82 -307.45 936.8 C-327.99 936.68 -348.54 936.14 -368.38 930.3 C-371.65 929.34 -374.92 928.5 -378.23 927.71 C-384.29 926.25 -390.15 924.66 -395.91 922.26 C-397.07 921.8 -398.24 921.35 -399.44 920.88 C-411.39 916.21 -411.39 916.21 -416.76 913.38 C-419.15 912.13 -421.57 910.97 -423.99 909.79 C-429.49 907.1 -434.75 904.28 -439.75 900.72 C-442.04 899.13 -442.04 899.13 -445.11 897.47 C-449.54 894.96 -453.68 892.07 -457.85 889.13 C-458.63 888.6 -459.41 888.06 -460.21 887.51 C-460.94 886.99 -461.68 886.47 -462.44 885.94 C-463.44 885.24 -463.44 885.24 -464.46 884.52 C-465.18 883.9 -465.18 883.9 -465.91 883.26 C-465.91 882.6 -465.91 881.94 -465.91 881.26 C-466.9 880.93 -467.89 880.6 -468.91 880.26 C-468.91 879.6 -468.91 878.94 -468.91 878.26 C-469.63 878.03 -470.35 877.81 -471.1 877.57 C-474.51 875.98 -476.28 873.97 -478.91 871.26 C-480.02 870.17 -481.13 869.08 -482.24 868 C-483.4 866.86 -484.56 865.71 -485.72 864.57 C-486.32 863.99 -486.92 863.41 -487.53 862.81 C-489.03 861.33 -490.47 859.8 -491.91 858.26 C-491.91 857.6 -491.91 856.94 -491.91 856.26 C-492.57 856.26 -493.23 856.26 -493.91 856.26 C-498.91 850.78 -498.91 850.78 -498.91 848.26 C-499.57 848.26 -500.23 848.26 -500.91 848.26 C-502.42 846.58 -502.42 846.58 -504.03 844.38 C-504.57 843.66 -505.11 842.95 -505.67 842.2 C-506.91 840.26 -506.91 840.26 -506.91 838.26 C-507.57 838.26 -508.23 838.26 -508.91 838.26 C-510.6 835.99 -510.6 835.99 -512.47 833.01 C-513.09 832.03 -513.71 831.06 -514.35 830.06 C-515.67 827.69 -516.45 825.9 -516.91 823.26 C-517.57 823.26 -518.23 823.26 -518.91 823.26 C-518.91 822.27 -518.91 821.28 -518.91 820.26 C-519.57 820.26 -520.23 820.26 -520.91 820.26 C-521.24 818.61 -521.57 816.96 -521.91 815.26 C-522.57 815.26 -523.23 815.26 -523.91 815.26 C-524.27 814.49 -524.27 814.49 -524.64 813.71 C-525.77 811.31 -526.9 808.91 -528.03 806.51 C-528.44 805.64 -528.86 804.77 -529.28 803.87 C-531.51 799.16 -533.8 794.5 -536.22 789.88 C-538.79 784.81 -540.47 779.68 -542.04 774.22 C-542.76 771.78 -543.55 769.44 -544.47 767.07 C-547.11 760.24 -549.05 753.28 -550.38 746.09 C-550.76 744.07 -551.18 742.06 -551.63 740.06 C-556.46 717.33 -556.21 693.71 -556.17 670.58 C-556.17 667.84 -556.17 665.09 -556.18 662.34 C-556.19 655.71 -556.19 649.08 -556.18 642.44 C-556.18 637 -556.18 631.56 -556.18 626.12 C-556.18 625.34 -556.18 624.55 -556.18 623.74 C-556.18 622.14 -556.18 620.55 -556.18 618.95 C-556.19 604.02 -556.18 589.09 -556.17 574.16 C-556.16 561.58 -556.16 549 -556.17 536.42 C-556.26 408.18 -556.26 408.18 -554.96 349.25 C-554.94 348.26 -554.91 347.27 -554.89 346.25 C-554.75 339.9 -554.6 333.54 -554.44 327.19 C-554.42 326.41 -554.4 325.62 -554.38 324.81 C-554.32 322.63 -554.26 320.46 -554.2 318.28 C-554.17 317.09 -554.14 315.89 -554.1 314.65 C-553.9 311.14 -553.44 307.73 -552.91 304.26 C-552.72 301.97 -552.55 299.67 -552.41 297.37 C-552.33 296.1 -552.24 294.84 -552.16 293.53 C-552.03 291.54 -551.91 289.55 -551.78 287.57 C-551.66 285.63 -551.54 283.69 -551.41 281.75 C-551.34 280.6 -551.27 279.45 -551.19 278.26 C-550.96 275.79 -550.56 273.64 -549.91 271.26 C-549.76 269.2 -549.64 267.14 -549.53 265.07 C-548.76 253.41 -546.46 241.99 -543.72 230.65 C-543.11 228.11 -542.53 225.57 -541.97 223.03 C-540.39 215.94 -538.75 209.18 -535.84 202.5 C-534.88 200.19 -534.2 197.91 -533.53 195.51 C-525.55 167.89 -508.12 142.66 -491.1 119.87 C-490.04 118.44 -489 116.99 -487.95 115.54 C-486.65 113.74 -485.29 111.99 -483.91 110.26 C-483.25 110.26 -482.59 110.26 -481.91 110.26 C-481.64 109.68 -481.37 109.1 -481.1 108.51 C-479.88 106.2 -478.61 104.24 -476.91 102.26 C-476.25 102.26 -475.59 102.26 -474.91 102.26 C-474.66 101.68 -474.41 101.11 -474.15 100.52 C-472.74 97.95 -471.13 96.22 -469.07 94.15 C-468.31 93.4 -467.56 92.64 -466.79 91.86 C-466 91.09 -465.22 90.31 -464.41 89.51 C-463.62 88.72 -462.84 87.92 -462.03 87.11 C-461.28 86.36 -460.53 85.61 -459.75 84.84 C-459.06 84.15 -458.38 83.46 -457.67 82.76 C-455.91 81.26 -455.91 81.26 -453.91 81.26 C-453.91 80.6 -453.91 79.94 -453.91 79.26 C-448.43 74.26 -448.43 74.26 -445.91 74.26 C-445.91 73.6 -445.91 72.94 -445.91 72.26 C-443.16 69.65 -439.96 67.51 -436.91 65.26 C-436.3 64.8 -435.69 64.34 -435.06 63.87 C-419.16 51.98 -402.77 40.97 -384.57 32.94 C-382 31.8 -379.56 30.53 -377.12 29.11 C-374.05 27.34 -371.28 26.31 -367.91 25.26 C-366.39 24.58 -366.39 24.58 -364.85 23.88 C-359.38 21.5 -353.62 19.95 -347.91 18.26 C-346.79 17.92 -345.67 17.57 -344.52 17.22 C-336.89 14.94 -329.29 13.3 -321.47 11.91 C-318.8 11.42 -316.21 10.89 -313.6 10.2 C-305.25 8.07 -297.09 7.06 -288.5 6.54 C-285.03 6.27 -281.66 5.8 -278.22 5.26 C-271.68 4.26 -265.18 3.86 -258.57 3.6 C-257.42 3.55 -257.42 3.55 -256.26 3.51 C-255.59 3.48 -254.92 3.46 -254.23 3.43 C-251.76 3.28 -251.76 3.28 -248.73 2.77 C-244.97 2.27 -241.33 2.06 -237.54 1.97 C-236.46 1.94 -236.46 1.94 -235.37 1.91 C-232.95 1.84 -230.53 1.79 -228.12 1.73 C-226.82 1.7 -226.82 1.7 -225.5 1.67 C-218.57 1.5 -211.65 1.35 -204.72 1.21 C-203.13 1.18 -203.13 1.18 -201.5 1.15 C-134.35 -0.24 -67.17 -0.04 0 0 Z M-265.92 86.77 C-269.09 87.55 -272.34 87.55 -275.6 87.7 C-280.84 87.97 -285.83 88.48 -290.92 89.79 C-293.03 90.29 -295.06 90.51 -297.22 90.7 C-301.94 91.16 -306.41 92.3 -310.99 93.51 C-313.54 94.16 -316.08 94.73 -318.66 95.26 C-324.25 96.48 -329.38 98.58 -334.6 100.88 C-337.43 102.06 -339.89 102.8 -342.91 103.26 C-342.91 103.92 -342.91 104.58 -342.91 105.26 C-343.73 105.33 -344.55 105.4 -345.4 105.47 C-349.89 106.48 -353.2 108.49 -357.1 110.88 C-357.85 111.34 -358.6 111.79 -359.37 112.26 C-361.56 113.58 -363.74 114.92 -365.91 116.26 C-366.96 116.9 -368 117.54 -369.08 118.2 C-375.53 122.22 -382.09 126.36 -387.91 131.26 C-387.91 131.92 -387.91 132.58 -387.91 133.26 C-388.48 133.53 -389.05 133.8 -389.64 134.07 C-391.99 135.3 -394.03 136.68 -396.16 138.26 C-397.22 139.03 -397.22 139.03 -398.3 139.82 C-398.83 140.3 -399.36 140.77 -399.91 141.26 C-399.91 141.92 -399.91 142.58 -399.91 143.26 C-401.39 143.75 -401.39 143.75 -402.91 144.26 C-402.91 144.92 -402.91 145.58 -402.91 146.26 C-403.51 146.53 -404.11 146.8 -404.72 147.07 C-406.91 148.26 -408.32 149.35 -409.91 151.26 C-409.91 151.92 -409.91 152.58 -409.91 153.26 C-410.9 153.59 -411.89 153.92 -412.91 154.26 C-412.91 154.92 -412.91 155.58 -412.91 156.26 C-413.57 156.26 -414.23 156.26 -414.91 156.26 C-416.95 158.43 -416.95 158.43 -419.03 161.13 C-419.76 162.04 -420.48 162.94 -421.23 163.88 C-423.1 166.05 -423.1 166.05 -422.91 168.26 C-423.57 168.26 -424.23 168.26 -424.91 168.26 C-426.2 169.66 -426.2 169.66 -427.45 171.52 C-427.94 172.22 -428.44 172.92 -428.95 173.64 C-429.47 174.4 -429.99 175.16 -430.53 175.95 C-431.34 177.11 -431.34 177.11 -432.17 178.3 C-441.29 191.5 -449.4 205.11 -455.09 220.17 C-455.91 222.26 -455.91 222.26 -456.89 224.06 C-458.33 227.18 -459.06 230.44 -459.85 233.76 C-460.2 235.21 -460.55 236.65 -460.9 238.1 C-461.07 238.81 -461.24 239.52 -461.42 240.25 C-461.84 241.99 -462.3 243.72 -462.77 245.45 C-464.6 252.31 -465.65 259.07 -466.48 266.11 C-466.91 269.26 -466.91 269.26 -467.91 272.26 C-468.11 274.91 -468.28 277.54 -468.41 280.2 C-468.61 284.33 -468.9 288.24 -469.91 292.26 C-470.2 295.26 -470.44 298.25 -470.65 301.26 C-470.71 302.2 -470.78 303.13 -470.84 304.1 C-473.42 343.13 -473.36 382.14 -473.32 421.24 C-473.31 428.22 -473.31 435.2 -473.31 442.18 C-473.31 443.18 -473.31 444.19 -473.31 445.23 C-473.31 447.27 -473.31 449.32 -473.32 451.37 C-473.32 470.36 -473.31 489.35 -473.3 508.34 C-473.28 524.59 -473.29 540.84 -473.3 557.09 C-473.32 576.09 -473.32 595.08 -473.31 614.08 C-473.31 616.11 -473.31 618.13 -473.31 620.16 C-473.31 621.16 -473.31 622.15 -473.31 623.18 C-473.31 630.16 -473.31 637.14 -473.32 644.11 C-473.33 652.61 -473.32 661.1 -473.31 669.59 C-473.3 673.91 -473.3 678.23 -473.31 682.55 C-473.32 686.51 -473.31 690.48 -473.3 694.44 C-473.29 695.87 -473.29 697.29 -473.3 698.71 C-473.37 712.27 -471.32 725.47 -467.6 738.51 C-467.29 739.62 -467.29 739.62 -466.97 740.75 C-465.26 746.57 -463.03 751.93 -460.34 757.36 C-459.32 759.44 -458.37 761.55 -457.48 763.68 C-455.85 767.4 -454 770.87 -451.97 774.38 C-451.47 775.28 -451.47 775.28 -450.96 776.18 C-448.88 779.82 -446.52 783 -443.91 786.26 C-443.58 787.25 -443.25 788.24 -442.91 789.26 C-442.25 789.26 -441.59 789.26 -440.91 789.26 C-440.65 789.84 -440.39 790.41 -440.13 791.01 C-438.8 793.45 -437.28 795.27 -435.41 797.32 C-433.35 799.59 -431.62 801.7 -429.91 804.26 C-429.25 804.26 -428.59 804.26 -427.91 804.26 C-427.51 805.22 -427.51 805.22 -427.1 806.2 C-426.02 808.59 -426.02 808.59 -422.91 809.26 C-422.41 810.74 -422.41 810.74 -421.91 812.26 C-421.25 812.26 -420.59 812.26 -419.91 812.26 C-419.91 812.92 -419.91 813.58 -419.91 814.26 C-406.18 827.07 -386.94 839.16 -368.92 844.58 C-366.91 845.26 -366.91 845.26 -365.05 846.24 C-362.89 847.27 -360.99 847.81 -358.65 848.29 C-357.86 848.46 -357.07 848.63 -356.26 848.81 C-355.44 848.98 -354.63 849.15 -353.78 849.32 C-352.16 849.66 -350.53 850.01 -348.9 850.36 C-347.82 850.58 -347.82 850.58 -346.73 850.81 C-344.91 851.26 -344.91 851.26 -342.91 852.26 C-326.44 855.22 -309.55 854.63 -292.89 854.72 C-259.15 854.91 -259.15 854.91 -243.66 861.82 C-242.58 862.28 -242.58 862.28 -241.48 862.74 C-238.43 864.05 -235.69 865.41 -232.91 867.26 C-231.92 867.26 -230.93 867.26 -229.91 867.26 C-229.91 867.92 -229.91 868.58 -229.91 869.26 C-228.86 869.84 -227.81 870.41 -226.72 871.01 C-223.52 872.82 -220.78 874.96 -217.91 877.26 C-217.25 877.26 -216.59 877.26 -215.91 877.26 C-215.91 877.92 -215.91 878.58 -215.91 879.26 C-214.38 880.77 -214.38 880.77 -212.47 882.26 C-209.01 885.06 -209.01 885.06 -207.91 887.26 C-207.25 887.26 -206.59 887.26 -205.91 887.26 C-205.66 887.8 -205.41 888.33 -205.16 888.88 C-203.6 891.84 -201.88 894.56 -199.91 897.26 C-199.25 897.26 -198.59 897.26 -197.91 897.26 C-197.79 897.84 -197.66 898.41 -197.53 899.01 C-196.9 901.28 -196.02 903.18 -194.91 905.26 C-194.25 905.26 -193.59 905.26 -192.91 905.26 C-192.74 906.32 -192.74 906.32 -192.56 907.4 C-191.86 910.48 -190.8 913.12 -189.53 916.01 C-178.73 941.61 -180.23 967.25 -188.91 993.26 C-189.24 993.59 -189.57 993.92 -189.91 994.26 C-190.5 1000.04 -189.32 1004.58 -185.91 1009.26 C-184.92 1009.59 -183.93 1009.92 -182.91 1010.26 C-182.91 1010.92 -182.91 1011.58 -182.91 1012.26 C-176.62 1015.17 -171.68 1016.19 -164.91 1014.26 C-157.45 1010.66 -150.95 1005.09 -144.38 1000.09 C-139.17 996.14 -133.83 992.42 -128.41 988.76 C-122.46 984.74 -116.62 980.62 -110.91 976.26 C-104.42 971.31 -97.74 966.69 -90.98 962.11 C-85.84 958.63 -80.84 955.02 -75.91 951.26 C-69.42 946.31 -62.74 941.69 -55.98 937.11 C-50.84 933.63 -45.84 930.02 -40.91 926.26 C-34.96 921.73 -28.89 917.41 -22.72 913.2 C-21.92 912.65 -21.12 912.1 -20.29 911.53 C-17.19 909.43 -14.12 907.38 -10.86 905.51 C-9.89 904.89 -9.89 904.89 -8.91 904.26 C-8.91 903.6 -8.91 902.94 -8.91 902.26 C-8.04 902.07 -8.04 902.07 -7.16 901.88 C-4.89 901.25 -2.98 900.37 -0.91 899.26 C-0.91 898.6 -0.91 897.94 -0.91 897.26 C-0.39 897.17 0.14 897.09 0.68 897 C3.98 895.99 6.77 894.22 9.72 892.45 C14.65 889.55 19.5 887.11 24.88 885.11 C26.94 884.32 28.83 883.41 30.78 882.38 C35.83 879.78 41.14 877.78 46.42 875.7 C49.35 874.55 52.25 873.35 55.15 872.13 C60.23 870.1 65.44 868.65 70.7 867.2 C73.6 866.4 76.47 865.53 79.34 864.63 C87.28 862.24 95.44 861 103.62 859.72 C106.08 859.38 106.08 859.38 108.09 858.26 C111.04 857.97 113.99 857.81 116.95 857.64 C120.5 857.37 123.97 856.81 127.49 856.25 C134.65 855.22 141.65 854.96 148.88 854.96 C150.83 854.94 150.83 854.94 152.82 854.93 C155.61 854.91 158.41 854.9 161.21 854.89 C165.64 854.88 170.07 854.86 174.5 854.83 C181.52 854.79 188.53 854.75 195.55 854.73 C208.1 854.67 220.66 854.61 233.21 854.54 C237.6 854.52 242 854.5 246.39 854.48 C248.47 854.47 250.55 854.46 252.63 854.45 C255.15 854.44 257.67 854.43 260.19 854.42 C266.68 854.38 273.09 854.1 279.56 853.49 C282.81 853.19 286.04 853.1 289.31 853.05 C308.54 852.64 327.51 851.77 346.09 846.26 C347.89 845.74 347.89 845.74 349.73 845.2 C370.34 839.1 389.82 830.69 407.78 818.79 C410.07 817.27 412.41 815.86 414.78 814.45 C415.87 813.72 416.96 813 418.09 812.26 C418.09 811.6 418.09 810.94 418.09 810.26 C418.66 810 419.22 809.74 419.81 809.48 C422.33 808.13 424.42 806.54 426.65 804.76 C429.09 802.82 431.49 800.99 434.09 799.26 C434.09 798.6 434.09 797.94 434.09 797.26 C434.66 797.01 435.24 796.76 435.83 796.5 C438.42 795.08 440.16 793.43 442.24 791.34 C443.02 790.56 443.8 789.78 444.6 788.98 C445.4 788.16 446.2 787.35 447.03 786.51 C447.83 785.71 448.62 784.91 449.45 784.09 C457.02 777.55 457.02 777.55 461.09 769.26 C461.75 769.26 462.41 769.26 463.09 769.26 C463.42 767.94 463.75 766.62 464.09 765.26 C464.75 765.26 465.41 765.26 466.09 765.26 C467.74 763.02 469.27 760.78 470.78 758.45 C471.23 757.76 471.68 757.07 472.14 756.36 C473.04 754.96 473.95 753.57 474.85 752.17 C475.87 750.59 476.93 749.03 477.99 747.48 C483.28 739.62 487.1 731.09 491.04 722.5 C492.06 720.33 493.13 718.21 494.23 716.08 C495.93 712.72 497.12 709.38 498.15 705.76 C499.21 702.18 500.26 698.66 501.65 695.2 C516.03 657.84 511.55 611.63 511.5 572.34 C511.49 567.04 511.49 561.74 511.49 556.44 C511.49 555.68 511.49 554.91 511.49 554.13 C511.49 552.57 511.49 551.01 511.5 549.46 C511.5 534.97 511.49 520.49 511.48 506.01 C511.47 493.72 511.47 481.43 511.48 469.14 C511.5 454.72 511.5 440.3 511.49 425.88 C511.49 424.32 511.49 422.77 511.49 421.21 C511.49 420.07 511.49 420.07 511.49 418.9 C511.49 413.65 511.49 408.39 511.5 403.14 C511.54 369.71 511 336.4 508.83 303.03 C508.74 301.64 508.74 301.64 508.65 300.23 C508.37 296.15 507.98 292.26 507.09 288.26 C506.94 285.84 506.82 283.43 506.72 281.01 C506.4 274.88 505.67 268.92 504.59 262.88 C504.46 262.15 504.33 261.42 504.19 260.67 C503.5 256.85 503.5 256.85 502.09 253.26 C501.82 251.06 501.65 248.86 501.47 246.65 C501.04 243.96 500.11 241.78 499.09 239.26 C498.6 237.16 498.14 235.06 497.72 232.95 C496.66 228.18 495.34 224.2 492.99 219.94 C492.09 218.26 492.09 218.26 491.15 215.38 C486.16 200.71 476.61 187.16 467.78 174.57 C467.34 173.95 466.91 173.32 466.47 172.68 C465.39 171.17 464.25 169.71 463.09 168.26 C462.43 168.26 461.77 168.26 461.09 168.26 C460.82 167.69 460.55 167.11 460.28 166.52 C459.05 164.18 457.66 162.13 456.09 160.01 C455.57 159.3 455.06 158.6 454.53 157.87 C454.05 157.34 453.58 156.81 453.09 156.26 C452.43 156.26 451.77 156.26 451.09 156.26 C450.76 155.27 450.43 154.28 450.09 153.26 C449.43 153.26 448.77 153.26 448.09 153.26 C447.82 152.66 447.55 152.06 447.28 151.45 C446.09 149.26 444.99 147.85 443.09 146.26 C442.43 146.26 441.77 146.26 441.09 146.26 C440.76 145.27 440.43 144.28 440.09 143.26 C439.43 143.26 438.77 143.26 438.09 143.26 C438.09 142.6 438.09 141.94 438.09 141.26 C435.92 139.21 435.92 139.21 433.22 137.13 C432.31 136.41 431.41 135.69 430.47 134.94 C428.3 133.07 428.3 133.07 426.09 133.26 C426.09 132.6 426.09 131.94 426.09 131.26 C424.63 129.94 424.63 129.94 422.69 128.65 C421.97 128.14 421.25 127.64 420.5 127.12 C419.73 126.59 418.95 126.06 418.15 125.51 C417.37 124.97 416.59 124.42 415.79 123.87 C413.56 122.32 411.32 120.79 409.09 119.26 C407.68 118.28 407.68 118.28 406.24 117.27 C402.37 114.62 398.49 112.34 394.25 110.33 C391.66 109.05 389.17 107.62 386.65 106.2 C382.54 103.93 378.57 102.21 374.06 100.9 C372.09 100.26 372.09 100.26 370.3 99.3 C367.21 97.84 363.97 97.11 360.65 96.32 C359.94 96.15 359.23 95.97 358.49 95.8 C357.04 95.44 355.59 95.1 354.14 94.75 C352.34 94.32 350.54 93.88 348.75 93.44 C335.69 90.31 322.81 88.04 309.38 87.47 C306.71 87.3 304.64 86.9 302.09 86.26 C253.8 81.22 204.72 82.81 156.26 82.85 C147.54 82.86 138.83 82.86 130.12 82.86 C128.87 82.86 127.61 82.86 126.32 82.86 C123.77 82.86 121.22 82.85 118.67 82.85 C95.6 82.84 72.53 82.85 49.45 82.87 C28.54 82.88 7.62 82.88 -13.29 82.87 C-36.97 82.85 -60.65 82.85 -84.32 82.85 C-86.86 82.86 -89.4 82.86 -91.94 82.86 C-93.19 82.86 -94.44 82.86 -95.72 82.86 C-104.39 82.86 -113.07 82.86 -121.74 82.85 C-194.31 79.21 -194.31 79.21 -265.92 86.77 Z " fill="#000000" transform="translate(620.9098275899887,64.74107736349106)"/>
<path d="M0 0 C1.83 -0 3.66 -0.01 5.5 -0.02 C10.52 -0.03 15.54 -0.03 20.56 -0.02 C25.99 -0.01 31.41 -0.03 36.83 -0.04 C47.44 -0.05 58.06 -0.06 68.68 -0.05 C77.31 -0.05 85.93 -0.05 94.56 -0.05 C95.79 -0.05 97.02 -0.05 98.28 -0.05 C100.78 -0.06 103.27 -0.06 105.77 -0.06 C128.5 -0.07 151.23 -0.07 173.96 -0.06 C196.03 -0.05 218.1 -0.06 240.17 -0.08 C262.15 -0.11 284.12 -0.12 306.1 -0.11 C318.44 -0.11 330.78 -0.11 343.12 -0.13 C353.62 -0.14 364.13 -0.14 374.63 -0.12 C379.99 -0.12 385.35 -0.11 390.7 -0.13 C395.61 -0.14 400.52 -0.14 405.42 -0.12 C407.2 -0.12 408.97 -0.12 410.74 -0.13 C422.75 -0.19 432.28 0.89 442.13 8.39 C442.77 8.86 443.4 9.33 444.06 9.81 C453.48 17.28 457.57 27.66 459.13 39.39 C459.16 42.3 458.76 44.48 458.13 47.39 C458 48.11 457.88 48.84 457.75 49.59 C455.38 62.23 448.29 70.42 438.05 77.84 C428.18 83.06 418.1 82.82 407.23 82.78 C405.41 82.79 403.59 82.79 401.77 82.8 C396.77 82.82 391.78 82.81 386.79 82.81 C381.4 82.81 376.01 82.82 370.62 82.83 C360.07 82.85 349.51 82.86 338.96 82.86 C330.38 82.86 321.8 82.86 313.22 82.87 C310.75 82.87 308.28 82.87 305.8 82.87 C304.57 82.87 303.34 82.88 302.07 82.88 C278.81 82.9 255.54 82.89 232.27 82.89 C210.99 82.88 189.71 82.9 168.43 82.94 C146.57 82.97 124.72 82.98 102.86 82.98 C90.59 82.98 78.32 82.98 66.05 83.01 C55.61 83.03 45.17 83.03 34.72 83.01 C29.4 83 24.07 83 18.74 83.02 C13.86 83.04 8.98 83.04 4.1 83.02 C2.34 83.01 0.58 83.02 -1.18 83.03 C-15.14 83.13 -26.67 81.08 -37.64 71.64 C-45.33 63.87 -49.6 55.2 -50.87 44.39 C-50.73 30.9 -46.43 20.45 -37.23 10.65 C-26.45 0.3 -14.12 -0.05 0 0 Z " fill="#000000" transform="translate(435.87095642089844,598.6123199462891)"/>
<path d="M0 0 C2.14 -0 4.28 -0.01 6.42 -0.02 C12.21 -0.03 17.99 -0.03 23.78 -0.03 C28.62 -0.03 33.46 -0.03 38.3 -0.04 C49.73 -0.05 61.15 -0.05 72.58 -0.04 C84.34 -0.03 96.11 -0.05 107.87 -0.07 C117.99 -0.09 128.12 -0.09 138.24 -0.09 C144.27 -0.09 150.31 -0.09 156.35 -0.1 C162.03 -0.12 167.7 -0.11 173.38 -0.1 C175.46 -0.1 177.53 -0.1 179.61 -0.11 C196.22 -0.17 211.28 0.62 224.03 12.44 C232.06 20.56 236.31 31.04 236.4 42.46 C236.27 49.06 235.08 54.51 231.84 60.27 C231.4 61.05 230.97 61.83 230.52 62.63 C224.43 72.55 215.14 79.72 203.89 82.85 C200.1 83.64 196.31 83.55 192.45 83.54 C191.52 83.54 190.59 83.54 189.64 83.55 C186.55 83.56 183.46 83.55 180.36 83.55 C178.14 83.55 175.92 83.56 173.7 83.56 C167.67 83.58 161.65 83.58 155.62 83.58 C150.59 83.58 145.55 83.58 140.52 83.58 C127.96 83.6 115.4 83.6 102.84 83.59 C91.95 83.58 81.05 83.6 70.16 83.61 C58.96 83.63 47.76 83.64 36.56 83.64 C30.28 83.64 24 83.64 17.72 83.65 C11.81 83.67 5.9 83.66 -0.01 83.65 C-2.17 83.65 -4.34 83.65 -6.5 83.66 C-9.46 83.67 -12.43 83.66 -15.39 83.65 C-16.24 83.66 -17.09 83.66 -17.96 83.67 C-29.49 83.57 -38.46 79.46 -46.91 71.77 C-48.03 70.54 -48.03 70.54 -49.16 69.27 C-50.01 68.35 -50.85 67.42 -51.72 66.46 C-57.93 58.77 -60.89 49.42 -59.85 39.52 C-59.62 38.11 -59.4 36.69 -59.16 35.27 C-59.1 34.16 -59.04 33.05 -58.97 31.9 C-56.79 22.15 -50.35 12.96 -42.16 7.27 C-28.99 -0.76 -14.93 -0.02 0 0 Z " fill="#000000" transform="translate(445.161865234375,384.725341796875)"/>
</svg>
