<?xml version="1.0" encoding="UTF-8"?>
<!-- Generator: visioncortex VTracer 0.6.3 -->
<svg version="1.1" xmlns="http://www.w3.org/2000/svg" width="1280" height="1280">
<path d="M0 0 C0.66 0.33 1.32 0.66 2 1 C3.46 1.07 4.93 1.08 6.39 1.06 C7.31 1.05 8.24 1.05 9.19 1.04 C10.2 1.02 11.21 1.01 12.25 1 C22.15 0.94 32.04 1.11 41.94 1.44 C43.83 1.5 43.83 1.5 45.76 1.56 C51.56 1.76 57.3 2.05 63.07 2.77 C66.99 3.24 70.95 3.39 74.89 3.62 C78 4 78 4 81.27 5.1 C83.93 6.33 83.93 6.33 86 5 C86 5.66 86 6.32 86 7 C86.84 6.98 86.84 6.98 87.69 6.96 C95.42 6.87 102.5 7.78 110.02 9.6 C112.15 10.1 112.15 10.1 115 10 C115.33 10.66 115.66 11.32 116 12 C118.25 12.28 118.25 12.28 121 12.31 C128.77 12.81 135.76 15.14 143.15 17.44 C146.03 18.31 148.95 18.93 151.9 19.54 C158.93 21.07 165.84 23.22 172.72 25.32 C174.72 25.92 176.73 26.46 178.75 27 C182.06 28.02 184.92 29.42 188 31 C189.33 31.36 190.66 31.69 192 32 C193.81 32.45 195.63 32.91 197.44 33.38 C198.36 33.61 199.29 33.84 200.25 34.09 C203.15 35.05 205.39 36.42 208 38 C210.02 38.78 212.07 39.5 214.12 40.19 C232.13 46.47 249.4 54.63 266.41 63.21 C271.21 65.63 276.06 67.88 281 70 C281 70.66 281 71.32 281 72 C282.18 72.33 283.35 72.66 284.56 73 C289.87 74.75 294.59 77.34 299.47 80.02 C302.93 81.91 306.36 83.67 310 85.19 C314.13 86.93 317.4 89.35 321 92 C321.66 92 322.32 92 323 92 C323 92.66 323 93.32 323 94 C325.47 94.99 325.47 94.99 328 96 C328 96.66 328 97.32 328 98 C330.31 98.33 332.62 98.66 335 99 C335.33 100.32 335.66 101.64 336 103 C336.68 103.06 337.36 103.12 338.06 103.19 C341.26 104.07 343.3 105.56 345.92 107.55 C348.32 109.22 350.79 110.57 353.38 111.94 C363.66 117.44 363.66 117.44 368 121 C368 121.66 368 122.32 368 123 C368.76 123.12 369.53 123.25 370.31 123.38 C373 124 373 124 376 126 C376 126.66 376 127.32 376 128 C378.31 128.66 380.62 129.32 383 130 C383 130.66 383 131.32 383 132 C383.66 132 384.32 132 385 132 C385.56 132.56 386.13 133.13 386.71 133.71 C389.44 136.44 392.49 138.5 395.69 140.62 C401.86 144.73 401.86 144.73 403 147 C404.15 147.31 405.31 147.62 406.5 147.94 C407.65 148.29 408.81 148.64 410 149 C410.33 149.99 410.66 150.98 411 152 C412.96 153.39 414.96 154.72 417 156 C419.81 157.95 421.06 159.08 423 162 C424.97 163.06 426.97 164.07 429 165 C429 165.66 429 166.32 429 167 C429.58 167.27 430.15 167.54 430.75 167.81 C433.77 169.41 436.31 171.46 439 173.56 C440.95 175.05 440.95 175.05 443.12 176.06 C445.56 177.28 447.11 179.05 449 181 C449.66 181.33 450.32 181.66 451 182 C451 182.66 451 183.32 451 184 C451.74 184.25 452.48 184.5 453.25 184.75 C456.25 186.11 457.8 187.58 460 190 C461.98 192.06 463.58 193.38 466 195 C466 195.66 466 196.32 466 197 C466.84 197.37 466.84 197.37 467.69 197.75 C470.4 199.22 472.62 201.05 475 203 C475.66 203.33 476.32 203.66 477 204 C477.33 204.99 477.66 205.98 478 207 C480.38 208.61 480.38 208.61 483 210 C483.99 210.66 484.98 211.32 486 212 C486 212.66 486 213.32 486 214 C486.99 214.33 487.98 214.66 489 215 C489 215.66 489 216.32 489 217 C489.59 217.11 490.17 217.22 490.77 217.33 C494.59 218.48 497.3 221.13 500 224 C500.7 225.65 501.37 227.32 502 229 C504.04 229.89 504.04 229.89 506 230 C506 230.66 506 231.32 506 232 C506.66 232 507.32 232 508 232 C509.62 233.37 509.62 233.37 511 235 C511 235.66 511 236.32 511 237 C511.96 237.4 511.96 237.4 512.94 237.81 C515 239 515 239 516 242 C517.33 242.68 518.66 243.35 520 244 C521.61 245.42 523.16 246.9 524.68 248.42 C525.6 249.33 526.52 250.25 527.47 251.19 C528.46 252.19 529.46 253.19 530.45 254.19 C531.48 255.21 532.5 256.24 533.53 257.26 C535.67 259.4 537.82 261.55 539.96 263.69 C542.7 266.45 545.46 269.2 548.21 271.95 C550.33 274.06 552.44 276.17 554.56 278.29 C555.57 279.3 556.59 280.32 557.6 281.33 C559.02 282.74 560.43 284.16 561.84 285.58 C563.05 286.79 563.05 286.79 564.28 288.03 C566 290 566 290 566 292 C566.99 292.33 567.98 292.66 569 293 C569 293.66 569 294.32 569 295 C569.66 295 570.32 295 571 295 C572.44 296.5 572.44 296.5 574 298.44 C576.15 301.15 576.15 301.15 579 303 C579.59 304.05 579.59 304.05 580.19 305.12 C582.27 308.43 584.73 310.8 587.57 313.45 C589 315 589 315 589 317 C589.66 317 590.32 317 591 317 C591 317.66 591 318.32 591 319 C591.66 319 592.32 319 593 319 C593.66 320.65 594.32 322.3 595 324 C595.66 324 596.32 324 597 324 C597 324.99 597 325.98 597 327 C597.99 327.33 598.98 327.66 600 328 C601.61 329.56 601.61 329.56 603.19 331.44 C603.72 332.05 604.25 332.67 604.79 333.31 C606 335 606 335 606 337 C606.66 337 607.32 337 608 337 C609.59 338.83 609.59 338.83 611.38 341.25 C613.23 343.75 615 346 617.23 348.17 C619 350 619 350 619 352 C619.66 352 620.32 352 621 352 C621.29 352.62 621.58 353.24 621.88 353.88 C622.94 356.13 622.94 356.13 625 358 C628.73 361.73 631.6 365.37 634.46 369.81 C635.91 372.01 635.91 372.01 637.69 373.66 C639 375 639 375 639 377 C639.66 377 640.32 377 641 377 C642.55 379.31 642.55 379.31 644.31 382.44 C644.89 383.45 645.46 384.46 646.05 385.5 C646.5 386.33 646.5 386.33 646.97 387.18 C647.71 388.48 648.5 389.76 649.32 391.01 C653.2 397.2 653.89 402.45 653.81 409.69 C653.81 410.74 653.8 411.8 653.8 412.89 C653.47 422.57 650.68 428.3 645 436 C643.61 438.31 642.31 440.64 641 443 C640.34 443 639.68 443 639 443 C638.74 443.57 638.47 444.14 638.2 444.73 C634.76 451.22 629.41 456.79 624.48 462.18 C622.98 464.03 621.98 465.83 621 468 C620.34 468 619.68 468 619 468 C618.75 468.56 618.51 469.13 618.25 469.71 C616.79 472.39 615.01 474.38 612.94 476.62 C610.14 479.59 610.14 479.59 608 483 C607.34 483 606.68 483 606 483 C605.63 483.87 605.63 483.87 605.25 484.76 C603.83 487.31 602.2 488.89 600.06 490.88 C596.76 494.08 594.7 496.74 593 501 C592.34 501 591.68 501 591 501 C591 501.66 591 502.32 591 503 C590.34 503 589.68 503 589 503 C588.74 503.59 588.47 504.18 588.2 504.79 C586.96 507.08 585.68 508.52 583.81 510.31 C583.2 510.91 582.58 511.51 581.95 512.13 C580.65 513.38 579.35 514.62 578.05 515.87 C577.44 516.47 576.82 517.07 576.19 517.69 C575.62 518.23 575.06 518.77 574.48 519.32 C572.91 521.11 571.97 522.84 571 525 C570.34 525 569.68 525 569 525 C568.67 525.99 568.34 526.98 568 528 C567.34 528 566.68 528 566 528 C565.64 528.85 565.64 528.85 565.28 529.71 C563.72 532.5 561.84 534.41 559.58 536.68 C558.67 537.6 557.75 538.52 556.81 539.47 C555.81 540.46 554.81 541.46 553.81 542.45 C552.79 543.48 551.76 544.5 550.74 545.53 C548.6 547.67 546.45 549.82 544.31 551.96 C541.55 554.7 538.8 557.46 536.05 560.21 C533.94 562.33 531.83 564.44 529.71 566.56 C528.7 567.57 527.68 568.59 526.67 569.6 C525.26 571.02 523.84 572.43 522.42 573.84 C521.21 575.05 521.21 575.05 519.97 576.28 C518 578 518 578 516 578 C515.6 578.96 515.6 578.96 515.19 579.94 C514 582 514 582 511 583 C511 583.66 511 584.32 511 585 C509.37 586.38 507.69 587.7 506 589 C501.23 593.01 496.73 597.18 492.45 601.71 C491 603 491 603 489 603 C488.67 603.99 488.34 604.98 488 606 C487.34 606 486.68 606 486 606 C486 606.66 486 607.32 486 608 C483.68 610.06 481.42 611.77 478.69 613.25 C475.21 615.51 472.6 618.35 469.77 621.36 C468 623 468 623 466 623 C465.67 623.99 465.34 624.98 465 626 C463.01 627.34 461.01 628.68 459 630 C457.89 631.06 456.81 632.14 455.75 633.25 C454.84 634.16 453.93 635.07 453 636 C452.34 636 451.68 636 451 636 C451 636.66 451 637.32 451 638 C449.5 639.08 449.5 639.08 447.44 640.25 C443.22 642.78 439.67 645.74 436 649 C431.26 653 431.26 653 429 653 C428.67 653.99 428.34 654.98 428 656 C427.13 656.41 426.27 656.83 425.38 657.25 C421.69 659.16 419.55 661.34 416.71 664.3 C414.37 666.62 411.81 668.28 409 670 C404.44 672.8 400.18 675.64 396 679 C394.59 679.95 393.17 680.88 391.75 681.81 C387.72 684.46 383.93 687.34 380.14 690.32 C371.63 697 371.63 697 368 697 C367.67 697.99 367.34 698.98 367 700 C365.36 701.28 365.36 701.28 363.31 702.5 C362.59 702.93 361.87 703.36 361.12 703.81 C358.46 705.3 355.73 706.64 353 708 C350.99 709.31 348.99 710.65 347 712 C344.35 713.69 341.68 715.35 339 717 C338.13 717.54 337.27 718.07 336.38 718.62 C334.64 719.63 332.86 720.56 331.06 721.44 C327.85 723.08 324.99 724.98 322 727 C319.7 728.53 317.38 730.05 315.06 731.56 C314.48 731.95 313.9 732.33 313.3 732.73 C309.35 735.3 305.38 737.21 301 739 C299.05 739.94 297.12 740.9 295.19 741.88 C294.16 742.39 293.13 742.91 292.07 743.45 C291.05 743.96 290.04 744.47 289 745 C287.21 745.9 285.42 746.79 283.62 747.69 C282.82 748.09 282.01 748.5 281.17 748.91 C260.13 759.44 260.13 759.44 257.59 760.7 C255.82 761.59 254.05 762.49 252.28 763.39 C251.4 763.84 250.53 764.29 249.62 764.75 C248.83 765.16 248.04 765.56 247.23 765.98 C245 767 245 767 243.08 767.46 C239.15 768.48 235.66 770.66 232.07 772.53 C229.08 773.96 226.15 774.98 223 776 C219.82 777.3 216.64 778.61 213.48 779.96 C209.85 781.46 206.94 782.35 203 782 C203 782.66 203 783.32 203 784 C202.14 784.24 202.14 784.24 201.27 784.48 C194.99 786.29 188.95 788.5 182.88 790.91 C180.57 791.79 178.4 792.46 176 793 C170.69 794.39 165.43 795.81 160.25 797.62 C156.53 798.91 152.91 799.46 149 800 C148.34 800.33 147.68 800.66 147 801 C144.12 802.44 141.17 802.58 138 803 C137.67 803.33 137.34 803.66 137 804 C135.06 804.23 133.13 804.46 131.19 804.68 C128.72 804.99 128.72 804.99 125.31 806.06 C122.29 806.92 120.09 807 117 807 C116.01 807.66 115.02 808.32 114 809 C111.55 809.38 111.55 809.38 108.88 809.56 C105.63 809.54 105.63 809.54 103 811 C99.63 811.24 96.27 811.4 92.9 811.52 C89.13 811.7 87.21 811.86 84 814 C81.12 814.28 78.32 814.46 75.44 814.56 C70.05 814.54 70.05 814.54 65 816 C62.17 816.14 59.36 816.23 56.53 816.28 C55.69 816.3 54.85 816.32 53.99 816.34 C50.39 816.42 46.8 816.48 43.2 816.55 C40.58 816.6 37.96 816.66 35.34 816.72 C34.52 816.73 33.7 816.75 32.86 816.76 C29.12 816.49 29.12 816.49 26 818 C23.35 818.3 20.73 818.52 18.06 818.69 C17.34 818.75 16.62 818.81 15.87 818.87 C11.92 819.12 8.51 818.98 4.65 818.05 C-3.57 816.22 -12.11 816.56 -20.5 816.44 C-23.12 816.39 -25.75 816.35 -28.37 816.29 C-29.99 816.26 -31.61 816.24 -33.24 816.21 C-38.78 816.11 -38.78 816.11 -41 815 C-44.6 814.77 -48.19 814.6 -51.79 814.48 C-55.65 814.31 -57.72 814.18 -61 812 C-63.73 811.72 -66.39 811.54 -69.12 811.44 C-76.88 811.12 -76.88 811.12 -78 810 C-80.48 809.72 -82.96 809.55 -85.46 809.38 C-88.06 808.99 -89.67 808.17 -92 807 C-94.55 806.59 -94.55 806.59 -97.19 806.44 C-101.9 806.1 -101.9 806.1 -103 805 C-104.33 804.79 -105.66 804.63 -107 804.5 C-110.89 804.11 -110.89 804.11 -112 803 C-113.66 802.63 -115.33 802.3 -117 802 C-121.89 801.11 -121.89 801.11 -123 800 C-124.33 799.67 -125.66 799.39 -127 799.12 C-130.26 798.43 -133.36 797.6 -136.5 796.5 C-139.5 795.45 -142.45 794.64 -145.56 794 C-149.18 793.24 -152.47 792.14 -155.91 790.79 C-159.04 789.61 -162.25 788.7 -165.46 787.76 C-169.34 786.6 -173.17 785.31 -177 784 C-177 783.34 -177 782.68 -177 782 C-177.95 781.92 -178.9 781.84 -179.88 781.75 C-183.98 781.17 -187.52 779.7 -191.32 778.11 C-194.04 776.98 -196.79 775.98 -199.56 775 C-204.49 773.23 -209.25 771.2 -214 769 C-214 768.34 -214 767.68 -214 767 C-214.55 767.22 -215.1 767.44 -215.67 767.67 C-218.95 768.14 -220.43 766.98 -223.25 765.31 C-224.22 764.75 -225.2 764.19 -226.2 763.62 C-227.12 763.08 -228.05 762.55 -229 762 C-230.35 761.3 -231.7 760.61 -233.06 759.94 C-233.7 759.63 -234.33 759.31 -234.98 758.99 C-235.98 758.5 -235.98 758.5 -237 758 C-238.63 757.19 -240.25 756.38 -241.88 755.56 C-242.72 755.14 -243.56 754.72 -244.43 754.29 C-272 740.5 -272 740.5 -274.5 739.25 C-276.17 738.41 -277.85 737.59 -279.54 736.79 C-284.63 734.32 -289.29 731.57 -293.95 728.36 C-296.54 726.64 -299.18 725.3 -302 724 C-302 723.34 -302 722.68 -302 722 C-302.76 721.9 -303.53 721.79 -304.31 721.69 C-307 721 -307 721 -308.34 719.64 C-310.42 717.59 -312.6 716.47 -315.19 715.12 C-319.93 712.6 -324.47 709.89 -329 707 C-330.24 706.26 -330.24 706.26 -331.5 705.5 C-333.74 704.16 -335.97 702.81 -338.19 701.44 C-338.86 701.02 -339.54 700.61 -340.23 700.18 C-342 699 -342 699 -344 697 C-345.05 696.38 -345.05 696.38 -346.12 695.75 C-349.28 693.83 -352.13 691.67 -355.04 689.4 C-356.96 688.03 -358.86 686.99 -361 686 C-361 685.34 -361 684.68 -361 684 C-362.09 683.6 -362.09 683.6 -363.2 683.2 C-366.02 681.99 -368.26 680.59 -370.75 678.81 C-371.61 678.2 -372.47 677.59 -373.36 676.95 C-376.7 674.48 -379.96 671.91 -383.19 669.29 C-384.9 667.81 -384.9 667.81 -387 668 C-387 667.34 -387 666.68 -387 666 C-387.54 665.79 -388.07 665.59 -388.62 665.38 C-390.86 664.08 -392.12 662.92 -393.88 661.06 C-396.65 658.18 -399.4 656.76 -403 655 C-406.15 652.59 -409.05 649.87 -411.98 647.2 C-416.11 643.48 -420.07 640.57 -425 638 C-425 637.34 -425 636.68 -425 636 C-425.84 635.91 -425.84 635.91 -426.69 635.81 C-429.95 634.67 -431.64 632.48 -434 630 C-434.99 629.34 -435.98 628.68 -437 628 C-437 627.34 -437 626.68 -437 626 C-437.99 625.67 -438.98 625.34 -440 625 C-440 624.34 -440 623.68 -440 623 C-440.52 622.77 -441.03 622.55 -441.56 622.31 C-446.51 619.65 -450.65 617.24 -453 612 C-454.92 610.83 -454.92 610.83 -457 610 C-457.99 609.34 -458.98 608.68 -460 608 C-460 607.34 -460 606.68 -460 606 C-460.99 606 -461.98 606 -463 606 C-463 605.01 -463 604.02 -463 603 C-463.54 602.75 -464.07 602.5 -464.62 602.25 C-470.34 599.24 -474.22 595.81 -478.32 590.9 C-480.33 588.63 -482.63 586.87 -485 585 C-485 584.34 -485 583.68 -485 583 C-485.64 582.73 -486.28 582.46 -486.94 582.19 C-489 581 -489 581 -490 578 C-491.31 577.3 -492.65 576.63 -494 576 C-495.66 574.58 -495.66 574.58 -497.31 572.91 C-497.94 572.29 -498.56 571.67 -499.2 571.02 C-499.87 570.35 -500.53 569.67 -501.21 568.98 C-501.91 568.28 -502.6 567.59 -503.31 566.87 C-505.53 564.65 -507.73 562.42 -509.94 560.19 C-511.42 558.7 -512.9 557.21 -514.38 555.72 C-517.11 552.97 -519.84 550.22 -522.56 547.47 C-526.17 543.83 -529.78 540.19 -533.46 536.61 C-534.23 535.85 -535.01 535.09 -535.81 534.31 C-537 533.16 -537 533.16 -538.21 531.99 C-540 530 -540 530 -540 528 C-540.64 527.73 -541.28 527.46 -541.94 527.19 C-544 526 -544 526 -545 523 C-545.66 523 -546.32 523 -547 523 C-547.5 521.51 -547.5 521.51 -548 520 C-549.39 519.07 -549.39 519.07 -550.81 518.12 C-554.03 515.98 -555.72 514.09 -558 511 C-558.91 509.93 -559.83 508.87 -560.75 507.81 C-563 505 -563 505 -563 503 C-563.66 503 -564.32 503 -565 503 C-565 502.34 -565 501.68 -565 501 C-565.66 501 -566.32 501 -567 501 C-567.43 500.05 -567.87 499.1 -568.31 498.12 C-570.13 494.76 -571.63 493.68 -575 492 C-575 491.01 -575 490.02 -575 489 C-575.99 488.67 -576.98 488.34 -578 488 C-579.19 485.44 -579.19 485.44 -580 483 C-580.66 483 -581.32 483 -582 483 C-583.33 481 -584.67 479 -586 477 C-586.66 477 -587.32 477 -588 477 C-590.17 474.04 -591.84 471.49 -593 468 C-593.66 468 -594.32 468 -595 468 C-596.02 466.34 -597.02 464.68 -598 463 C-598.66 462.67 -599.32 462.34 -600 462 C-600 461.01 -600 460.02 -600 459 C-600.99 458.67 -601.98 458.34 -603 458 C-604.56 456.56 -604.56 456.56 -606 455 C-606.66 454.34 -607.32 453.68 -608 453 C-608.62 450.38 -608.62 450.38 -609 448 C-609.99 447.67 -610.98 447.34 -612 447 C-612.69 444.94 -612.69 444.94 -613 443 C-613.66 443 -614.32 443 -615 443 C-615.99 441.02 -616.98 439.04 -618 437 C-618.66 437 -619.32 437 -620 437 C-620.41 436.01 -620.83 435.02 -621.25 434 C-622.08 432.01 -622.92 430.14 -624.03 428.29 C-627.6 422.27 -627.53 416.73 -627.38 409.88 C-627.37 408.82 -627.37 407.76 -627.37 406.67 C-627.31 401.42 -627.12 396.9 -625 392 C-624.34 392 -623.68 392 -623 392 C-623.5 390.51 -623.5 390.51 -624 389 C-623.34 388.34 -622.68 387.68 -622 387 C-621.69 386.38 -621.38 385.76 -621.06 385.12 C-619.93 382.85 -618.55 381.01 -617 379 C-616.34 378.01 -615.68 377.02 -615 376 C-613.5 373.81 -613.5 373.81 -612 372 C-611.34 372 -610.68 372 -610 372 C-609.67 371.01 -609.34 370.02 -609 369 C-607.58 365.62 -605.74 363.61 -603.06 361.12 C-600.62 358.75 -599.07 357.14 -597.56 354.06 C-595.09 349.21 -591.13 345.52 -587 342 C-586.34 342 -585.68 342 -585 342 C-584.67 341.01 -584.34 340.02 -584 339 C-582.56 334.69 -579.5 332.4 -576.22 329.33 C-572.55 325.82 -569.98 322.78 -568 318 C-567.34 318 -566.68 318 -566 318 C-565.74 317.41 -565.47 316.82 -565.2 316.22 C-563.96 313.92 -562.65 312.39 -560.81 310.55 C-560.2 309.93 -559.58 309.31 -558.95 308.67 C-558.3 308.04 -557.66 307.4 -557 306.75 C-556.36 306.1 -555.72 305.45 -555.05 304.78 C-554.13 303.86 -554.13 303.86 -553.19 302.92 C-552.62 302.36 -552.06 301.8 -551.48 301.22 C-550 300 -550 300 -548 300 C-548 299.01 -548 298.02 -548 297 C-547.01 297 -546.02 297 -545 297 C-544.93 296.28 -544.86 295.56 -544.79 294.82 C-543.77 291.17 -542.1 289.62 -539.42 286.95 C-538.95 286.48 -538.47 286 -537.98 285.51 C-536.41 283.94 -534.83 282.38 -533.25 280.82 C-532.14 279.72 -531.04 278.63 -529.94 277.53 C-527.64 275.23 -525.32 272.93 -523 270.65 C-520.05 267.73 -517.1 264.8 -514.16 261.87 C-511.34 259.06 -508.51 256.25 -505.68 253.45 C-504.89 252.65 -504.89 252.65 -504.08 251.85 C-498.71 246.53 -493.34 241.27 -487.58 236.37 C-485.62 234.67 -483.79 232.87 -482 231 C-481.34 231.33 -480.68 231.66 -480 232 C-480 231.01 -480 230.02 -480 229 C-479.01 229 -478.02 229 -477 229 C-476.75 228.42 -476.5 227.85 -476.24 227.25 C-474.83 224.7 -473.22 223.02 -471.12 221 C-470.11 220.01 -470.11 220.01 -469.07 219 C-468.05 218.01 -468.05 218.01 -467 217 C-466.3 216.26 -465.59 215.51 -464.87 214.75 C-463 213 -463 213 -461 213 C-460.75 212.39 -460.49 211.78 -460.23 211.14 C-458.82 208.69 -457.77 208.02 -455.31 206.69 C-451.49 204.45 -448.71 201.84 -445.66 198.64 C-442.52 195.54 -439.21 193.4 -435 192 C-434.32 190.67 -433.66 189.34 -433 188 C-431.13 186.11 -431.13 186.11 -429 184.31 C-428.3 183.71 -427.6 183.11 -426.88 182.49 C-425 181 -425 181 -423 180 C-420.48 178.08 -418.15 176.15 -415.94 173.88 C-413.19 171.22 -410.59 170.2 -407 169 C-406.69 168.38 -406.38 167.76 -406.06 167.12 C-404.39 163.78 -401.75 162.43 -398.56 160.62 C-395.61 158.75 -393.44 156.5 -391 154 C-388 152 -388 152 -385 152 C-384.79 151.4 -384.59 150.8 -384.38 150.19 C-382.48 147.17 -380.19 146.5 -377 145 C-375.31 143.69 -373.64 142.37 -372 141 C-370 140 -370 140 -367 139 C-367 138.34 -367 137.68 -367 137 C-366.44 136.75 -365.89 136.5 -365.31 136.25 C-361.61 134.25 -358.56 131.48 -355.38 128.75 C-353 127 -353 127 -350 127 C-350 126.34 -350 125.68 -350 125 C-348.1 123.56 -348.1 123.56 -345.62 122 C-343.15 120.43 -341.08 119.08 -339 117 C-337.68 117 -336.36 117 -335 117 C-335 116.34 -335 115.68 -335 115 C-326.29 110 -326.29 110 -322 109 C-322 108.34 -322 107.68 -322 107 C-321.42 106.73 -320.85 106.46 -320.25 106.19 C-317.95 105.07 -317.95 105.07 -316 103.38 C-314 102 -314 102 -310 102 C-310 101.34 -310 100.68 -310 100 C-307.05 97.26 -306.23 97 -302 97 C-301.81 96.38 -301.63 95.76 -301.44 95.12 C-299.29 91.94 -296.62 91.81 -293 91 C-293 90.34 -293 89.68 -293 89 C-289.04 87.51 -289.04 87.51 -285 86 C-285 85.34 -285 84.68 -285 84 C-283.35 83.67 -281.7 83.34 -280 83 C-280 82.67 -280 82.34 -280 82 C-278.35 81.67 -276.7 81.34 -275 81 C-275 80.34 -275 79.68 -275 79 C-271.73 77.12 -268.72 76.51 -265 76 C-265 75.34 -265 74.68 -265 74 C-263.71 73.47 -262.42 72.95 -261.12 72.44 C-260.41 72.15 -259.69 71.86 -258.95 71.56 C-257 71 -257 71 -255 72 C-255 71.01 -255 70.02 -255 69 C-252.03 68.01 -249.06 67.02 -246 66 C-246 65.34 -246 64.68 -246 64 C-245.36 63.81 -244.72 63.61 -244.07 63.41 C-243.24 63.15 -242.41 62.89 -241.56 62.62 C-240.74 62.37 -239.92 62.11 -239.07 61.85 C-236.82 61.19 -236.82 61.19 -236 59 C-234.34 58.64 -232.67 58.31 -231 58 C-228.85 57.05 -228.85 57.05 -227 56 C-226.34 55.67 -225.68 55.34 -225 55 C-225 54.67 -225 54.34 -225 54 C-223.02 54 -221.04 54 -219 54 C-219 53.34 -219 52.68 -219 52 C-218.28 51.73 -217.56 51.46 -216.81 51.19 C-213.98 50.09 -213.98 50.09 -211.56 48.44 C-208.68 46.82 -206.26 46.38 -203 46 C-203 45.34 -203 44.68 -203 44 C-199.53 43.5 -199.53 43.5 -196 43 C-196 42.67 -196 42.34 -196 42 C-194.93 41.71 -193.86 41.42 -192.75 41.12 C-189.17 40.18 -189.17 40.18 -186.75 38.81 C-185 38 -185 38 -182 39 C-182 38.34 -182 37.68 -182 37 C-181.2 36.69 -180.39 36.38 -179.56 36.06 C-177.11 35.24 -177.11 35.24 -176 34 C-173.67 33.96 -171.33 33.96 -169 34 C-169 33.34 -169 32.68 -169 32 C-166.69 31.67 -164.38 31.34 -162 31 C-162 30.34 -162 29.68 -162 29 C-159.36 29 -156.72 29 -154 29 C-154 28.34 -154 27.68 -154 27 C-151.69 26.67 -149.38 26.34 -147 26 C-147 25.34 -147 24.68 -147 24 C-139.25 22.88 -139.25 22.88 -137 24 C-137 23.34 -137 22.68 -137 22 C-135.87 21.88 -134.73 21.75 -133.56 21.62 C-132.39 21.42 -131.21 21.21 -130 21 C-129.67 20.34 -129.34 19.68 -129 19 C-126.93 18.59 -126.93 18.59 -124.44 18.38 C-123.61 18.3 -122.78 18.23 -121.93 18.15 C-121.3 18.1 -120.66 18.05 -120 18 C-120 17.67 -120 17.34 -120 17 C-119.36 16.95 -118.72 16.9 -118.07 16.85 C-117.24 16.78 -116.41 16.7 -115.56 16.62 C-114.33 16.52 -114.33 16.52 -113.07 16.41 C-112.38 16.28 -111.7 16.14 -111 16 C-110.67 15.34 -110.34 14.68 -110 14 C-107.5 13.59 -107.5 13.59 -104.44 13.38 C-103.43 13.3 -102.41 13.23 -101.37 13.15 C-100.59 13.1 -99.81 13.05 -99 13 C-99 12.67 -99 12.34 -99 12 C-98.22 11.95 -97.44 11.9 -96.63 11.85 C-95.62 11.78 -94.61 11.7 -93.56 11.62 C-92.55 11.56 -91.54 11.49 -90.5 11.41 C-89.68 11.28 -88.85 11.14 -88 11 C-87.67 10.34 -87.34 9.68 -87 9 C-83.84 8.59 -83.84 8.59 -79.94 8.38 C-78.65 8.3 -77.36 8.23 -76.03 8.15 C-75.03 8.1 -74.03 8.05 -73 8 C-73 7.67 -73 7.34 -73 7 C-71.41 6.93 -71.41 6.93 -69.79 6.85 C-68.4 6.78 -67.01 6.7 -65.62 6.62 C-64.93 6.59 -64.23 6.56 -63.51 6.53 C-59.3 6.41 -59.3 6.41 -56 4 C-53.75 3.68 -53.75 3.68 -50.99 3.59 C-50.01 3.55 -49.02 3.51 -48 3.47 C-46.46 3.42 -46.46 3.42 -44.88 3.38 C-43.83 3.34 -42.79 3.3 -41.72 3.26 C-39.15 3.16 -36.57 3.08 -34 3 C-34 2.67 -34 2.34 -34 2 C-29.8 1.83 -25.6 1.67 -21.4 1.52 C-19.97 1.46 -18.55 1.41 -17.12 1.35 C-15.06 1.27 -13.01 1.19 -10.95 1.12 C-9.1 1.05 -9.1 1.05 -7.21 0.98 C-4.54 1 -2.51 1.18 0 2 C0 1.34 0 0.68 0 0 Z M-18 88 C-20.37 88.3 -20.37 88.3 -22.79 88.38 C-24.11 88.43 -24.11 88.43 -25.45 88.48 C-26.35 88.51 -27.26 88.54 -28.19 88.56 C-29.99 88.62 -31.8 88.69 -33.61 88.75 C-34.8 88.79 -34.8 88.79 -36.02 88.83 C-38.07 88.88 -38.07 88.88 -40 90 C-43.62 90.47 -47.25 90.87 -50.88 91.25 C-55.07 91.63 -55.07 91.63 -59 93 C-61.14 93.27 -63.27 93.44 -65.42 93.62 C-68.15 93.96 -68.15 93.96 -71.29 94.94 C-75.94 96.27 -80.62 97.06 -85.39 97.86 C-88.86 98.47 -91.02 99.02 -94 101 C-95.66 101.37 -97.33 101.7 -99 102 C-100.8 102.49 -102.59 102.99 -104.38 103.5 C-107.59 104.4 -110.69 105.17 -114 105.56 C-117.17 105.81 -117.17 105.81 -120 108 C-122.32 108.71 -124.66 109.37 -127 110 C-133.34 111.73 -139.37 113.83 -145.38 116.5 C-148.2 117.67 -150.83 118.55 -153.75 119.38 C-158.59 120.77 -163.02 122.73 -167.55 124.91 C-170 126 -170 126 -171.94 126.46 C-175.35 127.35 -178.38 129.13 -181.5 130.75 C-187.27 133.69 -193.06 136.36 -199.06 138.79 C-202.32 140.13 -205.54 141.55 -208.75 143 C-209.76 143.45 -210.76 143.91 -211.8 144.38 C-214.96 145.98 -217.89 147.78 -220.88 149.68 C-224.47 151.92 -228.17 153.96 -231.88 156 C-232.66 156.44 -233.45 156.88 -234.27 157.33 C-239.08 159.98 -243.94 162.51 -248.89 164.91 C-251.81 166.42 -254.56 168.17 -257.31 169.98 C-259 171 -259 171 -262 172 C-263.02 172.98 -264.02 173.99 -265 175 C-268.94 177.76 -273.14 180.09 -277.38 182.38 C-282.53 185.2 -287.23 188.59 -292 192 C-293.99 193.34 -295.99 194.68 -298 196 C-300.28 197.52 -302.56 199.04 -304.83 200.56 C-306.61 201.74 -308.4 202.9 -310.19 204.06 C-312.32 205.53 -314.23 207.01 -316.19 208.69 C-319 211 -319 211 -322 212 C-322.43 212.43 -322.87 212.87 -323.31 213.31 C-325.62 215.62 -328.26 217.23 -331 219 C-331.99 219.66 -332.98 220.32 -334 221 C-334 221.66 -334 222.32 -334 223 C-334.85 223.19 -335.69 223.37 -336.56 223.56 C-340.5 225.21 -342.4 227.21 -345.28 230.27 C-347.6 232.6 -350.23 234.23 -353 236 C-354.01 236.85 -355.02 237.69 -356.06 238.56 C-359 241 -359 241 -361.38 242.31 C-363.98 243.99 -365.79 245.73 -367.94 247.94 C-371.08 251.16 -374.21 253.55 -378 256 C-380.77 258.22 -383.53 260.45 -386 263 C-386 263.66 -386 264.32 -386 265 C-387.25 265.27 -387.25 265.27 -388.53 265.54 C-393.28 267.54 -396.06 270.67 -399.56 274.38 C-400.85 275.72 -402.15 277.06 -403.44 278.4 C-404.05 279.03 -404.65 279.66 -405.28 280.3 C-407 282 -407 282 -409.96 284.35 C-410.64 284.9 -411.31 285.44 -412 286 C-412 286.66 -412 287.32 -412 288 C-412.74 288.25 -413.48 288.5 -414.25 288.76 C-417.2 290.09 -418.79 291.46 -421.03 293.77 C-421.76 294.52 -422.49 295.26 -423.24 296.02 C-423.98 296.8 -424.73 297.58 -425.5 298.38 C-426.99 299.91 -428.48 301.43 -429.97 302.96 C-430.66 303.67 -431.36 304.38 -432.07 305.12 C-434 307 -434 307 -437.03 309.41 C-437.68 309.94 -438.33 310.46 -439 311 C-439 311.66 -439 312.32 -439 313 C-439.66 313 -440.32 313 -441 313 C-442.67 314.33 -442.67 314.33 -444 316 C-444 316.66 -444 317.32 -444 318 C-444.66 318 -445.32 318 -446 318 C-447.67 319.33 -447.67 319.33 -449 321 C-449 321.66 -449 322.32 -449 323 C-449.66 323 -450.32 323 -451 323 C-451 323.66 -451 324.32 -451 325 C-451.99 325.33 -452.98 325.66 -454 326 C-454 326.66 -454 327.32 -454 328 C-454.66 328 -455.32 328 -456 328 C-457.67 329.33 -457.67 329.33 -459 331 C-459 331.66 -459 332.32 -459 333 C-459.66 333 -460.32 333 -461 333 C-462.45 334.44 -462.45 334.44 -463.98 336.36 C-466.85 339.74 -469.85 342.91 -473.02 346.02 C-474.34 347.3 -474.34 347.3 -475.68 348.62 C-477.5 350.39 -479.32 352.16 -481.14 353.93 C-482.01 354.78 -482.88 355.64 -483.77 356.52 C-484.56 357.28 -485.35 358.05 -486.16 358.84 C-488.04 361.05 -488.35 362.27 -489 365 C-489.99 365.33 -490.98 365.66 -492 366 C-492 366.66 -492 367.32 -492 368 C-492.66 368 -493.32 368 -494 368 C-495.5 369.48 -495.5 369.48 -497.06 371.44 C-500.48 375.48 -504.16 379.16 -507.98 382.82 C-510.87 385.94 -512.66 388.97 -514 393 C-514.66 393 -515.32 393 -516 393 C-517.67 394.62 -517.67 394.62 -519.38 396.69 C-519.99 397.42 -520.61 398.14 -521.25 398.89 C-521.82 399.59 -522.4 400.28 -523 401 C-523.8 401.95 -524.61 402.9 -525.44 403.88 C-527.2 405.83 -527.2 405.83 -527 408 C-527.66 408 -528.32 408 -529 408 C-529 409.32 -529 410.64 -529 412 C-528.34 412 -527.68 412 -527 412 C-526.74 412.58 -526.48 413.15 -526.22 413.75 C-524.9 416.19 -523.37 418.01 -521.5 420.06 C-519.44 422.33 -517.71 424.44 -516 427 C-515.34 427 -514.68 427 -514 427 C-513.75 427.54 -513.5 428.07 -513.25 428.62 C-511.69 431.58 -509.97 434.3 -508 437 C-507.34 437 -506.68 437 -506 437 C-506 437.66 -506 438.32 -506 439 C-505.34 439 -504.68 439 -504 439 C-503.63 439.87 -503.63 439.87 -503.25 440.75 C-501.82 443.33 -500.22 445.06 -498 447 C-497.34 447 -496.68 447 -496 447 C-495.73 447.76 -495.46 448.53 -495.19 449.31 C-494.05 451.89 -493.19 453.27 -491 455 C-490.34 455 -489.68 455 -489 455 C-488.74 455.6 -488.48 456.2 -488.21 456.82 C-486.93 459.13 -485.75 460.25 -483.69 461.88 C-479.38 465.43 -476.2 469.43 -472.81 473.88 C-472.21 474.58 -471.62 475.28 -471 476 C-470.34 476 -469.68 476 -469 476 C-468.74 476.59 -468.48 477.18 -468.21 477.79 C-466.93 480.14 -465.57 481.6 -463.62 483.44 C-461.44 485.55 -459.58 487.54 -457.69 489.94 C-457.13 490.62 -456.57 491.3 -456 492 C-455.34 492 -454.68 492 -454 492 C-454 492.66 -454 493.32 -454 494 C-452.67 495.67 -452.67 495.67 -451 497 C-450.34 497 -449.68 497 -449 497 C-449 497.66 -449 498.32 -449 499 C-447.67 500.67 -447.67 500.67 -446 502 C-445.34 502 -444.68 502 -444 502 C-444 502.66 -444 503.32 -444 504 C-442.45 505.57 -442.45 505.57 -440.44 507.19 C-436.89 510.19 -433.63 513.34 -430.45 516.71 C-429.07 518.22 -429.07 518.22 -427 518 C-426.67 518.66 -426.34 519.32 -426 520 C-424.6 521.65 -424.6 521.65 -423 523 C-422.34 523 -421.68 523 -421 523 C-420.5 524.49 -420.5 524.49 -420 526 C-418.12 528.21 -418.12 528.21 -416 530 C-415.34 530 -414.68 530 -414 530 C-414 530.66 -414 531.32 -414 532 C-412.38 533.67 -412.38 533.67 -410.31 535.38 C-409.58 536 -408.85 536.62 -408.1 537.26 C-406.49 538.6 -404.84 539.9 -403.19 541.19 C-401 543 -401 543 -399.5 545.06 C-396.83 548.51 -392.86 550.14 -389 552 C-389 552.66 -389 553.32 -389 554 C-387.37 555.38 -385.69 556.7 -384 558 C-381.91 559.86 -379.84 561.73 -377.77 563.61 C-376.11 565.21 -376.11 565.21 -374 565 C-374 565.66 -374 566.32 -374 567 C-372.24 568.51 -372.24 568.51 -370.06 570 C-366.1 572.79 -366.1 572.79 -365 575 C-363.02 575.73 -361.02 576.4 -359 577 C-359 577.66 -359 578.32 -359 579 C-357.34 580.01 -355.67 581.01 -354 582 C-353.01 583.49 -353.01 583.49 -352 585 C-351.01 585 -350.02 585 -349 585 C-349 585.66 -349 586.32 -349 587 C-346.36 589.4 -346.36 589.4 -343 590 C-342.67 590.99 -342.34 591.98 -342 593 C-339.75 594.52 -339.75 594.52 -337 596 C-331.27 599.6 -331.27 599.6 -329 603 C-327.01 604.02 -325.01 605.02 -323 606 C-322.67 606.66 -322.34 607.32 -322 608 C-320.73 608.62 -320.73 608.62 -319.44 609.25 C-315.84 611.08 -312.96 613.26 -309.83 615.79 C-307.95 617.28 -307.95 617.28 -305 617 C-304.67 617.99 -304.34 618.98 -304 620 C-302.21 621.45 -302.21 621.45 -300.06 622.69 C-299.35 623.12 -298.64 623.56 -297.91 624.01 C-296.06 625.15 -296.06 625.15 -294 625 C-294 625.66 -294 626.32 -294 627 C-292.68 627 -291.36 627 -290 627 C-289.67 627.99 -289.34 628.98 -289 630 C-287.01 631.02 -285.01 632.02 -283 633 C-281 634.67 -279 636.33 -277 638 C-275.02 639.03 -273.02 640.03 -271 641 C-268.89 642.31 -266.81 643.65 -264.73 645.01 C-263.04 646.17 -263.04 646.17 -261 646 C-261 646.66 -261 647.32 -261 648 C-259.93 648.66 -258.86 649.32 -257.75 650 C-257.15 650.37 -256.54 650.74 -255.92 651.12 C-253.75 652.28 -253.75 652.28 -250 652 C-249.67 652.99 -249.34 653.98 -249 655 C-246.75 656.5 -246.75 656.5 -244.06 657.75 C-243.17 658.2 -242.27 658.65 -241.35 659.11 C-240.57 659.4 -239.8 659.7 -239 660 C-238.34 659.67 -237.68 659.34 -237 659 C-236.67 659.99 -236.34 660.98 -236 662 C-234.07 663.1 -234.07 663.1 -231.75 663.94 C-227.92 665.53 -225.24 667.39 -222 670 C-213.3 675 -203.77 678.75 -194.61 682.84 C-192.09 683.96 -189.57 685.09 -187.05 686.22 C-179.43 689.64 -171.8 692.99 -164 696 C-163.18 696.34 -162.35 696.67 -161.5 697.02 C-159.29 697.89 -157.08 698.65 -154.81 699.38 C-151.55 700.45 -148.37 701.63 -145.19 702.94 C-139.54 705.23 -133.8 707.14 -128 709 C-127.34 709.21 -126.68 709.43 -126 709.65 C-123.88 710.33 -121.75 711.01 -119.62 711.69 C-118.63 712.01 -118.63 712.01 -117.61 712.34 C-113.75 713.55 -109.98 714.34 -106 715 C-103.99 715.65 -101.99 716.31 -100 717 C-97.46 717.71 -94.92 718.39 -92.38 719.06 C-91.72 719.24 -91.07 719.41 -90.39 719.59 C-85.61 720.85 -80.86 722.05 -76 723 C-72.2 723.76 -68.4 724.52 -64.59 725.28 C-63.41 725.52 -62.22 725.76 -61 726 C-60.11 726.19 -59.22 726.37 -58.3 726.56 C-56.09 726.98 -53.92 727.27 -51.69 727.5 C-48.87 727.8 -46.06 728.12 -43.25 728.5 C-38.73 729.08 -34.19 729.35 -29.64 729.62 C-26.7 729.93 -24.01 730.41 -21.14 731.01 C-14.47 732.23 -7.95 732.27 -1.2 732.23 C0.09 732.23 1.37 732.23 2.69 732.23 C5.38 732.23 8.07 732.22 10.76 732.21 C14.2 732.19 17.64 732.19 21.08 732.19 C24.38 732.19 27.69 732.18 30.99 732.17 C32.22 732.17 33.45 732.17 34.72 732.16 C36.44 732.16 36.44 732.16 38.19 732.15 C39.19 732.14 40.2 732.14 41.23 732.13 C43.92 732 46.38 731.6 49 731 C49 730.67 49 730.34 49 730 C49.6 729.98 50.21 729.96 50.83 729.94 C53.6 729.84 56.36 729.73 59.12 729.62 C60.08 729.59 61.03 729.56 62.01 729.53 C67.08 729.32 71.2 728.76 76 727 C78.48 726.88 78.48 726.88 80.75 727 C82.99 727.17 82.99 727.17 85 727 C85.66 726.34 86.32 725.68 87 725 C89.82 724.59 89.82 724.59 93.12 724.38 C94.22 724.3 95.32 724.23 96.45 724.15 C97.29 724.1 98.13 724.05 99 724 C99 723.67 99 723.34 99 723 C99.78 722.95 100.56 722.9 101.37 722.85 C102.38 722.78 103.39 722.7 104.44 722.62 C105.95 722.52 105.95 722.52 107.5 722.41 C108.32 722.28 109.15 722.14 110 722 C110.33 721.34 110.66 720.68 111 720 C113.03 719.62 113.03 719.62 115.5 719.44 C118.55 719.42 118.55 719.42 121 718 C122.51 717.61 124.03 717.26 125.56 716.94 C126.39 716.76 127.22 716.58 128.07 716.4 C128.7 716.27 129.34 716.14 130 716 C130 715.67 130 715.34 130 715 C132.64 714.67 135.28 714.34 138 714 C138 713.34 138 712.68 138 712 C139.11 712.04 140.23 712.08 141.38 712.12 C145.04 712.41 145.04 712.41 147 710 C149.16 709.59 149.16 709.59 151.62 709.38 C152.44 709.3 153.26 709.23 154.1 709.15 C154.73 709.1 155.35 709.05 156 709 C156 708.34 156 707.68 156 707 C157.98 707 159.96 707 162 707 C162.33 706.34 162.66 705.68 163 705 C165.98 703.51 168.42 702.94 171.75 702.5 C172.82 702.34 173.89 702.17 175 702 C175.33 701.34 175.66 700.68 176 700 C178.32 699.59 180.66 699.26 183 699 C183 698.34 183 697.68 183 697 C184.98 697 186.96 697 189 697 C189.33 696.34 189.66 695.68 190 695 C193.06 694.38 193.06 694.38 196 694 C196 693.34 196 692.68 196 692 C197.08 691.85 197.08 691.85 198.19 691.69 C201.04 691.14 201.04 691.14 203.38 689.56 C206.48 687.72 209.51 686.89 213 686 C213 685.67 213 685.34 213 685 C214.14 684.81 214.14 684.81 215.31 684.62 C218.2 684.12 218.2 684.12 221 682 C221.99 681.67 222.98 681.34 224 681 C227.73 679.23 231.29 677.16 234.88 675.12 C237.32 673.83 239.82 673.06 242.44 672.19 C245.11 671.14 245.11 671.14 247 668.94 C249.33 666.68 250.83 666.35 254 666 C254 665.34 254 664.68 254 664 C254.84 663.81 254.84 663.81 255.69 663.62 C260.51 662.35 260.51 662.35 264.5 659.5 C266.45 657.55 268.43 656.98 271 656 C271.83 655.5 272.65 655.01 273.5 654.5 C276 653 276 653 278.69 651.94 C281.14 651.12 281.14 651.12 283 649 C283.85 648.67 284.69 648.34 285.56 648 C288.15 647.25 288.15 647.25 289 645 C290.94 643.94 290.94 643.94 293 643 C293.66 642.67 294.32 642.34 295 642 C295 641.34 295 640.68 295 640 C296.42 639.81 296.42 639.81 297.88 639.62 C301.09 639.28 301.09 639.28 303 637 C303.87 636.5 304.73 636.01 305.62 635.5 C306.41 635 307.19 634.51 308 634 C308 633.34 308 632.68 308 632 C309.08 631.88 309.08 631.88 310.19 631.75 C313.57 630.85 315.35 629.23 318 627 C318.99 626.67 319.98 626.34 321 626 C321.29 625.34 321.58 624.68 321.88 624 C322.25 623.34 322.62 622.68 323 622 C324.66 621.64 326.33 621.31 328 621 C329.71 619.72 331.37 618.38 333 617 C333.85 616.53 334.69 616.05 335.56 615.56 C338.15 614.1 338.15 614.1 339.94 611.5 C342.34 608.58 344.61 607.59 348 606 C348.54 605.46 349.07 604.93 349.62 604.38 C351 603 351 603 352.88 602.62 C356.07 601.68 357.71 599.35 360 597 C360.99 596.67 361.98 596.34 363 596 C365.27 593.85 367.42 591.65 369.5 589.31 C371 588 371 588 373.31 587.25 C376.14 585.93 377.03 584.95 378.94 582.56 C380.92 580.11 381.92 579.04 384.81 577.62 C389.05 575.46 391.74 572.34 394.95 568.86 C397 567 397 567 400 567 C400 566.01 400 565.02 400 564 C400.99 564 401.98 564 403 564 C404.54 562.6 404.54 562.6 405.94 560.75 C406.46 560.11 406.98 559.47 407.52 558.82 C408.01 558.22 408.5 557.62 409 557 C412.4 553.19 412.4 553.19 415.21 552.3 C419.13 550.47 421.61 547.67 424.56 544.56 C425.69 543.39 426.81 542.23 427.94 541.07 C428.73 540.25 428.73 540.25 429.53 539.43 C431 538 431 538 433.4 536.21 C433.93 535.81 434.46 535.41 435 535 C435 534.34 435 533.68 435 533 C436.65 532.67 438.3 532.34 440 532 C440 531.01 440 530.02 440 529 C440.99 529 441.98 529 443 529 C444.57 527.57 444.57 527.57 446.06 525.62 C451.08 519.64 456.46 513.8 462.6 508.94 C464.82 507.15 466.51 505.38 468.31 503.19 C471.36 499.62 474.63 496.57 478.2 493.54 C480.25 491.78 482.21 490.02 484 488 C484 487.34 484 486.68 484 486 C484.66 486 485.32 486 486 486 C487.51 484.51 487.51 484.51 489.07 482.56 C493.1 477.83 497.41 473.44 501.81 469.06 C502.96 467.91 502.96 467.91 504.12 466.74 C504.85 466.01 505.58 465.28 506.33 464.54 C506.99 463.88 507.65 463.22 508.32 462.55 C510 461 510 461 512 460 C512 459.01 512 458.02 512 457 C512.99 457 513.98 457 515 457 C516.61 455.21 516.61 455.21 518 453 C521.86 447.44 526.21 442.67 531.03 437.93 C534.84 434.18 538.26 430.43 541.38 426.07 C544.45 421.82 547.52 418.45 551.68 415.23 C552.12 414.82 552.55 414.42 553 414 C553 413.34 553 412.68 553 412 C553.66 412 554.32 412 555 412 C555.43 408.17 555.43 408.17 553.69 406.44 C552.85 405.73 552.85 405.73 552 405 C551.48 404.44 550.97 403.89 550.44 403.31 C549.08 401.78 549.08 401.78 547 402 C546.73 401.26 546.46 400.51 546.19 399.75 C545.05 397.11 543.91 395.14 542 393 C541.34 393 540.68 393 540 393 C539.73 392.42 539.46 391.85 539.19 391.25 C537.49 388.03 535.83 385.61 532.88 383.44 C531 382 531 382 530 379 C528.36 377.31 526.69 375.65 525 374 C524.11 372.97 523.24 371.93 522.38 370.88 C519.85 367.77 519.85 367.77 517 365 C516.34 365 515.68 365 515 365 C514.63 364.13 514.63 364.13 514.25 363.25 C512.81 360.66 511.16 359.03 509 357 C507.7 355.64 507.7 355.64 506.38 354.25 C504.3 351.77 504.3 351.77 502 352 C501.74 351.43 501.48 350.86 501.22 350.27 C499.89 347.79 498.35 345.87 496.5 343.75 C495.89 343.04 495.28 342.34 494.66 341.61 C493.15 339.77 493.15 339.77 491 340 C490.75 339.44 490.51 338.89 490.25 338.31 C488.16 334.44 485.34 330.88 482 328 C481.34 328 480.68 328 480 328 C480 327.34 480 326.68 480 326 C478.67 324.33 478.67 324.33 477 323 C476.34 323 475.68 323 475 323 C475 322.34 475 321.68 475 321 C473.67 319.33 473.67 319.33 472 318 C471.34 318 470.68 318 470 318 C470 317.34 470 316.68 470 316 C468.58 314.57 468.58 314.57 466.69 313.06 C462.42 309.46 458.54 305.58 454.68 301.56 C453.49 300.34 452.25 299.16 451 298 C450.34 298 449.68 298 449 298 C448.67 297.34 448.34 296.68 448 296 C447.05 294.93 446.07 293.89 445.06 292.88 C444.54 292.34 444.01 291.8 443.47 291.24 C442.07 289.79 442.07 289.79 440 290 C440 289.34 440 288.68 440 288 C438.55 286.53 438.55 286.53 436.62 285 C433.24 282.14 430.14 279.13 427.06 275.94 C423.29 272.11 419.51 269.14 414.96 266.3 C412.28 264.52 410.21 262.33 408 260 C404.5 256.4 404.5 256.4 400 255 C400 254.34 400 253.68 400 253 C396.52 249.36 396.52 249.36 392 248 C392 247.34 392 246.68 392 246 C388.78 243.68 388.78 243.68 385 243 C385 242.34 385 241.68 385 241 C382.96 239.09 382.96 239.09 380.38 237.12 C379.47 236.41 378.56 235.7 377.62 234.97 C375.59 233.44 373.57 232 371.44 230.62 C369 229 369 229 368 227 C366.02 226.27 364.02 225.6 362 225 C362 224.34 362 223.68 362 223 C359.89 221.32 359.89 221.32 357.25 219.62 C353.78 217.32 350.93 214.95 348 212 C347.11 211.57 346.23 211.13 345.31 210.69 C341.6 208.8 338.66 206.47 335.41 203.89 C328.7 198.63 321.56 194.01 314.35 189.48 C312.55 188.35 310.77 187.18 309 186 C308.01 186 307.02 186 306 186 C306 185.34 306 184.68 306 184 C303.75 182.48 303.75 182.48 301 181 C300.22 180.53 299.43 180.05 298.62 179.56 C297.17 178.7 295.71 177.84 294.23 177.03 C289.29 174.29 289.29 174.29 287.57 172.54 C285.71 170.71 283.8 169.66 281.5 168.44 C278.89 167.04 276.47 165.64 274 164 C273.01 164 272.02 164 271 164 C271 163.34 271 162.68 271 162 C269.51 161.38 269.51 161.38 267.99 160.75 C263.94 159.02 260.07 157.02 256.19 154.94 C255.19 154.41 255.19 154.41 254.17 153.87 C251.47 152.43 249.17 151.17 247 149 C245.68 149 244.36 149 243 149 C242.67 148.01 242.34 147.02 242 146 C238.68 144.29 236.82 144 233 144 C233 143.34 233 142.68 233 142 C232.33 141.78 231.67 141.56 230.98 141.34 C224.79 139.21 219.21 136.61 213.52 133.39 C207.59 130.07 207.59 130.07 201 129 C201 128.34 201 127.68 201 127 C200.26 126.88 199.51 126.75 198.75 126.62 C196 126 196 126 193.94 124.94 C191.76 123.71 191.76 123.71 188 124 C188 123.34 188 122.68 188 122 C186.61 121.63 186.61 121.63 185.19 121.25 C181.93 120.33 178.79 119.19 175.62 118 C170.79 116.21 166.06 114.99 161 114 C161 113.34 161 112.68 161 112 C160.15 111.8 160.15 111.8 159.29 111.6 C158.55 111.42 157.82 111.24 157.06 111.06 C156.33 110.89 155.6 110.71 154.85 110.54 C153 110 153 110 152 109 C150 108.96 148 108.96 146 109 C146 108.34 146 107.68 146 107 C144.76 106.88 143.52 106.75 142.25 106.62 C139.04 106.3 136.86 105.46 134 104 C132.57 103.62 131.13 103.29 129.69 103 C118.69 100.69 118.69 100.69 117 99 C113.51 98.34 110.02 97.76 106.52 97.19 C102.17 96.46 98.19 95.43 94 94 C91.71 93.67 89.45 93.51 87.15 93.34 C85 93 85 93 83.2 92 C80.02 90.55 76.81 90.57 73.38 90.44 C66.24 90.12 66.24 90.12 64 89 C62.54 88.87 61.07 88.8 59.61 88.75 C58.73 88.72 57.86 88.69 56.96 88.65 C55.12 88.59 53.29 88.54 51.45 88.48 C50.57 88.45 49.7 88.41 48.79 88.38 C47.99 88.35 47.2 88.33 46.37 88.3 C44 88 44 88 41.68 87 C38.83 85.94 36.77 85.75 33.74 85.74 C32.71 85.73 31.69 85.73 30.63 85.72 C29.54 85.73 28.44 85.73 27.31 85.73 C26.18 85.73 25.04 85.73 23.87 85.73 C21.48 85.73 19.08 85.73 16.68 85.74 C13.01 85.75 9.35 85.74 5.68 85.73 C3.35 85.73 1.02 85.73 -1.31 85.73 C-2.41 85.73 -3.5 85.73 -4.63 85.72 C-5.66 85.73 -6.68 85.73 -7.74 85.74 C-8.64 85.74 -9.53 85.74 -10.46 85.75 C-13.28 86.03 -15.41 86.88 -18 88 Z " fill="#000202" transform="translate(627,230)"/>
<path d="M0 0 C2.53 0.01 5.07 0 7.6 -0.01 C26 -0.01 44 0.88 61.88 5.56 C66.34 6.64 70.86 7.47 75.36 8.35 C76.31 8.61 77.26 8.86 78.24 9.13 C78.57 9.79 78.9 10.45 79.24 11.13 C81.02 11.68 81.02 11.68 83.17 12.01 C87.7 12.91 91.74 14.42 95.97 16.23 C98.19 17.17 98.19 17.17 100.39 17.67 C102.24 18.13 102.24 18.13 104.49 19.51 C107.25 21.26 107.25 21.26 110.61 22.32 C116.88 24.57 122.66 27.98 128.49 31.17 C130 32 131.51 32.81 133.03 33.62 C137.12 35.83 140.62 38.18 144.24 41.13 C146.53 42.54 148.87 43.83 151.24 45.13 C151.24 45.79 151.24 46.45 151.24 47.13 C151.85 47.27 152.47 47.42 153.11 47.57 C155.24 48.13 155.24 48.13 157.24 49.13 C157.24 49.79 157.24 50.45 157.24 51.13 C158.1 51.53 158.1 51.53 158.99 51.94 C162.01 53.54 164.55 55.59 167.24 57.69 C169.19 59.18 169.19 59.18 171.36 60.19 C173.24 61.13 173.24 61.13 175.24 63.13 C175.24 64.12 175.24 65.11 175.24 66.13 C175.85 66.21 176.47 66.3 177.11 66.38 C179.92 67.37 179.93 68.53 181.24 71.13 C182.88 72.17 184.55 73.17 186.24 74.13 C188.55 76.13 188.55 76.13 190.24 78.13 C190.24 79.12 190.24 80.11 190.24 81.13 C191.23 81.46 192.22 81.79 193.24 82.13 C194.67 83.62 194.67 83.62 196.11 85.44 C197.99 87.73 199.55 89.37 201.92 91.19 C204.73 93.54 205.78 95.8 207.24 99.13 C207.63 99.91 208.02 100.7 208.42 101.51 C208.69 102.04 208.96 102.58 209.24 103.13 C209.9 103.13 210.56 103.13 211.24 103.13 C213.24 106.13 213.24 106.13 213.24 109.13 C214.23 109.46 215.22 109.79 216.24 110.13 C217.67 112.1 217.67 112.1 219.11 114.63 C219.63 115.54 220.15 116.44 220.69 117.37 C222.48 120.57 224.26 123.78 226.02 126.99 C227.18 129.04 228.44 130.98 229.74 132.94 C233.81 139.36 236.97 146.62 238.24 154.13 C238.9 154.13 239.56 154.13 240.24 154.13 C241.03 156.34 241.82 158.55 242.61 160.76 C243.05 161.99 243.49 163.21 243.95 164.48 C247.1 173.41 247.1 173.41 247.74 176.82 C248.14 179.39 248.14 179.39 250.24 182.13 C250.8 184.36 250.8 184.36 251.24 186.88 C252.21 192.12 253.55 197.07 255.24 202.13 C255.5 204.83 255.68 207.53 255.86 210.24 C256.13 213.16 256.13 213.16 257.24 215.86 C258.58 220.27 258.66 224.48 258.8 229.07 C259.03 235.93 259.03 235.93 259.76 242.76 C260.3 246.57 260.38 250.3 260.36 254.13 C260.36 254.8 260.37 255.48 260.37 256.17 C260.36 260.59 259.86 264.77 259.24 269.13 C258.97 273.36 258.85 277.6 258.72 281.84 C258.52 286.67 257.91 290.55 256.24 295.13 C256.01 296.96 255.84 298.79 255.74 300.63 C255.42 304.77 254.75 308.24 253.24 312.13 C252.19 315.97 251.53 319.88 250.83 323.79 C250.24 326.13 250.24 326.13 248.24 329.13 C247.88 330.79 247.55 332.46 247.24 334.13 C246.65 335.73 246.02 337.31 245.36 338.88 C244 342.18 242.76 345.48 241.67 348.88 C240.5 352.5 238.97 355.73 237.24 359.13 C236.44 361.09 235.65 363.04 234.86 365.01 C233.05 369.41 231.04 373.37 228.42 377.35 C226.94 379.57 225.65 381.89 224.33 384.21 C220.95 390.14 217.59 395.85 213.24 401.13 C212.53 402.44 211.84 403.77 211.24 405.13 C210.58 405.13 209.92 405.13 209.24 405.13 C208.95 405.72 208.67 406.31 208.38 406.91 C204.73 413.97 199.15 419.41 193.46 424.83 C190.46 427.73 188.34 430.55 186.24 434.13 C184.61 435.51 184.61 435.51 182.8 436.69 C178.23 439.93 174.47 443.78 170.62 447.82 C166.68 451.89 162.71 455.31 157.24 457.13 C157.24 457.79 157.24 458.45 157.24 459.13 C154.24 461.13 154.24 461.13 151.24 461.13 C150.91 462.12 150.58 463.11 150.24 464.13 C148.6 465.41 148.6 465.41 146.55 466.63 C145.46 467.28 145.46 467.28 144.36 467.94 C141.7 469.43 138.96 470.77 136.24 472.13 C135.33 472.75 134.43 473.36 133.5 473.99 C130.16 476.18 126.74 478.01 123.17 479.76 C122.27 480.2 122.27 480.2 121.36 480.66 C117.29 482.68 113.17 484.4 108.92 486.01 C105.93 487.26 103.08 488.72 100.2 490.23 C98.22 491.14 96.36 491.63 94.24 492.13 C92.92 492.61 91.6 493.11 90.3 493.63 C87.29 494.79 84.4 495.5 81.24 496.13 C80.25 496.79 79.26 497.45 78.24 498.13 C76 498.69 76 498.69 73.49 499.13 C68.25 500.1 63.29 501.44 58.24 503.13 C55.37 503.43 52.51 503.64 49.63 503.85 C47.29 503.87 47.29 503.87 46.24 505.13 C43.32 505.32 40.41 505.46 37.49 505.57 C31.76 505.81 26.2 506.18 20.55 507.19 C10.17 508.95 -0.02 508.67 -10.33 506.64 C-15.92 505.81 -21.54 505.67 -27.18 505.47 C-28.01 505.44 -28.85 505.41 -29.71 505.38 C-30.85 505.34 -30.85 505.34 -32.01 505.3 C-33.76 505.13 -33.76 505.13 -34.76 504.13 C-36.49 503.95 -38.22 503.81 -39.95 503.69 C-44.19 503.35 -47.78 502.69 -51.76 501.13 C-55.6 500.08 -59.51 499.43 -63.42 498.73 C-65.76 498.13 -65.76 498.13 -68.76 496.13 C-70.43 495.78 -72.09 495.45 -73.76 495.13 C-75.34 494.54 -76.9 493.92 -78.45 493.26 C-82.81 491.45 -87.18 490.07 -91.73 488.84 C-93.76 488.13 -93.76 488.13 -95.76 486.13 C-98.73 484.46 -101.79 483.4 -105.01 482.32 C-110.11 480.5 -114.29 478.12 -118.76 475.13 C-121.82 473.35 -124.87 471.61 -127.99 469.95 C-132.75 467.39 -136.67 464.65 -140.76 461.13 C-142.98 459.85 -142.98 459.85 -144.76 459.13 C-144.76 458.47 -144.76 457.81 -144.76 457.13 C-145.35 456.86 -145.93 456.58 -146.53 456.3 C-152.33 453.27 -157.34 448.74 -162.22 444.43 C-163.94 442.93 -163.94 442.93 -166.76 441.13 C-166.76 440.14 -166.76 439.15 -166.76 438.13 C-167.75 438.13 -168.74 438.13 -169.76 438.13 C-169.76 437.47 -169.76 436.81 -169.76 436.13 C-170.36 435.9 -170.96 435.68 -171.58 435.44 C-174.33 433.79 -175.16 431.86 -176.76 429.13 C-177.75 428.8 -178.74 428.47 -179.76 428.13 C-179.76 427.47 -179.76 426.81 -179.76 426.13 C-180.42 426.13 -181.08 426.13 -181.76 426.13 C-181.76 425.14 -181.76 424.15 -181.76 423.13 C-182.75 422.8 -183.74 422.47 -184.76 422.13 C-186.62 420.28 -188.09 418.42 -189.64 416.32 C-191.42 413.91 -193.23 411.57 -195.14 409.26 C-196.76 407.13 -196.76 407.13 -196.76 405.13 C-197.42 405.13 -198.08 405.13 -198.76 405.13 C-199.18 404.22 -199.59 403.32 -200.01 402.38 C-201.68 399.28 -203.27 397.55 -205.76 395.13 C-206.79 393.48 -207.79 391.81 -208.76 390.13 C-209.27 389.28 -209.78 388.42 -210.31 387.54 C-216.34 377.31 -222.32 366.92 -226.97 355.97 C-227.68 354.32 -228.5 352.72 -229.33 351.13 C-231.19 347.23 -232.48 343.25 -233.76 339.13 C-234.05 338.23 -234.33 337.33 -234.62 336.4 C-236.76 329.42 -236.76 329.42 -236.76 327.13 C-237.42 326.8 -238.08 326.47 -238.76 326.13 C-239.33 324.31 -239.33 324.31 -239.76 322.01 C-240.35 319.09 -241 316.31 -241.83 313.44 C-242.71 310.32 -243.27 307.34 -243.76 304.13 C-244.08 302.44 -244.4 300.75 -244.73 299.06 C-249.53 272.64 -248.56 244.82 -246.76 218.13 C-246.43 218.13 -246.1 218.13 -245.76 218.13 C-245.72 217.06 -245.67 215.99 -245.62 214.88 C-245.54 213.49 -245.47 212.09 -245.39 210.69 C-245.34 209.63 -245.34 209.63 -245.3 208.55 C-245.19 206.74 -244.99 204.93 -244.76 203.13 C-244.1 202.8 -243.44 202.47 -242.76 202.13 C-242.48 200.14 -242.19 198.14 -242.01 196.14 C-241.76 194.13 -241.76 194.13 -240.76 191.13 C-240.6 189.78 -240.45 188.42 -240.33 187.07 C-239.76 183.13 -239.76 183.13 -237.76 181.13 C-236.89 177.78 -236.23 174.4 -235.55 171 C-235.29 170.05 -235.03 169.11 -234.76 168.13 C-234.1 167.8 -233.44 167.47 -232.76 167.13 C-232.11 164.6 -232.11 164.6 -231.76 162.13 C-231.1 162.13 -230.44 162.13 -229.76 162.13 C-229.85 161.1 -229.93 160.07 -230.01 159.01 C-229.72 154.48 -228.37 152.76 -225.76 149.13 C-224.98 146.4 -224.98 146.4 -224.76 144.13 C-224.1 144.13 -223.44 144.13 -222.76 144.13 C-222.43 143.47 -222.1 142.81 -221.76 142.13 C-222.42 141.8 -223.08 141.47 -223.76 141.13 C-223.1 141.13 -222.44 141.13 -221.76 141.13 C-221.43 140.14 -221.1 139.15 -220.76 138.13 C-220.43 137.14 -220.1 136.15 -219.76 135.13 C-219.1 135.13 -218.44 135.13 -217.76 135.13 C-217.27 132.16 -217.27 132.16 -216.76 129.13 C-216.1 129.13 -215.44 129.13 -214.76 129.13 C-214.62 128.51 -214.48 127.89 -214.33 127.26 C-213.26 123.23 -210.83 119.72 -208.76 116.13 C-208.1 116.13 -207.44 116.13 -206.76 116.13 C-206.66 115.37 -206.56 114.6 -206.45 113.82 C-205.68 110.81 -204.94 110.22 -202.76 108.13 C-202.27 107.14 -201.77 106.15 -201.26 105.13 C-199.96 102.51 -199.04 100.91 -196.76 99.13 C-196.1 99.13 -195.44 99.13 -194.76 99.13 C-194.27 97.65 -194.27 97.65 -193.76 96.13 C-192.44 93.1 -190.94 91.08 -188.58 88.78 C-187.96 88.18 -187.34 87.57 -186.71 86.95 C-186.07 86.33 -185.43 85.71 -184.76 85.07 C-183.49 83.83 -182.22 82.59 -180.95 81.35 C-180.39 80.8 -179.83 80.25 -179.24 79.69 C-177.55 77.99 -177.55 77.99 -175.76 75.13 C-174.13 73.34 -172.46 71.9 -170.54 70.42 C-166.79 67.33 -163.5 63.87 -160.14 60.38 C-156.48 56.64 -153.66 54.76 -148.76 53.13 C-148.76 52.47 -148.76 51.81 -148.76 51.13 C-145.28 47.97 -141.83 45.5 -137.76 43.13 C-136.77 42.14 -136.77 42.14 -135.76 41.13 C-134.44 41.13 -133.12 41.13 -131.76 41.13 C-131.76 40.47 -131.76 39.81 -131.76 39.13 C-123.06 34.13 -123.06 34.13 -118.76 33.13 C-118.76 32.47 -118.76 31.81 -118.76 31.13 C-117.65 30.73 -117.65 30.73 -116.51 30.32 C-113.75 29.26 -113.75 29.26 -111.64 27.51 C-109.76 26.13 -109.76 26.13 -106.76 26.13 C-106.43 25.47 -106.1 24.81 -105.76 24.13 C-105.76 24.79 -105.76 25.45 -105.76 26.13 C-104.77 25.64 -104.77 25.64 -103.76 25.13 C-104.09 24.47 -104.42 23.81 -104.76 23.13 C-103.19 23.01 -103.19 23.01 -101.58 22.88 C-97.73 22.44 -97.73 22.44 -95.26 20.07 C-91.99 17.53 -89.81 17.81 -85.76 18.13 C-85.76 17.47 -85.76 16.81 -85.76 16.13 C-83.78 15.8 -81.8 15.47 -79.76 15.13 C-79.76 14.47 -79.76 13.81 -79.76 13.13 C-78.85 12.94 -77.93 12.74 -76.99 12.54 C-75.8 12.28 -74.61 12.02 -73.39 11.76 C-72.21 11.5 -71.02 11.24 -69.8 10.98 C-66.68 10.38 -66.68 10.38 -64.76 8.13 C-62.42 7.75 -62.42 7.75 -59.7 7.57 C-56.43 7.59 -56.43 7.59 -53.76 6.13 C-51.71 5.85 -49.65 5.68 -47.58 5.51 C-46.98 5.38 -46.38 5.26 -45.76 5.13 C-45.43 4.47 -45.1 3.81 -44.76 3.13 C-42.21 2.82 -39.76 2.62 -37.2 2.51 C-36.49 2.47 -35.78 2.43 -35.05 2.39 C-33.29 2.29 -31.53 2.21 -29.76 2.13 C-29.76 1.8 -29.76 1.47 -29.76 1.13 C-19.83 0.15 -9.98 -0.02 0 0 Z M-15.76 87.13 C-18.86 87.46 -21.93 87.63 -25.03 87.79 C-27.76 88.13 -29.38 88.84 -31.76 90.13 C-32.8 90.25 -33.83 90.38 -34.89 90.51 C-39.08 91.18 -42.46 92.51 -46.33 94.19 C-48.8 95.15 -51.16 95.69 -53.76 96.13 C-53.76 96.79 -53.76 97.45 -53.76 98.13 C-54.45 98.23 -55.13 98.34 -55.83 98.44 C-66.39 100.91 -76.82 107.12 -85.76 113.13 C-86.66 113.72 -87.55 114.32 -88.48 114.93 C-92.2 117.42 -92.2 117.42 -95.76 120.13 C-95.76 120.79 -95.76 121.45 -95.76 122.13 C-96.64 122.36 -97.52 122.59 -98.43 122.83 C-102.24 124.32 -104.2 126.05 -107.09 128.93 C-107.57 129.4 -108.04 129.87 -108.53 130.36 C-109.53 131.35 -110.52 132.35 -111.51 133.35 C-113.01 134.88 -114.53 136.38 -116.06 137.88 C-117.03 138.85 -118 139.83 -118.97 140.8 C-119.84 141.68 -120.71 142.56 -121.61 143.46 C-123.9 146.3 -124.85 148.63 -125.76 152.13 C-126.42 152.13 -127.08 152.13 -127.76 152.13 C-135.32 160.95 -141.42 171.38 -145.76 182.13 C-146.42 183.47 -147.09 184.8 -147.76 186.13 C-151.01 192.58 -153.34 198.88 -155.12 205.87 C-155.76 208.13 -155.76 208.13 -156.76 209.13 C-157.13 210.79 -157.46 212.46 -157.76 214.13 C-158.65 219.02 -158.65 219.02 -159.76 220.13 C-159.97 222.11 -160.13 224.09 -160.26 226.07 C-160.65 231.91 -160.65 231.91 -161.76 234.13 C-161.86 237.1 -161.9 240.04 -161.9 243.01 C-161.9 243.89 -161.9 244.77 -161.9 245.67 C-161.9 247.54 -161.9 249.4 -161.89 251.26 C-161.89 254.12 -161.89 256.98 -161.9 259.83 C-161.9 261.64 -161.9 263.45 -161.9 265.26 C-161.9 266.11 -161.9 266.97 -161.9 267.86 C-162.01 272.13 -162.01 272.13 -160.76 276.13 C-160.49 279.15 -160.32 282.16 -160.14 285.19 C-159.78 288.02 -159.11 289.66 -157.76 292.13 C-157.64 293.16 -157.52 294.19 -157.39 295.26 C-156.71 299.44 -155.38 302.83 -153.7 306.7 C-152.76 309.13 -152.76 309.13 -152.37 311.51 C-151.56 315.01 -149.89 317.9 -148.14 321.01 C-144.85 326.99 -141.86 333.04 -139.11 339.29 C-137.69 342.46 -136.37 344.83 -133.76 347.13 C-132.4 349.11 -131.07 351.11 -129.76 353.13 C-129.1 354.12 -128.44 355.11 -127.76 356.13 C-127.1 356.13 -126.44 356.13 -125.76 356.13 C-125.46 356.91 -125.15 357.7 -124.83 358.51 C-123.84 361.05 -123.84 361.05 -122.76 363.13 C-121.77 363.13 -120.78 363.13 -119.76 363.13 C-119.76 364.12 -119.76 365.11 -119.76 366.13 C-118.15 367.52 -116.47 368.85 -114.76 370.13 C-110.97 373.71 -110.97 373.71 -109.76 376.13 C-108.77 376.13 -107.78 376.13 -106.76 376.13 C-106.27 377.62 -106.27 377.62 -105.76 379.13 C-105.43 379.79 -105.1 380.45 -104.76 381.13 C-103.77 381.13 -102.78 381.13 -101.76 381.13 C-101.27 382.62 -101.27 382.62 -100.76 384.13 C-98.26 385.35 -98.26 385.35 -95.76 386.13 C-95.76 386.79 -95.76 387.45 -95.76 388.13 C-92.73 390.15 -89.63 392.03 -86.51 393.91 C-84.76 395.13 -84.76 395.13 -83.76 397.13 C-81.88 398.19 -79.96 399.18 -78.01 400.13 C-76.44 400.9 -76.44 400.9 -74.84 401.69 C-72.18 402.94 -69.5 404.04 -66.76 405.13 C-65.44 405.78 -64.13 406.45 -62.83 407.13 C-59.54 408.8 -56.3 410.06 -52.76 411.13 C-46.76 413.13 -46.76 413.13 -44.7 413.85 C-39.44 415.67 -34.22 417.03 -28.76 418.13 C-27.91 418.31 -27.06 418.48 -26.19 418.66 C-23.71 419.16 -21.24 419.66 -18.76 420.13 C-17.92 420.3 -17.07 420.47 -16.2 420.65 C-11.88 421.25 -7.65 421.29 -3.28 421.3 C-2.38 421.3 -1.49 421.3 -0.56 421.31 C1.32 421.31 3.21 421.32 5.1 421.32 C7.99 421.32 10.88 421.34 13.78 421.35 C15.61 421.36 17.45 421.36 19.28 421.36 C20.15 421.37 21.02 421.38 21.91 421.38 C26.55 421.59 26.55 421.59 30.24 419.13 C32.6 418.83 34.98 418.64 37.36 418.51 C39.28 418.39 39.28 418.39 41.24 418.28 C42.23 418.23 43.22 418.18 44.24 418.13 C44.24 417.8 44.24 417.47 44.24 417.13 C47.54 416.47 50.84 415.81 54.24 415.13 C54.24 414.8 54.24 414.47 54.24 414.13 C56.55 413.8 58.86 413.47 61.24 413.13 C61.24 412.47 61.24 411.81 61.24 411.13 C61.96 411.01 62.68 410.88 63.42 410.76 C66.21 410.14 68.61 409.25 71.24 408.13 C73.89 407.06 76.52 406.04 79.24 405.13 C79.9 404.47 80.56 403.81 81.24 403.13 C82.23 402.8 83.22 402.47 84.24 402.13 C87.73 400.88 90.3 399.38 93.24 397.13 C94.23 396.8 95.22 396.47 96.24 396.13 C96.57 395.47 96.9 394.81 97.24 394.13 C98.56 393.46 99.9 392.79 101.24 392.13 C103.07 390.64 104.8 389.06 106.55 387.47 C108.24 386.13 108.24 386.13 111.24 385.13 C112.39 384.05 113.53 382.95 114.63 381.81 C116.64 379.71 118.71 377.67 120.77 375.63 C122.47 373.94 124.17 372.25 125.86 370.57 C126.72 369.72 127.58 368.87 128.46 367.99 C129.29 367.17 130.11 366.35 130.96 365.5 C131.71 364.76 132.46 364.02 133.23 363.25 C135.8 360.53 137.84 357.83 139.67 354.57 C141.24 352.13 141.24 352.13 143.3 350.63 C145.74 348.74 146.17 346.98 147.24 344.13 C148.21 343.11 149.21 342.11 150.24 341.13 C152.21 337.64 153.88 333.89 154.67 329.94 C155.24 328.13 155.24 328.13 158.24 326.13 C158.91 323.69 158.91 323.69 159.24 321.13 C160.24 318.13 160.24 318.13 161.8 315.69 C163.56 313.04 163.56 313.04 163.24 309.13 C163.9 309.13 164.56 309.13 165.24 309.13 C165.36 308.06 165.48 306.99 165.61 305.88 C166.24 302.13 166.24 302.13 167.24 300.19 C168.3 297.99 168.53 296.36 168.8 293.94 C169.24 290.13 169.24 290.13 170.24 289.13 C170.52 286.39 170.68 283.64 170.86 280.89 C171.24 278.13 171.24 278.13 172.24 276.22 C173.34 273.91 173.49 272.43 173.49 269.88 C173.5 268.64 173.5 268.64 173.51 267.38 C173.51 266.49 173.51 265.61 173.5 264.69 C173.5 263.78 173.51 262.86 173.51 261.91 C173.51 259.98 173.5 258.04 173.5 256.1 C173.49 253.14 173.5 250.18 173.51 247.22 C173.51 245.33 173.51 243.45 173.5 241.57 C173.51 240.24 173.51 240.24 173.51 238.88 C173.51 238.06 173.5 237.23 173.49 236.38 C173.49 235.65 173.49 234.93 173.49 234.18 C173.2 231.81 172.35 230.22 171.24 228.13 C170.93 225.72 170.93 225.72 170.8 223.07 C170.19 215.13 168.59 207.87 164.24 201.13 C164.57 200.47 164.9 199.81 165.24 199.13 C164.26 197.12 163.25 195.12 162.24 193.13 C161.66 191.49 161.1 189.84 160.55 188.19 C158.33 181.92 155.24 176.23 152.04 170.42 C150.72 168.01 149.44 165.6 148.24 163.13 C147.58 163.13 146.92 163.13 146.24 163.13 C145.86 161.71 145.86 161.71 145.49 160.26 C144.61 157.04 144.61 157.04 142.29 156.19 C139.7 154.86 139.28 153.71 138.17 151.07 C137.33 148.93 137.33 148.93 136.24 147.13 C135.25 146.8 134.26 146.47 133.24 146.13 C133.24 145.47 133.24 144.81 133.24 144.13 C132.58 143.47 131.92 142.81 131.24 142.13 C130.74 141.43 130.25 140.73 129.74 140.01 C129.24 139.39 128.75 138.77 128.24 138.13 C127.58 138.13 126.92 138.13 126.24 138.13 C125.8 137.17 125.8 137.17 125.36 136.19 C124.41 133.98 124.41 133.98 122.24 133.13 C121.62 132.35 121 131.56 120.36 130.76 C116.83 126.39 112.14 123.74 107.45 120.73 C105.24 119.13 105.24 119.13 103.26 117.13 C101.1 115 98.99 113.63 96.36 112.13 C93.51 110.47 90.77 108.81 88.05 106.94 C84.89 104.91 81.7 103.57 78.24 102.13 C76.19 101.07 74.15 100 72.13 98.9 C69.96 97.88 69.96 97.88 66.24 98.13 C66.24 97.47 66.24 96.81 66.24 96.13 C65.24 95.85 64.24 95.58 63.21 95.29 C61.9 94.92 60.6 94.56 59.3 94.19 C58.64 94.01 57.98 93.83 57.3 93.64 C52.35 92.24 52.35 92.24 51.24 91.13 C49.58 90.76 47.91 90.43 46.24 90.13 C41.35 89.24 41.35 89.24 40.24 88.13 C37.33 87.84 34.42 87.68 31.51 87.51 C28.24 87.13 28.24 87.13 25.24 86.11 C19.31 84.31 12.93 84.84 6.8 84.88 C4.87 84.87 4.87 84.87 2.91 84.86 C-3.72 84.87 -9.42 85.28 -15.76 87.13 Z " fill="#000202" transform="translate(633.764404296875,385.86962890625)"/>
<path d="M0 0 C15.51 0 31.02 0 47 0 C47 0.33 47 0.66 47 1 C31.49 1 15.98 1 0 1 C0 0.67 0 0.34 0 0 Z " fill="#FDFDFD" transform="translate(619,317)"/>
<path d="M0 0 C9.57 0 19.14 0 29 0 C29 0.33 29 0.66 29 1 C19.43 1 9.86 1 0 1 C0 0.67 0 0.34 0 0 Z " fill="#FDFDFD" transform="translate(626,472)"/>
<path d="M0 0 C9.24 0 18.48 0 28 0 C28 0.33 28 0.66 28 1 C18.76 1 9.52 1 0 1 C0 0.67 0 0.34 0 0 Z " fill="#FDFDFD" transform="translate(598,1047)"/>
<path d="M0 0 C7.59 0 15.18 0 23 0 C23 0.33 23 0.66 23 1 C15.41 1 7.82 1 0 1 C0 0.67 0 0.34 0 0 Z " fill="#FDFDFD" transform="translate(659,1047)"/>
<path d="M0 0 C3.96 0 7.92 0 12 0 C12 0.33 12 0.66 12 1 C8.04 1 4.08 1 0 1 C0 0.67 0 0.34 0 0 Z " fill="#FDFDFD" transform="translate(608,892)"/>
<path d="M0 0 C3.63 0 7.26 0 11 0 C11 0.33 11 0.66 11 1 C7.37 1 3.74 1 0 1 C0 0.67 0 0.34 0 0 Z " fill="#FDFDFD" transform="translate(661,892)"/>
<path d="M0 0 C2.64 0 5.28 0 8 0 C8 0.33 8 0.66 8 1 C5.36 1 2.72 1 0 1 C0 0.67 0 0.34 0 0 Z " fill="#FDFDFD" transform="translate(558,1042)"/>
<path d="M0 0 C2.64 0 5.28 0 8 0 C8 0.33 8 0.66 8 1 C5.36 1 2.72 1 0 1 C0 0.67 0 0.34 0 0 Z " fill="#FDFDFD" transform="translate(700,322)"/>
<path d="M0 0 C2.31 0 4.62 0 7 0 C7 0.33 7 0.66 7 1 C4.69 1 2.38 1 0 1 C0 0.67 0 0.34 0 0 Z " fill="#FDFDFD" transform="translate(694,1045)"/>
<path d="M0 0 C2.31 0 4.62 0 7 0 C7 0.33 7 0.66 7 1 C4.69 1 2.38 1 0 1 C0 0.67 0 0.34 0 0 Z " fill="#FDFDFD" transform="translate(579,1045)"/>
<path d="M0 0 C0.66 0.33 1.32 0.66 2 1 C1.01 1.66 0.02 2.32 -1 3 C-0.67 2.01 -0.34 1.02 0 0 Z " fill="#000202" transform="translate(1164,658)"/>
<path d="M0 0 C1.65 0 3.3 0 5 0 C5 0.33 5 0.66 5 1 C3.35 1 1.7 1 0 1 C0 0.67 0 0.34 0 0 Z " fill="#FDFDFD" transform="translate(686,320)"/>
<path d="M0 0 C1.65 0 3.3 0 5 0 C5 0.33 5 0.66 5 1 C3.35 1 1.7 1 0 1 C0 0.67 0 0.34 0 0 Z " fill="#FDFDFD" transform="translate(589,320)"/>
<path d="M0 0 C4 1 4 1 4 1 Z " fill="#FDFDFD" transform="translate(576,322)"/>
<path d="M0 0 C4 1 4 1 4 1 Z " fill="#000202" transform="translate(636,229)"/>
<path d="M0 0 C3 1 3 1 3 1 Z " fill="#FDFDFD" transform="translate(719,1042)"/>
<path d="M0 0 C3 1 3 1 3 1 Z " fill="#FDFDFD" transform="translate(731,1040)"/>
<path d="M0 0 C3 1 3 1 3 1 Z " fill="#FDFDFD" transform="translate(546,1040)"/>
<path d="M0 0 C3 1 3 1 3 1 Z " fill="#FDFDFD" transform="translate(681,890)"/>
<path d="M0 0 C3 1 3 1 3 1 Z " fill="#FDFDFD" transform="translate(596,890)"/>
<path d="" fill="#FDFDFD" transform="translate(0,0)"/>
<path d="" fill="#FDFDFD" transform="translate(0,0)"/>
<path d="" fill="#FDFDFD" transform="translate(0,0)"/>
<path d="" fill="#FDFDFD" transform="translate(0,0)"/>
<path d="M0 0 C3 1 3 1 3 1 Z " fill="#FDFDFD" transform="translate(671,475)"/>
<path d="M0 0 C3 1 3 1 3 1 Z " fill="#FDFDFD" transform="translate(606,475)"/>
<path d="M0 0 C2 1 2 1 2 1 Z " fill="#FDFDFD" transform="translate(794,1025)"/>
<path d="M0 0 C2 1 2 1 2 1 Z " fill="#FDFDFD" transform="translate(484,1025)"/>
<path d="M0 0 C2 1 2 1 2 1 Z " fill="#FDFDFD" transform="translate(704,885)"/>
<path d="M0 0 C2 1 2 1 2 1 Z " fill="#FDFDFD" transform="translate(574,885)"/>
<path d="M0 0 C2 1 2 1 2 1 Z " fill="#FDFDFD" transform="translate(721,880)"/>
<path d="M0 0 C2 1 2 1 2 1 Z " fill="#FDFDFD" transform="translate(557,880)"/>
<path d="" fill="#FDFDFD" transform="translate(0,0)"/>
<path d="" fill="#FDFDFD" transform="translate(0,0)"/>
<path d="" fill="#FDFDFD" transform="translate(0,0)"/>
<path d="" fill="#FDFDFD" transform="translate(0,0)"/>
<path d="M0 0 C2 1 2 1 2 1 Z " fill="#FDFDFD" transform="translate(486,345)"/>
<path d="M0 0 C2 1 2 1 2 1 Z " fill="#FDFDFD" transform="translate(742,330)"/>
<path d="M0 0 C2 1 2 1 2 1 Z " fill="#FDFDFD" transform="translate(536,330)"/>
<path d="M0 0 C2 1 2 1 2 1 Z " fill="#FDFDFD" transform="translate(719,325)"/>
<path d="M0 0 C2 1 2 1 2 1 Z " fill="#FDFDFD" transform="translate(559,325)"/>
<path d="" fill="#FDFDFD" transform="translate(0,0)"/>
<path d="" fill="#FDFDFD" transform="translate(0,0)"/>
<path d="" fill="#FDFDFD" transform="translate(0,0)"/>
<path d="" fill="#FDFDFD" transform="translate(0,0)"/>
<path d="" fill="#FDFDFD" transform="translate(0,0)"/>
<path d="" fill="#FDFDFD" transform="translate(0,0)"/>
<path d="" fill="#FDFDFD" transform="translate(0,0)"/>
<path d="" fill="#FDFDFD" transform="translate(0,0)"/>
<path d="" fill="#FDFDFD" transform="translate(0,0)"/>
<path d="" fill="#FDFDFD" transform="translate(0,0)"/>
<path d="" fill="#FDFDFD" transform="translate(0,0)"/>
<path d="" fill="#FDFDFD" transform="translate(0,0)"/>
<path d="" fill="#FDFDFD" transform="translate(0,0)"/>
<path d="" fill="#FDFDFD" transform="translate(0,0)"/>
<path d="" fill="#FDFDFD" transform="translate(0,0)"/>
<path d="" fill="#FDFDFD" transform="translate(0,0)"/>
<path d="" fill="#FDFDFD" transform="translate(0,0)"/>
<path d="" fill="#FDFDFD" transform="translate(0,0)"/>
<path d="" fill="#FDFDFD" transform="translate(0,0)"/>
<path d="" fill="#FDFDFD" transform="translate(0,0)"/>
<path d="" fill="#FDFDFD" transform="translate(0,0)"/>
<path d="" fill="#FDFDFD" transform="translate(0,0)"/>
<path d="" fill="#FDFDFD" transform="translate(0,0)"/>
<path d="" fill="#FDFDFD" transform="translate(0,0)"/>
<path d="" fill="#FDFDFD" transform="translate(0,0)"/>
<path d="" fill="#FDFDFD" transform="translate(0,0)"/>
<path d="" fill="#FDFDFD" transform="translate(0,0)"/>
<path d="" fill="#FDFDFD" transform="translate(0,0)"/>
<path d="" fill="#FDFDFD" transform="translate(0,0)"/>
<path d="" fill="#000202" transform="translate(0,0)"/>
<path d="" fill="#FDFDFD" transform="translate(0,0)"/>
<path d="" fill="#000202" transform="translate(0,0)"/>
<path d="" fill="#FDFDFD" transform="translate(0,0)"/>
<path d="" fill="#000202" transform="translate(0,0)"/>
<path d="" fill="#FDFDFD" transform="translate(0,0)"/>
<path d="" fill="#FDFDFD" transform="translate(0,0)"/>
<path d="" fill="#000202" transform="translate(0,0)"/>
<path d="" fill="#000202" transform="translate(0,0)"/>
<path d="" fill="#FDFDFD" transform="translate(0,0)"/>
<path d="" fill="#000202" transform="translate(0,0)"/>
<path d="" fill="#000202" transform="translate(0,0)"/>
<path d="" fill="#000202" transform="translate(0,0)"/>
<path d="" fill="#000202" transform="translate(0,0)"/>
<path d="" fill="#000202" transform="translate(0,0)"/>
<path d="" fill="#000202" transform="translate(0,0)"/>
<path d="" fill="#000202" transform="translate(0,0)"/>
<path d="" fill="#FDFDFD" transform="translate(0,0)"/>
<path d="" fill="#FDFDFD" transform="translate(0,0)"/>
<path d="" fill="#000202" transform="translate(0,0)"/>
<path d="" fill="#FDFDFD" transform="translate(0,0)"/>
<path d="" fill="#FDFDFD" transform="translate(0,0)"/>
<path d="" fill="#FDFDFD" transform="translate(0,0)"/>
<path d="" fill="#FDFDFD" transform="translate(0,0)"/>
<path d="" fill="#FDFDFD" transform="translate(0,0)"/>
<path d="" fill="#FDFDFD" transform="translate(0,0)"/>
<path d="" fill="#FDFDFD" transform="translate(0,0)"/>
<path d="" fill="#FDFDFD" transform="translate(0,0)"/>
<path d="" fill="#000202" transform="translate(0,0)"/>
<path d="" fill="#000202" transform="translate(0,0)"/>
<path d="" fill="#FDFDFD" transform="translate(0,0)"/>
<path d="" fill="#FDFDFD" transform="translate(0,0)"/>
<path d="" fill="#000202" transform="translate(0,0)"/>
<path d="" fill="#000202" transform="translate(0,0)"/>
<path d="" fill="#FDFDFD" transform="translate(0,0)"/>
<path d="" fill="#000202" transform="translate(0,0)"/>
<path d="" fill="#000202" transform="translate(0,0)"/>
<path d="" fill="#000202" transform="translate(0,0)"/>
<path d="" fill="#000202" transform="translate(0,0)"/>
<path d="" fill="#000202" transform="translate(0,0)"/>
<path d="" fill="#000202" transform="translate(0,0)"/>
<path d="" fill="#000202" transform="translate(0,0)"/>
<path d="" fill="#000202" transform="translate(0,0)"/>
<path d="" fill="#000202" transform="translate(0,0)"/>
<path d="" fill="#FDFDFD" transform="translate(0,0)"/>
<path d="" fill="#000202" transform="translate(0,0)"/>
<path d="" fill="#000202" transform="translate(0,0)"/>
<path d="" fill="#000202" transform="translate(0,0)"/>
<path d="" fill="#000202" transform="translate(0,0)"/>
<path d="" fill="#000202" transform="translate(0,0)"/>
<path d="" fill="#000202" transform="translate(0,0)"/>
<path d="" fill="#000202" transform="translate(0,0)"/>
<path d="" fill="#FDFDFD" transform="translate(0,0)"/>
<path d="" fill="#000202" transform="translate(0,0)"/>
<path d="" fill="#000202" transform="translate(0,0)"/>
<path d="" fill="#FDFDFD" transform="translate(0,0)"/>
<path d="" fill="#FDFDFD" transform="translate(0,0)"/>
<path d="" fill="#000202" transform="translate(0,0)"/>
<path d="" fill="#000202" transform="translate(0,0)"/>
<path d="" fill="#FDFDFD" transform="translate(0,0)"/>
<path d="" fill="#FDFDFD" transform="translate(0,0)"/>
<path d="" fill="#000202" transform="translate(0,0)"/>
<path d="" fill="#000202" transform="translate(0,0)"/>
<path d="" fill="#000202" transform="translate(0,0)"/>
<path d="" fill="#000202" transform="translate(0,0)"/>
<path d="" fill="#000202" transform="translate(0,0)"/>
<path d="" fill="#000202" transform="translate(0,0)"/>
<path d="" fill="#000202" transform="translate(0,0)"/>
<path d="" fill="#000202" transform="translate(0,0)"/>
<path d="" fill="#000202" transform="translate(0,0)"/>
<path d="" fill="#000202" transform="translate(0,0)"/>
<path d="" fill="#000202" transform="translate(0,0)"/>
<path d="" fill="#000202" transform="translate(0,0)"/>
<path d="" fill="#FDFDFD" transform="translate(0,0)"/>
<path d="" fill="#000202" transform="translate(0,0)"/>
<path d="" fill="#000202" transform="translate(0,0)"/>
<path d="" fill="#FDFDFD" transform="translate(0,0)"/>
<path d="" fill="#000202" transform="translate(0,0)"/>
<path d="" fill="#000202" transform="translate(0,0)"/>
<path d="" fill="#000202" transform="translate(0,0)"/>
<path d="" fill="#000202" transform="translate(0,0)"/>
<path d="" fill="#000202" transform="translate(0,0)"/>
<path d="" fill="#000202" transform="translate(0,0)"/>
<path d="" fill="#000202" transform="translate(0,0)"/>
<path d="" fill="#000202" transform="translate(0,0)"/>
<path d="" fill="#FDFDFD" transform="translate(0,0)"/>
<path d="" fill="#000202" transform="translate(0,0)"/>
<path d="" fill="#000202" transform="translate(0,0)"/>
<path d="" fill="#000202" transform="translate(0,0)"/>
<path d="" fill="#000202" transform="translate(0,0)"/>
<path d="" fill="#000202" transform="translate(0,0)"/>
<path d="" fill="#FDFDFD" transform="translate(0,0)"/>
<path d="" fill="#FDFDFD" transform="translate(0,0)"/>
<path d="" fill="#000202" transform="translate(0,0)"/>
<path d="" fill="#000202" transform="translate(0,0)"/>
<path d="" fill="#000202" transform="translate(0,0)"/>
<path d="" fill="#000202" transform="translate(0,0)"/>
<path d="" fill="#000202" transform="translate(0,0)"/>
<path d="" fill="#000202" transform="translate(0,0)"/>
<path d="" fill="#000202" transform="translate(0,0)"/>
<path d="" fill="#000202" transform="translate(0,0)"/>
<path d="" fill="#000202" transform="translate(0,0)"/>
<path d="" fill="#FDFDFD" transform="translate(0,0)"/>
<path d="" fill="#000202" transform="translate(0,0)"/>
<path d="" fill="#000202" transform="translate(0,0)"/>
<path d="" fill="#000202" transform="translate(0,0)"/>
<path d="" fill="#000202" transform="translate(0,0)"/>
<path d="" fill="#FDFDFD" transform="translate(0,0)"/>
<path d="" fill="#000202" transform="translate(0,0)"/>
<path d="" fill="#000202" transform="translate(0,0)"/>
<path d="" fill="#000202" transform="translate(0,0)"/>
<path d="" fill="#000202" transform="translate(0,0)"/>
<path d="" fill="#000202" transform="translate(0,0)"/>
<path d="" fill="#000202" transform="translate(0,0)"/>
<path d="" fill="#000202" transform="translate(0,0)"/>
<path d="" fill="#000202" transform="translate(0,0)"/>
<path d="" fill="#000202" transform="translate(0,0)"/>
<path d="" fill="#FDFDFD" transform="translate(0,0)"/>
<path d="" fill="#FDFDFD" transform="translate(0,0)"/>
<path d="" fill="#FDFDFD" transform="translate(0,0)"/>
<path d="" fill="#FDFDFD" transform="translate(0,0)"/>
<path d="" fill="#000202" transform="translate(0,0)"/>
<path d="" fill="#FDFDFD" transform="translate(0,0)"/>
<path d="" fill="#FDFDFD" transform="translate(0,0)"/>
<path d="" fill="#000202" transform="translate(0,0)"/>
<path d="" fill="#000202" transform="translate(0,0)"/>
<path d="" fill="#FDFDFD" transform="translate(0,0)"/>
<path d="" fill="#FDFDFD" transform="translate(0,0)"/>
<path d="" fill="#FDFDFD" transform="translate(0,0)"/>
<path d="" fill="#FDFDFD" transform="translate(0,0)"/>
<path d="" fill="#FDFDFD" transform="translate(0,0)"/>
<path d="" fill="#FDFDFD" transform="translate(0,0)"/>
<path d="" fill="#FDFDFD" transform="translate(0,0)"/>
<path d="" fill="#FDFDFD" transform="translate(0,0)"/>
<path d="" fill="#000202" transform="translate(0,0)"/>
<path d="" fill="#FDFDFD" transform="translate(0,0)"/>
<path d="" fill="#FDFDFD" transform="translate(0,0)"/>
<path d="" fill="#FDFDFD" transform="translate(0,0)"/>
<path d="" fill="#000202" transform="translate(0,0)"/>
<path d="" fill="#FDFDFD" transform="translate(0,0)"/>
<path d="" fill="#FDFDFD" transform="translate(0,0)"/>
<path d="" fill="#000202" transform="translate(0,0)"/>
<path d="" fill="#FDFDFD" transform="translate(0,0)"/>
<path d="" fill="#000202" transform="translate(0,0)"/>
<path d="" fill="#000202" transform="translate(0,0)"/>
<path d="" fill="#000202" transform="translate(0,0)"/>
<path d="" fill="#000202" transform="translate(0,0)"/>
<path d="" fill="#000202" transform="translate(0,0)"/>
<path d="" fill="#000202" transform="translate(0,0)"/>
<path d="" fill="#000202" transform="translate(0,0)"/>
<path d="" fill="#000202" transform="translate(0,0)"/>
<path d="" fill="#000202" transform="translate(0,0)"/>
</svg>
