<?xml version="1.0" encoding="UTF-8"?>
<!-- Generator: visioncortex VTracer 0.6.3 -->
<svg version="1.1" xmlns="http://www.w3.org/2000/svg" width="1280" height="1280">
<path d="M0 0 C2.79 -0.04 5.56 0 8.34 0.08 C9.64 0.1 10.94 0.12 12.28 0.14 C21.58 1.52 30.69 8.85 36.34 16.08 C36.34 16.74 36.34 17.4 36.34 18.08 C37 18.08 37.66 18.08 38.34 18.08 C43.34 23.56 43.34 23.56 43.34 26.08 C44.82 26.58 44.82 26.58 46.34 27.08 C46.34 27.74 46.34 28.4 46.34 29.08 C47 29.08 47.66 29.08 48.34 29.08 C49.75 30.48 49.75 30.48 51.4 32.46 C54.24 35.79 57.1 39.08 60.03 42.33 C60.75 43.14 61.48 43.95 62.23 44.79 C63.64 46.32 65.1 47.81 66.61 49.25 C68.34 51.08 68.34 51.08 68.34 53.08 C69.82 53.58 69.82 53.58 71.34 54.08 C71.34 54.74 71.34 55.4 71.34 56.08 C72 56.08 72.66 56.08 73.34 56.08 C73.34 56.74 73.34 57.4 73.34 58.08 C73.88 58.29 74.42 58.51 74.98 58.73 C78.19 60.57 80.55 63.12 83.09 65.77 C88.21 71 93.45 75.96 99.16 80.54 C100.58 81.69 101.97 82.88 103.34 84.08 C103.34 84.74 103.34 85.4 103.34 86.08 C103.92 86.35 104.49 86.62 105.09 86.89 C107.4 88.11 109.36 89.39 111.34 91.08 C111.34 91.74 111.34 92.4 111.34 93.08 C111.88 93.32 112.42 93.56 112.98 93.8 C115.97 95.43 118.45 97.43 121.09 99.58 C122.07 100.38 123.06 101.17 124.07 101.99 C125.2 103.02 125.2 103.02 126.34 104.08 C126.34 104.74 126.34 105.4 126.34 106.08 C127.08 106.35 127.82 106.62 128.59 106.89 C131.23 108.03 133.2 109.18 135.34 111.08 C135.34 111.74 135.34 112.4 135.34 113.08 C135.96 113.39 136.58 113.7 137.21 114.02 C138.59 114.71 139.96 115.39 141.34 116.08 C141.34 116.74 141.34 117.4 141.34 118.08 C142.52 118.55 142.52 118.55 143.71 119.02 C146.34 120.08 146.34 120.08 148.34 121.08 C148.34 121.74 148.34 122.4 148.34 123.08 C149.2 123.49 149.2 123.49 150.08 123.91 C152.36 125.09 154.42 126.42 156.54 127.88 C157.33 128.42 158.12 128.96 158.94 129.53 C159.77 130.1 160.61 130.68 161.46 131.27 C162.31 131.85 163.16 132.44 164.04 133.04 C169.26 136.63 174.46 140.24 179.62 143.91 C181.34 145.14 181.34 145.14 183.34 146.08 C183.34 146.74 183.34 147.4 183.34 148.08 C184.19 148.24 184.19 148.24 185.07 148.41 C187.68 149.18 189.45 150.31 191.71 151.83 C200.18 157.35 208.94 162.38 217.66 167.49 C220.31 169.07 222.94 170.67 225.58 172.27 C229.46 174.61 233.33 176.61 237.46 178.46 C238.58 178.96 239.7 179.46 240.85 179.98 C242.08 180.53 242.08 180.53 243.34 181.08 C243.34 181.74 243.34 182.4 243.34 183.08 C244.06 183.21 244.78 183.33 245.53 183.46 C248.3 184.07 250.74 184.97 253.34 186.08 C253.34 186.74 253.34 187.4 253.34 188.08 C254.05 188.19 254.76 188.3 255.48 188.41 C258.67 189.16 261.14 190.37 264.03 191.89 C268.53 194.21 273.02 196.21 277.74 198.03 C280.69 199.22 283.53 200.58 286.4 201.96 C292.26 204.7 298.2 206.88 304.31 208.97 C308.76 210.5 313.02 212.21 317.29 214.21 C320.46 215.56 323.75 216.46 327.08 217.37 C329.34 218.08 329.34 218.08 331.2 219.04 C333.48 220.15 335.76 220.83 338.21 221.5 C340.73 222.19 343.24 222.93 345.75 223.67 C355.91 226.65 366.06 229.62 376.32 232.26 C379.34 233.08 379.34 233.08 382.14 234.07 C386.34 235.4 390.58 236.2 394.9 237.02 C400.72 238.15 406.51 239.32 412.28 240.71 C417.73 242.01 423.2 242.89 428.76 243.65 C431.34 244.08 431.34 244.08 433.34 245.08 C435.11 245.27 436.88 245.4 438.65 245.52 C446.24 246.1 453.72 247.21 461.2 248.62 C468.17 249.91 475.04 250.45 482.11 250.74 C482.84 250.77 483.58 250.8 484.34 250.84 C485.31 250.87 485.31 250.87 486.31 250.91 C488.34 251.08 488.34 251.08 490.68 251.57 C494.96 252.39 499.25 252.46 503.59 252.64 C504.63 252.68 505.68 252.72 506.75 252.76 C519.84 253.24 532.93 253.23 546.03 253.21 C549.62 253.21 553.21 253.21 556.8 253.22 C570.24 253.23 583.66 253.18 597.09 252.64 C598.55 252.58 598.55 252.58 600.05 252.52 C604.26 252.32 608.2 251.95 612.34 251.08 C613.67 250.97 615.01 250.89 616.34 250.84 C617.45 250.79 617.45 250.79 618.57 250.74 C619.34 250.71 620.11 250.68 620.9 250.64 C627.24 250.34 633.34 249.73 639.58 248.55 C643.39 247.9 647.21 247.61 651.06 247.33 C653.5 247.15 653.5 247.15 656.34 246.08 C658.09 245.91 659.84 245.76 661.59 245.64 C666.08 245.27 670.02 244.42 674.34 243.08 C679.24 241.93 684.07 241.06 689.09 240.71 C694.63 240.23 699.74 238.64 705.04 237.05 C708.26 236.1 711.47 235.33 714.75 234.64 C724.52 232.55 734.19 230.36 743.63 227.01 C746.84 225.91 750.08 225 753.34 224.08 C768.01 219.69 782.69 214.97 796.85 209.11 C799.54 208 802.25 206.94 804.96 205.87 C811.97 203.11 811.97 203.11 818.78 199.89 C821.36 198.58 823.7 197.54 826.4 196.58 C829.66 195.41 832.5 193.87 835.47 192.09 C837.47 191.01 839.46 190.24 841.59 189.46 C852.92 185.08 863.8 178.8 874.12 172.43 C876.51 170.98 878.94 169.65 881.4 168.33 C892.09 162.55 902.75 156.6 912.46 149.26 C914.34 148.08 914.34 148.08 917.34 148.08 C917.34 147.42 917.34 146.76 917.34 146.08 C918.33 146.08 919.32 146.08 920.34 146.08 C920.34 145.42 920.34 144.76 920.34 144.08 C922.11 142.81 922.11 142.81 924.71 141.27 C931.13 137.32 937.17 132.92 943.23 128.44 C943.98 127.89 944.73 127.34 945.5 126.78 C946.16 126.28 946.83 125.79 947.52 125.28 C949.34 124.08 949.34 124.08 952.34 123.08 C952.34 122.42 952.34 121.76 952.34 121.08 C956.72 118.08 956.72 118.08 959.34 118.08 C959.34 117.42 959.34 116.76 959.34 116.08 C962.8 113.08 962.8 113.08 965.34 113.08 C965.34 112.42 965.34 111.76 965.34 111.08 C966.8 109.79 966.8 109.79 968.71 108.46 C969.65 107.79 969.65 107.79 970.61 107.11 C972.34 106.08 972.34 106.08 974.34 106.08 C974.34 105.42 974.34 104.76 974.34 104.08 C975.91 102.67 977.55 101.33 979.21 100.02 C984.12 96.11 988.76 92.02 993.34 87.73 C995.34 86.08 995.34 86.08 997.34 86.08 C997.34 85.42 997.34 84.76 997.34 84.08 C998.74 82.67 998.74 82.67 1000.71 81.02 C1001.81 80.08 1001.81 80.08 1002.93 79.13 C1003.73 78.45 1004.52 77.78 1005.34 77.08 C1011.59 71.6 1017.55 65.94 1023.31 59.95 C1025.34 58.08 1025.34 58.08 1027.34 58.08 C1027.34 57.42 1027.34 56.76 1027.34 56.08 C1028 56.08 1028.66 56.08 1029.34 56.08 C1029.67 55.09 1030 54.1 1030.34 53.08 C1031 53.08 1031.66 53.08 1032.34 53.08 C1032.58 52.51 1032.83 51.94 1033.08 51.35 C1034.57 48.68 1036.32 46.94 1038.53 44.83 C1043.55 39.92 1048.43 34.94 1052.34 29.08 C1053 29.08 1053.66 29.08 1054.34 29.08 C1054.67 28.09 1055 27.1 1055.34 26.08 C1056 26.08 1056.66 26.08 1057.34 26.08 C1057.74 25.22 1057.74 25.22 1058.15 24.33 C1059.37 22.03 1060.64 20.06 1062.34 18.08 C1063 18.08 1063.66 18.08 1064.34 18.08 C1064.65 17.28 1064.65 17.28 1064.96 16.46 C1066.87 13.16 1069.39 10.49 1072.34 8.08 C1073 8.08 1073.66 8.08 1074.34 8.08 C1074.34 7.42 1074.34 6.76 1074.34 6.08 C1080.33 2.75 1085.44 0.25 1092.34 0.08 C1093.22 0.05 1094.1 0.03 1095 0 C1097.79 -0.04 1100.56 -0 1103.34 0.08 C1104.04 0.1 1104.74 0.12 1105.47 0.13 C1111.42 0.55 1116.19 3.22 1121.34 6.08 C1121.34 6.74 1121.34 7.4 1121.34 8.08 C1121.92 8.33 1122.49 8.57 1123.09 8.82 C1129.56 12.45 1134.04 19.18 1136.34 26.08 C1136.73 27.13 1137.12 28.19 1137.53 29.27 C1139.81 39.96 1138.61 50.21 1132.78 59.52 C1129.4 64.3 1125.42 68.54 1121.41 72.8 C1119.32 74.9 1119.32 74.9 1118.34 77.08 C1117.68 77.08 1117.02 77.08 1116.34 77.08 C1116.12 77.62 1115.9 78.15 1115.68 78.71 C1113.87 81.92 1111.42 84.43 1108.9 87.08 C1105.08 91.11 1105.08 91.11 1101.62 95.46 C1101.2 95.99 1100.77 96.53 1100.34 97.08 C1099.68 97.08 1099.02 97.08 1098.34 97.08 C1098.34 97.74 1098.34 98.4 1098.34 99.08 C1097.68 99.08 1097.02 99.08 1096.34 99.08 C1096.01 100.07 1095.68 101.06 1095.34 102.08 C1094.68 102.08 1094.02 102.08 1093.34 102.08 C1092.94 103.04 1092.94 103.04 1092.53 104.02 C1091.34 106.08 1091.34 106.08 1088.34 107.08 C1088.01 107.74 1087.68 108.4 1087.34 109.08 C1087.01 109.74 1086.68 110.4 1086.34 111.08 C1084.85 111.58 1084.85 111.58 1083.34 112.08 C1083.01 112.74 1082.68 113.4 1082.34 114.08 C1082.01 114.74 1081.68 115.4 1081.34 116.08 C1079.85 116.58 1079.85 116.58 1078.34 117.08 C1078.01 117.74 1077.68 118.4 1077.34 119.08 C1077.01 119.74 1076.68 120.4 1076.34 121.08 C1074.85 121.58 1074.85 121.58 1073.34 122.08 C1073.34 122.74 1073.34 123.4 1073.34 124.08 C1071.96 125.71 1071.96 125.71 1070.34 127.08 C1069.68 127.08 1069.02 127.08 1068.34 127.08 C1068.34 127.74 1068.34 128.4 1068.34 129.08 C1066.73 130.74 1066.73 130.74 1064.59 132.58 C1063.55 133.49 1063.55 133.49 1062.48 134.43 C1060.5 135.96 1058.62 137.05 1056.34 138.08 C1056.34 138.74 1056.34 139.4 1056.34 140.08 C1050.86 145.08 1050.86 145.08 1048.34 145.08 C1048.34 145.74 1048.34 146.4 1048.34 147.08 C1046.71 148.56 1045.01 149.96 1043.28 151.33 C1039.88 154.04 1036.53 156.76 1033.28 159.64 C1030.34 162.08 1030.34 162.08 1028.34 162.08 C1028.01 163.07 1027.68 164.06 1027.34 165.08 C1026.68 165.08 1026.02 165.08 1025.34 165.08 C1028.16 170.85 1031.11 176.55 1034.15 182.21 C1037.11 187.72 1040.01 193.26 1042.84 198.83 C1043.37 199.85 1043.37 199.85 1043.9 200.89 C1045.37 203.81 1046.34 205.76 1046.34 209.08 C1047 209.08 1047.66 209.08 1048.34 209.08 C1048.75 210.07 1049.16 211.06 1049.59 212.08 C1052.11 217.94 1055.05 223.56 1058.07 229.18 C1061.39 235.37 1064.66 241.57 1067.84 247.83 C1068.19 248.51 1068.54 249.19 1068.9 249.89 C1070.37 252.81 1071.34 254.76 1071.34 258.08 C1072 258.08 1072.66 258.08 1073.34 258.08 C1074.14 259.81 1074.14 259.81 1074.96 261.57 C1080.1 272.58 1085.57 283.36 1091.28 294.08 C1093.38 298.04 1095.36 302.06 1097.34 306.08 C1099.18 309.8 1101.07 313.48 1103.04 317.13 C1106.38 323.33 1109.65 329.56 1112.84 335.83 C1113.37 336.85 1113.37 336.85 1113.9 337.89 C1115.37 340.81 1116.34 342.76 1116.34 346.08 C1117 346.08 1117.66 346.08 1118.34 346.08 C1118.73 347.05 1119.13 348.01 1119.54 349 C1121.5 353.59 1123.86 357.94 1126.21 362.33 C1140.95 390.05 1140.95 390.05 1137.77 404.71 C1134.22 415.75 1127.62 425.05 1117.55 431.05 C1106.35 436.28 1094.36 437.21 1082.46 433.27 C1067.34 426.36 1061.13 414.43 1054.34 400.08 C1053.32 398.04 1052.3 396 1051.28 393.96 C1050.82 393.03 1050.36 392.1 1049.89 391.15 C1047.98 387.36 1045.97 383.63 1043.96 379.89 C1040.43 373.3 1037.15 366.61 1034.08 359.79 C1032.65 356.67 1031.22 353.9 1029.3 351.03 C1027.17 347.82 1025.83 344.63 1024.34 341.08 C1022.83 338.09 1021.24 335.15 1019.65 332.21 C1015.88 325.13 1012.32 318 1009.03 310.69 C1007.13 306.53 1004.89 302.89 1002.34 299.08 C1001.65 297.43 1000.98 295.76 1000.34 294.08 C999.17 291.86 997.99 289.66 996.78 287.46 C993.54 281.49 990.58 275.43 987.71 269.27 C985.45 264.4 983.21 259.63 980.34 255.08 C977.47 250.53 975.23 245.76 972.96 240.89 C970.07 234.71 967.15 228.53 964.03 222.46 C963.56 221.51 963.56 221.51 963.08 220.54 C961.32 217.11 961.32 217.11 958.11 215.18 C957.53 215.15 956.94 215.12 956.34 215.08 C956.34 215.74 956.34 216.4 956.34 217.08 C953.43 219.12 951.94 220.08 948.34 220.08 C948.34 220.74 948.34 221.4 948.34 222.08 C947.35 222.08 946.36 222.08 945.34 222.08 C945.34 222.74 945.34 223.4 945.34 224.08 C944.81 224.37 944.27 224.66 943.72 224.96 C938.55 227.81 933.5 230.8 928.5 233.95 C926.34 235.08 926.34 235.08 923.34 235.08 C923.34 235.74 923.34 236.4 923.34 237.08 C922.61 237.43 921.89 237.79 921.14 238.15 C915.76 240.79 910.49 243.52 905.34 246.58 C899.47 250.05 893.46 253.09 887.34 256.08 C886.03 256.74 884.72 257.4 883.41 258.06 C875.79 261.9 868.14 265.61 860.34 269.08 C858.53 269.91 856.71 270.75 854.9 271.58 C849.1 274.22 843.24 276.67 837.34 279.08 C835.61 279.79 835.61 279.79 833.84 280.52 C826.41 283.54 818.92 286.34 811.34 288.97 C807.51 290.29 803.76 291.7 800.03 293.27 C795.55 295.12 791 296.19 786.3 297.3 C782.58 298.29 779.12 299.69 775.57 301.17 C770.28 303.33 764.74 304.47 759.16 305.62 C757.33 305.92 757.33 305.92 756.34 307.08 C755.04 307.41 753.72 307.69 752.4 307.96 C749.02 308.67 745.76 309.54 742.46 310.58 C737.17 312.22 731.81 313.2 726.34 314.08 C726.65 315.22 726.96 316.35 727.28 317.52 C728.05 320.59 728.55 323.56 728.84 326.71 C729.2 330.42 730.09 333.56 731.34 337.08 C732.7 342.27 733.59 347.4 734 352.75 C734.31 355.25 734.31 355.25 735.25 358.25 C736.52 362.7 737.41 367.17 738.28 371.71 C739.43 377.59 740.62 383.44 742.03 389.27 C743.05 393.56 743.7 397.72 744.1 402.11 C744.48 405.2 745.43 408.1 746.34 411.08 C747.5 415.63 748.39 420.1 748.84 424.77 C749.2 428.46 750.1 431.58 751.34 435.08 C752.7 440.27 753.59 445.4 754 450.75 C754.31 453.25 754.31 453.25 755.25 456.25 C756.52 460.7 757.41 465.17 758.28 469.71 C759.43 475.59 760.62 481.44 762.03 487.27 C763.03 491.48 763.74 495.57 764.03 499.89 C764.31 502.27 764.31 502.27 765.25 505.24 C766.51 509.69 767.4 514.16 768.28 518.71 C769.4 524.51 770.6 530.24 772.09 535.96 C774.8 547.72 774.23 558.38 768.34 569.08 C760.84 579.57 750.91 586.61 738.22 588.77 C734.1 589.22 730.41 588.75 726.34 588.08 C725.25 588.04 724.15 588 723.03 587.96 C713.74 585.75 705.15 579.6 699.34 572.08 C695 564.91 692.29 557.79 691.68 549.43 C691.4 546.98 691.4 546.98 690.4 544.36 C689.09 540.33 688.47 536.33 687.84 532.14 C687 526.64 685.96 521.42 684.34 516.08 C683.18 511.54 682.29 507.06 681.84 502.39 C681.48 498.71 680.58 495.58 679.34 492.08 C678.15 487.57 677.29 483.1 676.84 478.46 C676.45 474.49 675.5 470.91 674.34 467.08 C673.18 462.54 672.29 458.07 671.84 453.39 C671.48 449.71 670.58 446.58 669.34 443.08 C667.98 437.89 667.09 432.77 666.68 427.42 C666.37 424.92 666.37 424.92 665.43 421.91 C664.16 417.46 663.27 413 662.4 408.46 C661.25 402.57 660.06 396.72 658.65 390.89 C657.65 386.68 656.94 382.6 656.65 378.28 C656.37 375.9 656.37 375.9 655.43 372.93 C654.17 368.47 653.28 364 652.4 359.46 C651.25 353.55 650.03 347.68 648.59 341.83 C647.46 337.09 647.05 332.94 647.34 328.08 C646.53 328.21 645.71 328.35 644.88 328.48 C637.3 329.65 629.85 330.4 622.2 330.74 C619.25 330.88 616.39 331.07 613.47 331.58 C607.96 332.47 602.41 332.48 596.84 332.64 C595.8 332.68 595.8 332.68 594.75 332.71 C548.06 334.07 500.66 334.77 454.34 328.08 C454.15 329.23 453.95 330.37 453.75 331.55 C453.49 333.08 453.23 334.61 452.96 336.14 C452.78 337.27 452.78 337.27 452.58 338.42 C451.77 343.09 450.64 347.53 449.34 352.08 C448.77 354.9 448.3 357.74 447.84 360.58 C446.98 365.88 445.83 370.91 444.34 376.08 C444.05 378.16 444.05 378.16 443.96 380.08 C443.57 384.39 442.5 388.43 441.34 392.58 C439.99 397.4 438.95 402.04 438.55 407.04 C438.05 412 436.72 416.82 435.28 421.58 C434.56 424.26 434.18 426.37 433.96 429.08 C433.57 433.39 432.5 437.43 431.34 441.58 C429.99 446.4 428.95 451.04 428.55 456.04 C428.05 460.9 426.77 465.65 425.37 470.32 C424.26 474.39 423.52 478.43 422.84 482.58 C421.98 487.88 420.83 492.91 419.34 498.08 C419.13 499.53 418.95 500.99 418.84 502.46 C418.28 508.24 417.04 513.76 415.37 519.32 C414.26 523.39 413.52 527.43 412.84 531.58 C411.98 536.88 410.82 541.91 409.34 547.08 C409.19 548.45 409.08 549.83 409.03 551.21 C407.85 562.54 402.74 571.55 394.34 579.08 C385.74 585.7 376.71 589.99 365.59 588.77 C364.17 588.54 362.76 588.31 361.34 588.08 C360.25 588.04 359.15 588 358.03 587.96 C348.74 585.75 340.15 579.6 334.34 572.08 C327.66 561.06 325.46 549.88 328.21 537.14 C328.85 534.69 329.58 532.28 330.32 529.86 C331.42 525.78 332.16 521.74 332.84 517.58 C333.7 512.28 334.85 507.25 336.34 502.08 C336.54 500 336.74 497.92 336.93 495.84 C337.45 492.35 338.32 488.98 339.21 485.58 C340.92 479.08 342.23 472.57 343.3 465.93 C344.02 461.53 345.11 457.36 346.34 453.08 C346.54 451 346.74 448.92 346.93 446.84 C347.45 443.35 348.32 439.98 349.21 436.58 C350.92 430.08 352.23 423.57 353.3 416.93 C354.02 412.53 355.11 408.36 356.34 404.08 C356.54 402 356.74 399.92 356.93 397.84 C357.45 394.35 358.32 390.98 359.21 387.58 C360.92 381.08 362.23 374.57 363.3 367.93 C364.02 363.53 365.11 359.36 366.34 355.08 C366.63 353 366.63 353 366.71 351.08 C367.18 346.1 368.54 341.42 369.89 336.62 C371.24 331.74 371.91 327.11 372.34 322.08 C372.67 321.42 373 320.76 373.34 320.08 C373.38 318.08 373.38 316.08 373.34 314.08 C365.97 312.02 358.6 310.16 351.1 308.62 C346.65 307.68 342.42 306.49 338.12 305 C333.67 303.53 329.15 302.26 324.63 300.97 C320.43 299.76 316.35 298.38 312.28 296.81 C309.24 295.67 306.17 294.66 303.09 293.64 C302.45 293.43 301.8 293.22 301.14 293 C298.1 291.99 295.06 290.99 292.02 290.01 C286.73 288.29 281.65 286.41 276.6 284.07 C274.13 282.99 271.64 282.1 269.09 281.21 C263.71 279.3 258.61 276.95 253.45 274.51 C250.83 273.31 248.22 272.23 245.53 271.21 C240.28 269.16 235.31 266.62 230.3 264.07 C226.49 262.15 222.68 260.3 218.78 258.58 C213.71 256.32 208.85 253.74 203.97 251.1 C199.06 248.45 194.08 245.94 189.07 243.47 C185.68 241.75 182.42 239.84 179.18 237.87 C177.17 236.77 177.17 236.77 174.34 238.08 C172.74 240.17 172.74 240.17 171.28 242.64 C169.74 245.15 169.74 245.15 168.34 247.08 C167.68 247.08 167.02 247.08 166.34 247.08 C166.07 247.64 165.8 248.21 165.53 248.79 C164.26 251.24 162.85 253.52 161.34 255.83 C160.82 256.63 160.31 257.43 159.78 258.25 C159.3 258.86 158.83 259.46 158.34 260.08 C157.68 260.08 157.02 260.08 156.34 260.08 C156.01 261.4 155.68 262.72 155.34 264.08 C154.68 264.08 154.02 264.08 153.34 264.08 C153.13 264.74 152.93 265.4 152.71 266.08 C150.85 270.15 148.36 273.77 145.34 277.08 C144.68 277.08 144.02 277.08 143.34 277.08 C143.09 277.81 142.84 278.53 142.58 279.28 C141.23 282.34 139.64 284.36 137.46 286.89 C133.45 291.68 129.64 296.58 125.9 301.58 C125.12 302.62 125.12 302.62 124.33 303.69 C122.26 306.45 120.25 309.21 118.34 312.08 C117.68 312.08 117.02 312.08 116.34 312.08 C116.12 312.77 115.89 313.46 115.66 314.17 C114.02 317.79 111.71 320.65 109.21 323.71 C104.9 329.07 100.82 334.51 96.9 340.17 C96.13 341.12 96.13 341.12 95.34 342.08 C94.68 342.08 94.02 342.08 93.34 342.08 C93.13 342.74 92.93 343.4 92.71 344.08 C90.85 348.15 88.36 351.77 85.34 355.08 C84.68 355.08 84.02 355.08 83.34 355.08 C83.11 355.78 82.87 356.48 82.63 357.2 C81.11 360.6 79.03 363.32 76.71 366.21 C75.81 367.35 74.92 368.49 74.02 369.63 C73.57 370.2 73.12 370.78 72.66 371.37 C69.97 374.87 67.46 378.51 64.93 382.13 C64.14 383.1 64.14 383.1 63.34 384.08 C62.68 384.08 62.02 384.08 61.34 384.08 C61.07 384.64 60.8 385.21 60.53 385.79 C59.26 388.24 57.85 390.52 56.34 392.83 C55.82 393.63 55.31 394.43 54.78 395.25 C54.3 395.86 53.83 396.46 53.34 397.08 C52.68 397.08 52.02 397.08 51.34 397.08 C51.07 397.64 50.8 398.21 50.53 398.79 C49.26 401.24 47.85 403.52 46.34 405.83 C45.82 406.63 45.31 407.43 44.78 408.25 C44.3 408.86 43.83 409.46 43.34 410.08 C42.68 410.08 42.02 410.08 41.34 410.08 C41.01 411.4 40.68 412.72 40.34 414.08 C39.68 414.08 39.02 414.08 38.34 414.08 C38.08 414.82 37.83 415.57 37.57 416.33 C34.39 423.46 27.16 428.62 20.34 432.08 C19.41 432.56 19.41 432.56 18.47 433.05 C9.19 436.96 -3.67 436.66 -13.04 433.27 C-23.32 428.2 -31.72 419.93 -35.66 409.08 C-36.2 407.65 -36.2 407.65 -36.76 406.18 C-39.24 397.67 -38.27 388.12 -34.66 380.08 C-31.38 374.11 -27.58 368.7 -23.01 363.65 C-21.64 362.06 -20.53 360.42 -19.41 358.64 C-18.83 357.8 -18.26 356.95 -17.66 356.08 C-17 356.08 -16.34 356.08 -15.66 356.08 C-15.44 355.39 -15.21 354.71 -14.98 354 C-13.34 350.37 -11.03 347.51 -8.54 344.46 C-4.22 339.1 -0.14 333.65 3.78 328 C4.55 327.05 4.55 327.05 5.34 326.08 C6 326.08 6.66 326.08 7.34 326.08 C7.55 325.42 7.75 324.76 7.96 324.08 C9.83 320.01 12.32 316.39 15.34 313.08 C16 313.08 16.66 313.08 17.34 313.08 C17.57 312.38 17.81 311.68 18.05 310.96 C19.57 307.56 21.65 304.84 23.96 301.96 C24.86 300.82 25.76 299.67 26.66 298.53 C27.11 297.96 27.56 297.39 28.02 296.8 C30.71 293.29 33.22 289.66 35.75 286.03 C36.53 285.07 36.53 285.07 37.34 284.08 C38 284.08 38.66 284.08 39.34 284.08 C39.61 283.52 39.88 282.96 40.15 282.38 C41.42 279.93 42.83 277.64 44.34 275.33 C44.86 274.53 45.37 273.73 45.9 272.91 C46.38 272.31 46.85 271.7 47.34 271.08 C48 271.08 48.66 271.08 49.34 271.08 C49.61 270.52 49.88 269.96 50.15 269.38 C51.42 266.93 52.83 264.64 54.34 262.33 C54.86 261.53 55.37 260.73 55.9 259.91 C56.38 259.31 56.85 258.7 57.34 258.08 C58 258.08 58.66 258.08 59.34 258.08 C59.67 256.76 60 255.44 60.34 254.08 C61 254.08 61.66 254.08 62.34 254.08 C62.55 253.42 62.75 252.76 62.96 252.08 C64.83 248.01 67.32 244.39 70.34 241.08 C71 241.08 71.66 241.08 72.34 241.08 C72.58 240.37 72.83 239.65 73.08 238.91 C74.5 235.71 76.26 233.5 78.53 230.83 C79.33 229.87 80.14 228.91 80.97 227.91 C81.75 226.98 82.53 226.04 83.34 225.08 C87.79 219.55 91.92 213.87 95.86 207.95 C96.35 207.34 96.84 206.72 97.34 206.08 C98 206.08 98.66 206.08 99.34 206.08 C99.55 205.42 99.75 204.76 99.96 204.08 C101.58 200.56 103.73 197.91 106.2 194.95 C106.57 194.33 106.95 193.72 107.34 193.08 C107.01 192.09 106.68 191.1 106.34 190.08 C105.68 189.75 105.02 189.42 104.34 189.08 C104.34 188.42 104.34 187.76 104.34 187.08 C103.64 186.84 102.93 186.61 102.21 186.36 C98.83 184.86 96.31 182.93 93.4 180.64 C92.85 180.21 92.3 179.78 91.73 179.33 C90.55 178.4 89.37 177.47 88.2 176.54 C86.27 175.03 84.33 173.54 82.38 172.05 C81.09 171.06 79.81 170.07 78.53 169.08 C77.91 168.61 77.29 168.15 76.66 167.66 C75.18 166.52 73.76 165.3 72.34 164.08 C72.34 163.42 72.34 162.76 72.34 162.08 C71.31 161.77 71.31 161.77 70.26 161.46 C66.37 159.62 63.72 156.99 60.65 154.02 C56.82 150.11 56.82 150.11 52.34 147.08 C52.34 146.42 52.34 145.76 52.34 145.08 C51.76 144.81 51.18 144.55 50.59 144.27 C48.28 143.05 46.32 141.78 44.34 140.08 C44.34 139.42 44.34 138.76 44.34 138.08 C43.77 137.82 43.2 137.57 42.61 137.3 C40.13 135.97 38.21 134.43 36.09 132.58 C35.38 131.97 34.68 131.37 33.95 130.74 C32.34 129.08 32.34 129.08 32.34 127.08 C31.68 127.08 31.02 127.08 30.34 127.08 C28.71 125.71 28.71 125.71 27.34 124.08 C27.34 123.42 27.34 122.76 27.34 122.08 C26.7 121.81 26.06 121.55 25.4 121.27 C23.34 120.08 23.34 120.08 22.34 117.08 C21.35 116.59 21.35 116.59 20.34 116.08 C18.34 115.08 18.34 115.08 17.34 112.08 C16.35 111.59 16.35 111.59 15.34 111.08 C13.34 110.08 13.34 110.08 12.34 107.08 C11.35 106.75 10.36 106.42 9.34 106.08 C9.34 105.42 9.34 104.76 9.34 104.08 C8.68 104.08 8.02 104.08 7.34 104.08 C7.34 103.42 7.34 102.76 7.34 102.08 C6.68 102.08 6.02 102.08 5.34 102.08 C3.71 100.71 3.71 100.71 2.34 99.08 C2.34 98.42 2.34 97.76 2.34 97.08 C1.68 97.08 1.02 97.08 0.34 97.08 C-1.32 95.47 -1.32 95.47 -3.16 93.33 C-4.07 92.29 -4.07 92.29 -5 91.22 C-6.54 89.24 -7.63 87.36 -8.66 85.08 C-9.32 85.08 -9.98 85.08 -10.66 85.08 C-15.66 79.61 -15.66 79.61 -15.66 77.08 C-16.32 77.08 -16.98 77.08 -17.66 77.08 C-20.21 74.62 -22.4 71.81 -24.66 69.08 C-25.36 68.25 -26.07 67.42 -26.79 66.57 C-30.67 61.9 -33.7 57.84 -35.66 52.08 C-36.05 51.03 -36.44 49.98 -36.85 48.89 C-39.17 37.99 -37.85 27.76 -31.85 18.33 C-29.11 14.49 -26.19 11.21 -22.66 8.08 C-22 8.08 -21.34 8.08 -20.66 8.08 C-20.66 7.42 -20.66 6.76 -20.66 6.08 C-13.51 2.11 -8.09 0.25 0 0 Z " fill="#000000" transform="translate(89.66015625,345.91796875)"/>
</svg>
