<?xml version="1.0" encoding="UTF-8"?>
<!-- Generator: visioncortex VTracer 0.6.3 -->
<svg version="1.1" xmlns="http://www.w3.org/2000/svg" width="1280" height="1280">
<path d="M0 0 C215.49 0 430.98 0 653 0 C653.33 9.57 653.66 19.14 654 29 C656.54 35.32 658.39 39.61 662 45 C662.66 46.25 662.66 46.25 663.32 47.52 C665.86 52.31 668.97 54.51 673.53 57.32 C682.19 63.21 690.26 71.97 692.82 82.31 C693.41 86.02 693.86 89.71 694.25 93.44 C694.41 94.77 694.56 96.1 694.72 97.44 C695.18 101.29 695.59 105.14 696 109 C696.23 110.99 696.46 112.98 696.69 114.97 C698.12 127.64 698.12 127.64 698 134 C698.69 134.25 699.37 134.49 700.08 134.75 C703.49 136.21 706.56 138.08 709.69 140.06 C715.73 144.01 715.73 144.01 722.68 145.15 C724.16 145.16 724.16 145.16 725.67 145.18 C727.31 145.18 727.31 145.18 728.98 145.19 C730.12 145.2 731.27 145.21 732.45 145.21 C734.95 145.23 737.45 145.25 739.95 145.26 C743.95 145.28 747.96 145.31 751.96 145.34 C759.79 145.39 767.63 145.44 775.46 145.49 C841.4 145.88 841.4 145.88 862.66 146.34 C864.29 146.37 865.93 146.4 867.56 146.43 C885.27 146.75 902.87 149.34 919 157 C919.91 157.43 920.82 157.86 921.76 158.3 C933.76 164.39 943.4 172.74 952 183 C953.19 184.31 954.37 185.63 955.56 186.94 C973.83 208.03 978.81 231.56 982.91 258.38 C984.89 271.29 986.9 283.01 996 293 C999.38 295.34 1002.88 296.8 1006.75 298.19 C1009.49 299.18 1012.21 300.23 1014.93 301.29 C1019.12 302.89 1023.31 304.49 1027.52 306.05 C1028.41 306.38 1029.3 306.7 1030.21 307.04 C1031.13 307.36 1032.05 307.67 1033 308 C1033.98 308.34 1034.95 308.69 1035.96 309.04 C1041.06 310.48 1046.22 310.28 1051.48 310.27 C1052.62 310.28 1053.76 310.28 1054.94 310.29 C1057.41 310.3 1059.88 310.3 1062.36 310.3 C1066.31 310.31 1070.27 310.33 1074.22 310.35 C1084.77 310.4 1095.33 310.43 1105.88 310.45 C1162.71 310.58 1162.71 310.58 1185.09 312.16 C1186.2 312.23 1186.2 312.23 1187.34 312.3 C1201.47 313.2 1213.38 317.36 1224 327 C1224.62 327.54 1225.25 328.09 1225.89 328.65 C1230.03 332.48 1232.81 336.65 1235.54 341.57 C1240.16 349.27 1244.73 352.38 1253 356 C1266.37 356.5 1266.37 356.5 1280 357 C1280 661.59 1280 966.18 1280 1280 C1064.51 1280 849.02 1280 627 1280 C626.67 1270.76 626.34 1261.52 626 1252 C621.55 1240.72 621.55 1240.72 615.21 1230.62 C614 1229 614 1229 614 1227 C613.01 1226.69 613.01 1226.69 612 1226.38 C607.93 1224.51 604.31 1222.02 601 1219 C601 1218.34 601 1217.68 601 1217 C600.34 1217 599.68 1217 599 1217 C597.62 1215.33 596.32 1213.58 595.06 1211.81 C594.37 1210.85 593.68 1209.89 592.97 1208.89 C589.65 1204.02 587.65 1200.55 586.9 1194.62 C586.74 1193.38 586.58 1192.13 586.42 1190.86 C586.26 1189.53 586.1 1188.2 585.94 1186.88 C585.77 1185.52 585.6 1184.16 585.42 1182.81 C584.93 1178.87 584.46 1174.94 584 1171 C583.88 1169.95 583.75 1168.91 583.63 1167.83 C581.87 1152.68 581.87 1152.68 582 1146 C581.31 1145.75 580.63 1145.51 579.92 1145.25 C576.51 1143.79 573.44 1141.92 570.31 1139.94 C564.29 1136 564.29 1136 557.37 1134.85 C555.9 1134.84 555.9 1134.84 554.4 1134.82 C553.32 1134.82 552.24 1134.81 551.13 1134.81 C550 1134.8 548.86 1134.79 547.7 1134.79 C545.22 1134.77 542.74 1134.75 540.26 1134.74 C536.3 1134.72 532.33 1134.69 528.37 1134.66 C520.61 1134.61 512.84 1134.56 505.08 1134.51 C484.23 1134.39 463.37 1134.24 442.52 1134.03 C439.19 1134 435.86 1133.97 432.53 1133.94 C427.78 1133.9 423.04 1133.84 418.29 1133.76 C416.65 1133.73 415.01 1133.71 413.37 1133.7 C384.56 1133.46 355.19 1125.28 334.43 1104.42 C332.23 1101.99 330.1 1099.51 328 1097 C326.83 1095.71 325.67 1094.42 324.5 1093.12 C323.32 1091.76 322.16 1090.38 321 1089 C320.28 1088.14 319.56 1087.28 318.81 1086.4 C303.01 1066.59 299.85 1041.74 296.14 1017.4 C295.96 1016.25 295.96 1016.25 295.78 1015.08 C295.55 1013.65 295.34 1012.21 295.13 1010.77 C293.75 1002.05 289.78 993.68 284 987 C280.63 984.68 277.1 983.23 273.27 981.83 C270.52 980.82 267.8 979.77 265.07 978.71 C260.88 977.1 256.68 975.51 252.48 973.95 C251.59 973.62 250.7 973.3 249.79 972.96 C248.87 972.64 247.95 972.33 247 972 C246.02 971.66 245.04 971.31 244.04 970.96 C238.96 969.53 233.86 969.72 228.62 969.73 C227.5 969.72 226.37 969.72 225.21 969.71 C222.76 969.7 220.31 969.7 217.86 969.7 C213.94 969.69 210.02 969.67 206.1 969.65 C195.65 969.6 185.2 969.57 174.75 969.55 C118.47 969.42 118.47 969.42 98.05 968.12 C96.48 968.02 94.91 967.93 93.34 967.85 C77.62 967.05 63.63 961.2 52.52 949.88 C49.4 946.31 46.86 942.62 44.5 938.51 C39.87 930.77 35.31 927.63 27 924 C18.09 923.67 9.18 923.34 0 923 C0 789.68 0 656.36 0 519 C30.92 519 30.92 519 43.69 530.06 C67.36 555.17 69.52 599.08 69.34 631.52 C69.34 633.67 69.34 635.81 69.34 637.95 C69.34 642.51 69.33 647.06 69.32 651.62 C69.3 658.84 69.3 666.06 69.31 673.28 C69.33 693.78 69.32 714.29 69.28 734.79 C69.26 746.16 69.26 757.52 69.29 768.89 C69.3 776.05 69.29 783.22 69.26 790.39 C69.24 794.85 69.25 799.3 69.27 803.76 C69.27 805.82 69.27 807.88 69.25 809.93 C69.14 822.58 69.66 831.84 77.7 842.18 C79 844 79 844 79 846 C80.3 846.15 81.6 846.29 82.93 846.45 C98.61 848.34 114.18 851.26 129.26 856.03 C132.91 856.98 135.9 857.25 139.65 857.25 C140.96 857.26 142.26 857.26 143.61 857.27 C145.05 857.26 146.49 857.26 147.92 857.25 C149.46 857.26 151 857.26 152.53 857.26 C156.75 857.27 160.97 857.27 165.18 857.26 C169.74 857.26 174.29 857.26 178.84 857.27 C187.76 857.28 196.69 857.28 205.61 857.27 C212.89 857.27 220.16 857.27 227.43 857.27 C228.99 857.27 228.99 857.27 230.57 857.27 C232.68 857.27 234.79 857.27 236.89 857.27 C256.67 857.28 276.44 857.27 296.21 857.26 C313.1 857.25 329.98 857.25 346.87 857.26 C366.52 857.27 386.17 857.28 405.83 857.27 C407.94 857.27 410.04 857.27 412.15 857.27 C413.71 857.27 413.71 857.27 415.3 857.27 C422.52 857.26 429.75 857.27 436.98 857.27 C445.84 857.28 454.71 857.28 463.57 857.27 C468.07 857.26 472.57 857.26 477.08 857.27 C495.71 857.29 514.27 856.99 532.88 856.05 C533.74 856 534.59 855.96 535.47 855.92 C537.89 855.79 540.32 855.66 542.75 855.53 C543.45 855.49 544.16 855.45 544.88 855.41 C548.55 855.2 552.22 854.92 555.88 854.57 C556.62 854.5 557.35 854.44 558.11 854.37 C561.06 853.8 562.09 852.43 563.75 850 C564.35 849.11 564.94 848.22 565.56 847.3 C567.26 844.88 569.12 842.8 571.2 840.69 C582.66 828.53 582.87 816.95 582.62 800.82 C582.58 797.27 582.62 793.73 582.64 790.18 C582.68 783.98 582.66 777.78 582.62 771.58 C582.55 762.36 582.56 753.14 582.58 743.92 C582.61 728.39 582.59 712.87 582.53 697.34 C582.47 681.95 582.43 666.56 582.43 651.17 C582.43 650.21 582.43 649.26 582.43 648.27 C582.43 644.37 582.43 640.48 582.43 636.58 C582.42 601.1 582.36 565.61 582.26 530.12 C582.16 496.71 582.1 463.29 582.09 429.87 C582.09 428.85 582.09 427.82 582.09 426.76 C582.09 423.65 582.09 420.54 582.09 417.43 C582.09 413.3 582.09 409.17 582.08 405.04 C582.08 404.02 582.08 403 582.08 401.95 C582.07 369.96 582.03 337.98 581.98 306 C581.96 295.41 581.94 284.83 581.94 274.24 C581.93 273.29 581.93 272.34 581.93 271.37 C581.93 269.95 581.93 269.95 581.93 268.5 C581.92 250.18 581.89 231.87 581.82 213.55 C581.79 205.19 581.77 196.83 581.77 188.47 C581.77 156.58 581.71 125.03 576.53 93.47 C575.94 89.61 575.57 85.77 575.34 81.87 C575.1 79.69 575.1 79.69 572.86 77.34 C571.98 76.74 571.09 76.13 570.19 75.5 C569.31 74.87 568.44 74.24 567.54 73.59 C566.7 73.07 565.86 72.54 565 72 C564.43 71.64 563.87 71.28 563.29 70.92 C560.08 69.63 557.3 69.75 553.85 69.74 C553.13 69.74 552.41 69.73 551.66 69.73 C549.22 69.72 546.78 69.72 544.34 69.73 C542.58 69.72 540.82 69.72 539.06 69.71 C534.21 69.7 529.35 69.69 524.5 69.69 C519.27 69.69 514.04 69.68 508.81 69.67 C497.35 69.65 485.9 69.64 474.44 69.63 C467.28 69.63 460.11 69.62 452.94 69.62 C433.07 69.6 413.2 69.58 393.32 69.58 C391.41 69.58 391.41 69.58 389.47 69.58 C386.89 69.58 384.3 69.58 381.72 69.58 C379.8 69.57 379.8 69.57 377.84 69.57 C376.56 69.57 375.28 69.57 373.96 69.57 C353.26 69.57 332.57 69.54 311.87 69.51 C290.58 69.47 269.29 69.45 248 69.45 C236.06 69.45 224.13 69.44 212.19 69.41 C202.01 69.39 191.82 69.38 181.64 69.39 C176.46 69.4 171.28 69.4 166.1 69.38 C140.02 69.27 114.76 70.86 89 75 C87.95 75.14 86.89 75.29 85.81 75.43 C80.85 76.14 80.85 76.14 76.97 79.07 C75.68 82.96 74.98 86.76 74.42 90.82 C74.23 92.14 74.23 92.14 74.04 93.48 C73.63 96.4 73.24 99.32 72.86 102.23 C72.73 103.25 72.59 104.27 72.46 105.31 C69.52 128.21 69.14 150.92 69.22 173.97 C69.24 179.6 69.21 185.23 69.2 190.86 C69.17 201.46 69.17 212.06 69.18 222.66 C69.2 238.24 69.17 253.82 69.14 269.4 C69.13 271.71 69.13 274.03 69.13 276.34 C69.12 277.47 69.12 278.6 69.12 279.77 C69.11 286.42 69.11 293.08 69.11 299.73 C69.11 303.86 69.11 307.99 69.11 312.12 C69.11 314.02 69.11 315.92 69.12 317.81 C69.2 361.65 69.2 361.65 55 377.75 C39.69 391.93 19.78 390 0 390 C0 261.3 0 132.6 0 0 Z M712 240 C710.66 242.74 709.83 244.92 709.06 247.81 C708.72 249 708.72 249 708.37 250.21 C707.54 253.13 706.77 256.06 706 259 C705.65 260.32 705.3 261.64 704.95 262.95 C703.8 267.28 702.67 271.61 701.56 275.94 C701.38 276.65 701.19 277.37 701 278.1 C700.47 280.16 699.95 282.22 699.44 284.28 C699.14 285.48 698.84 286.67 698.53 287.91 C698.03 290.81 697.8 292.34 699 295 C701.23 296.68 703.37 298.13 705.75 299.56 C706.68 300.14 706.68 300.14 707.63 300.73 C709.41 301.84 711.2 302.92 713 304 C713.79 304.52 714.57 305.05 715.38 305.59 C722.74 309.55 733.57 308.06 741.77 308.11 C743.23 308.12 743.23 308.12 744.71 308.13 C750.78 308.17 750.78 308.17 756.85 308.18 C775.26 308.12 790.6 310.67 804.73 323.58 C812.53 331.82 815.51 342.17 817.61 353.02 C817.99 354.97 818.39 356.91 818.79 358.85 C826.15 395.83 824.88 433.63 824.71 471.14 C824.69 477.53 824.69 483.91 824.71 490.3 C824.89 559.56 824.89 559.56 821.77 592.79 C821.67 593.86 821.58 594.93 821.48 596.03 C819.89 612.88 817.4 630.01 803.91 641.84 C788.06 653.15 770.11 654.09 751.41 654 C748.58 654 745.76 654 742.93 654.01 C741.02 654 739.11 653.98 737.2 653.95 C721.2 653.69 711.26 657.16 698 666 C697.51 668.34 697.51 668.34 697.53 671.1 C697.49 672.7 697.49 672.7 697.45 674.33 C697.45 675.49 697.44 676.64 697.43 677.83 C697.41 679.02 697.4 680.2 697.38 681.42 C697.36 683.93 697.34 686.44 697.33 688.95 C697.31 692.79 697.23 696.62 697.15 700.46 C697.13 702.9 697.12 705.33 697.11 707.77 C697.08 708.92 697.05 710.07 697.02 711.25 C696.9 717.01 696.9 717.01 699.67 721.75 C701.73 723.04 703.78 724.03 706 725 C706.82 725.59 707.64 726.17 708.48 726.78 C719.16 733.5 732.24 731.78 744.38 731.69 C790.29 731.54 790.29 731.54 806 747 C812.21 754.24 816.14 763.56 817.62 772.94 C816.78 783.77 811.16 795.62 802.97 802.77 C791.83 810.73 779.09 814.26 765.58 814.38 C764.11 814.4 764.11 814.4 762.6 814.43 C759.49 814.48 756.37 814.52 753.25 814.56 C729.86 813.99 729.86 813.99 707.81 820.31 C706.55 820.9 706.55 820.9 705.26 821.5 C700.87 823.34 700.87 823.34 698.17 826.96 C697.89 830.35 699.71 832.39 701.5 835.19 C701.87 835.76 702.23 836.34 702.61 836.93 C705.79 841.83 709.13 846.61 713 851 C713.43 851.57 713.86 852.13 714.3 852.72 C716.8 855.7 718.77 857.7 722.63 858.63 C725.8 858.85 728.9 858.86 732.07 858.8 C734.46 858.83 736.84 858.86 739.22 858.89 C742.95 858.89 746.68 858.88 750.41 858.85 C775.61 858.77 775.61 858.77 783.92 866.63 C784.61 867.41 785.29 868.19 786 869 C786.76 869.79 787.51 870.57 788.29 871.38 C802 886.19 810.74 914.05 811.06 933.88 C809.42 943.28 802.33 952.21 795 958 C782.89 966.21 773.3 968.45 758.78 968.34 C757.24 968.34 755.69 968.34 754.15 968.34 C749.92 968.34 745.69 968.32 741.47 968.3 C736.9 968.28 732.34 968.28 727.77 968.28 C719.87 968.27 711.97 968.25 704.06 968.23 C691.56 968.19 679.07 968.19 666.57 968.19 C662.3 968.18 658.02 968.18 653.74 968.18 C652.67 968.18 651.6 968.18 650.5 968.18 C638.34 968.18 626.18 968.17 614.03 968.16 C612.36 968.16 612.36 968.16 610.66 968.16 C592.64 968.14 574.63 968.1 556.61 968.05 C538.11 968 519.6 967.99 501.1 968.01 C489.69 968.02 478.28 968 466.87 967.94 C459.05 967.9 451.24 967.9 443.42 967.92 C438.91 967.94 434.4 967.93 429.89 967.89 C425.76 967.85 421.63 967.86 417.5 967.89 C416.01 967.9 414.52 967.89 413.02 967.86 C404.65 967.65 404.65 967.65 397.2 970.94 C394.94 973.19 392.97 975.5 391 978 C389.7 979.27 388.4 980.54 387.1 981.81 C384.97 985.2 384.9 987.52 385.62 991.33 C386.91 996.67 388.67 1001.86 390.44 1007.06 C391.02 1008.88 391.6 1010.7 392.18 1012.52 C393.73 1017.37 395.33 1022.19 397 1027 C397.25 1027.75 397.5 1028.51 397.76 1029.28 C399.3 1033.83 399.3 1033.83 402.85 1036.95 C412.33 1040.21 421.82 1041.93 431.76 1043.14 C432.83 1043.27 432.83 1043.27 433.92 1043.4 C451.1 1045.46 468.22 1045.57 485.5 1045.52 C490.08 1045.51 494.66 1045.53 499.23 1045.54 C508.15 1045.56 517.06 1045.55 525.98 1045.54 C533.24 1045.53 540.49 1045.53 547.75 1045.54 C548.79 1045.54 549.84 1045.54 550.91 1045.54 C553.02 1045.54 555.14 1045.54 557.26 1045.54 C577.01 1045.55 596.75 1045.54 616.5 1045.52 C633.38 1045.5 650.25 1045.5 667.12 1045.52 C686.81 1045.54 706.5 1045.55 726.19 1045.54 C728.3 1045.54 730.41 1045.54 732.51 1045.54 C733.55 1045.53 734.59 1045.53 735.65 1045.53 C742.89 1045.53 750.12 1045.54 757.36 1045.55 C766.19 1045.56 775.03 1045.55 783.87 1045.53 C788.36 1045.52 792.85 1045.52 797.35 1045.53 C840.65 1047.53 840.65 1047.53 879.59 1033.66 C881.18 1031.79 881.79 1030.3 882.52 1027.96 C882.77 1027.15 883.03 1026.34 883.3 1025.51 C883.56 1024.64 883.83 1023.77 884.1 1022.88 C884.38 1021.98 884.67 1021.09 884.96 1020.16 C885.85 1017.3 886.74 1014.43 887.62 1011.56 C888.23 1009.63 888.83 1007.71 889.44 1005.78 C890.54 1002.24 891.65 998.71 892.74 995.17 C892.96 994.46 893.18 993.75 893.41 993.02 C894.51 989.28 895.13 986.03 895.14 982.1 C895.15 980.62 895.15 980.62 895.16 979.1 C895.16 978.01 895.16 976.92 895.16 975.79 C895.16 974.63 895.17 973.47 895.17 972.27 C895.19 969.02 895.2 965.78 895.2 962.54 C895.21 959.01 895.23 955.49 895.24 951.96 C895.26 944.97 895.28 937.97 895.3 930.97 C895.32 925.15 895.33 919.33 895.35 913.51 C895.56 849.2 895.67 784.89 895.75 720.59 C895.76 711.26 895.78 701.93 895.79 692.61 C895.79 691.06 895.79 691.06 895.79 689.48 C895.84 656.16 895.93 622.83 896.05 589.51 C896.17 555.21 896.24 520.91 896.26 486.61 C896.27 481.75 896.27 476.89 896.27 472.03 C896.27 470.6 896.27 470.6 896.27 469.14 C896.29 453.83 896.34 438.53 896.42 423.22 C896.49 407.79 896.52 392.35 896.5 376.91 C896.48 368.57 896.49 360.23 896.56 351.89 C896.85 315.9 895.49 282.96 882 249 C881.67 248.05 881.34 247.09 881 246.11 C880.11 243.67 880.11 243.67 877.03 242.5 C868.29 239.78 859.79 237.77 850.67 236.72 C849.98 236.64 849.28 236.56 848.57 236.48 C826.15 233.94 803.49 234.36 780.97 234.42 C774.52 234.44 768.07 234.42 761.62 234.38 C756.61 234.36 751.6 234.36 746.58 234.37 C744.2 234.37 741.82 234.36 739.44 234.35 C736.14 234.33 732.84 234.35 729.54 234.37 C728.57 234.36 727.6 234.35 726.6 234.33 C720.13 234.42 716.82 235.61 712 240 Z M719 402 C704.56 428.41 704.56 428.41 697.79 456.98 C697.77 458 697.75 459.03 697.73 460.08 C697.72 461.2 697.71 462.32 697.69 463.48 C697.68 464.65 697.66 465.82 697.64 467.03 C697.4 489.89 697.44 512.76 699.8 535.52 C700.02 537.62 700.21 539.72 700.38 541.82 C700.93 552.44 700.93 552.44 705.47 561.69 C709.82 565.31 714.77 567.87 720.5 568.1 C724.62 566.29 727.45 563.7 730 560 C731.13 556.65 731.36 553.39 731.56 549.88 C731.68 548.38 731.68 548.38 731.8 546.86 C732.05 543.57 732.25 540.29 732.44 537 C732.59 534.69 732.74 532.37 732.9 530.06 C736.83 477.48 736.83 477.48 727.96 426 C726.99 422.95 726.12 419.89 725.27 416.8 C723.97 412.15 722.67 407.54 721 403 C720.34 402.67 719.68 402.34 719 402 Z M1017 436 C1015.63 437.01 1014.26 438.02 1012.88 439.02 C1006.99 443.35 1001.4 448.07 996 453 C998.33 455.41 1000.66 457.71 1003.21 459.88 C1017.23 471.87 1027.12 487.72 1033.73 504.86 C1036.65 509.79 1042.12 510.75 1047.31 512.19 C1066.02 517.75 1081.47 527.24 1091.94 544.12 C1094.47 547.65 1097.48 550.17 1100.76 552.98 C1103.32 555.29 1105.44 557.77 1107.61 560.43 C1109.14 562.25 1109.14 562.25 1111.94 564.31 C1122.72 573.07 1127.13 587.6 1130.31 600.62 C1130.47 601.27 1130.63 601.91 1130.8 602.57 C1137.06 630.39 1135.31 663.42 1132.25 691.56 C1132.17 692.35 1132.08 693.13 1131.99 693.94 C1129.66 714.93 1126.81 735.47 1109.86 750.01 C1106.22 752.54 1102.39 754.46 1098.44 756.44 C1089.02 761.18 1083.03 766.54 1079.04 776.48 C1072.65 791.91 1064.64 800.33 1049.52 806.96 C1041.58 810.24 1033.44 812.99 1025.33 815.82 C1019.69 817.82 1014.1 819.9 1008.5 822 C1007.46 822.39 1006.42 822.77 1005.35 823.17 C1004.4 823.53 1003.45 823.88 1002.47 824.25 C1001.63 824.56 1000.79 824.88 999.92 825.2 C998.03 825.85 998.03 825.85 997 827 C996.84 829.03 996.75 831.07 996.68 833.11 C996.64 834.39 996.6 835.67 996.56 837 C996.52 838.39 996.48 839.79 996.44 841.19 C996.39 842.6 996.35 844.01 996.31 845.41 C995.97 856.94 995.89 868.47 996 880 C1019.71 890.19 1040.81 895.27 1066.42 895.91 C1085.97 896.4 1102.88 897.27 1117.81 911.58 C1121.27 915.4 1123.79 919.35 1126 924 C1126.39 924.79 1126.77 925.58 1127.17 926.4 C1130.58 935.01 1127.11 942.1 1123.63 950.18 C1117.06 964.14 1107.7 973.7 1093 979 C1091.37 979.33 1089.72 979.61 1088.07 979.84 C1087.12 979.97 1086.17 980.1 1085.19 980.24 C1083.67 980.45 1083.67 980.45 1082.12 980.66 C1079.96 980.96 1077.8 981.26 1075.64 981.57 C1072.25 982.04 1068.85 982.5 1065.46 982.97 C1062.18 983.42 1058.9 983.88 1055.62 984.34 C1054.09 984.55 1054.09 984.55 1052.53 984.76 C1051.59 984.89 1050.64 985.02 1049.67 985.16 C1048.84 985.28 1048.01 985.39 1047.15 985.51 C1044.72 985.93 1044.72 985.93 1042 988 C1042 988.66 1042 989.32 1042 990 C1041.34 990 1040.68 990 1040 990 C1039.29 991.69 1039.29 991.69 1038.57 993.41 C1030.61 1012.03 1021.32 1025.69 1007 1040 C1023.56 1043.43 1040.27 1045.35 1057.09 1047.01 C1057.97 1047.1 1058.86 1047.18 1059.77 1047.27 C1064.22 1047.71 1068.67 1048.14 1073.12 1048.55 C1090.07 1050.17 1106.2 1052.2 1118 1066 C1123.5 1074.04 1130.51 1084.9 1129.79 1094.91 C1126.49 1107.83 1119.22 1117.31 1108.17 1124.32 C1106.6 1125.15 1106.6 1125.15 1105 1126 C1104.42 1126.32 1103.84 1126.65 1103.24 1126.98 C1094.11 1131.34 1084.04 1131.21 1074.12 1131.74 C1072.52 1131.83 1072.52 1131.83 1070.89 1131.92 C1039.61 1133.66 1008.29 1133.34 976.98 1133.25 C967.12 1133.22 957.26 1133.22 947.4 1133.23 C943.7 1133.23 939.99 1133.23 936.29 1133.23 C934.91 1133.23 934.91 1133.23 933.49 1133.23 C923.09 1133.23 912.69 1133.22 902.29 1133.21 C900.87 1133.21 900.87 1133.21 899.42 1133.21 C883.99 1133.2 868.56 1133.16 853.12 1133.13 C837.17 1133.09 821.21 1133.08 805.26 1133.1 C795.47 1133.11 785.68 1133.1 775.89 1133.05 C769.21 1133.02 762.52 1133.02 755.84 1133.04 C751.99 1133.05 748.14 1133.05 744.3 1133.01 C722.69 1132.45 722.69 1132.45 704 1142 C702.02 1143.37 700.01 1144.68 698 1146 C698.13 1147.08 698.25 1148.17 698.38 1149.28 C699.21 1156.54 700.01 1163.79 700.6 1171.07 C700.85 1174.17 701.14 1177.26 701.42 1180.35 C701.56 1181.93 701.68 1183.5 701.8 1185.08 C702.25 1195.7 702.25 1195.7 707.71 1204.33 C709.67 1205.75 709.67 1205.75 712 1207 C713.05 1207.68 714.1 1208.35 715.18 1209.05 C719 1211.22 722.09 1211.5 726.52 1211.51 C727.25 1211.51 727.97 1211.52 728.72 1211.52 C731.16 1211.54 733.59 1211.53 736.02 1211.51 C737.79 1211.52 739.55 1211.53 741.32 1211.54 C746.17 1211.55 751.01 1211.55 755.86 1211.54 C761.09 1211.53 766.32 1211.55 771.56 1211.56 C781.81 1211.58 792.07 1211.58 802.32 1211.57 C810.67 1211.57 819.03 1211.57 827.38 1211.57 C828.57 1211.58 829.76 1211.58 830.98 1211.58 C833.4 1211.58 835.82 1211.58 838.24 1211.58 C860.93 1211.6 883.63 1211.59 906.32 1211.57 C927 1211.56 947.69 1211.57 968.37 1211.6 C989.65 1211.63 1010.93 1211.64 1032.22 1211.63 C1034.64 1211.63 1037.05 1211.63 1039.47 1211.63 C1040.66 1211.63 1041.85 1211.63 1043.08 1211.63 C1051.39 1211.63 1059.7 1211.64 1068.01 1211.65 C1078.18 1211.67 1088.36 1211.67 1098.54 1211.65 C1103.71 1211.63 1108.89 1211.63 1114.06 1211.65 C1159.59 1213.67 1159.59 1213.67 1202.5 1202.55 C1204.95 1198.39 1205.38 1193.98 1206.06 1189.25 C1206.28 1187.86 1206.28 1187.86 1206.51 1186.45 C1206.93 1183.7 1207.32 1180.96 1207.69 1178.21 C1207.91 1176.68 1208.13 1175.15 1208.36 1173.62 C1210.81 1157.26 1211.44 1141.21 1211.4 1124.68 C1211.4 1121.1 1211.41 1117.51 1211.42 1113.92 C1211.44 1107.66 1211.44 1101.4 1211.44 1095.14 C1211.43 1085.83 1211.45 1076.52 1211.46 1067.21 C1211.49 1049.61 1211.5 1032.01 1211.5 1014.42 C1211.5 1000.83 1211.51 987.25 1211.52 973.66 C1211.52 969.74 1211.52 965.83 1211.53 961.91 C1211.53 960.93 1211.53 959.96 1211.53 958.95 C1211.55 931.58 1211.56 904.21 1211.56 876.84 C1211.56 875.3 1211.56 875.3 1211.56 873.72 C1211.56 868.5 1211.56 863.28 1211.56 858.06 C1211.56 857.03 1211.56 855.99 1211.56 854.92 C1211.56 852.82 1211.56 850.73 1211.56 848.63 C1211.55 815.97 1211.58 783.32 1211.62 750.66 C1211.66 713.93 1211.69 677.2 1211.69 640.48 C1211.69 636.56 1211.69 632.65 1211.69 628.73 C1211.69 627.77 1211.69 626.8 1211.69 625.81 C1211.69 610.3 1211.71 594.8 1211.73 579.29 C1211.76 563.72 1211.76 548.15 1211.74 532.57 C1211.73 523.33 1211.73 514.08 1211.76 504.83 C1211.78 498.65 1211.78 492.47 1211.76 486.29 C1211.74 482.77 1211.74 479.25 1211.77 475.73 C1211.79 471.93 1211.77 468.14 1211.75 464.34 C1211.76 463.26 1211.78 462.17 1211.79 461.05 C1211.68 452.83 1209.09 447.05 1205 440 C1204.66 439.33 1204.31 438.67 1203.96 437.98 C1202.3 435.02 1201.18 434.06 1197.95 432.93 C1196.12 432.69 1196.12 432.69 1194.25 432.44 C1192.82 432.22 1191.39 432 1189.96 431.77 C1189.18 431.66 1188.39 431.54 1187.58 431.42 C1182.65 430.62 1177.77 429.58 1172.88 428.56 C1171.91 428.37 1170.95 428.18 1169.95 427.98 C1161.92 426.32 1161.92 426.32 1158.2 425.02 C1146.59 421.03 1134.94 421.23 1122.78 421.12 C1121.63 421.1 1120.48 421.09 1119.29 421.08 C1113.2 421 1107.1 420.96 1101.01 420.93 C1094.78 420.9 1088.55 420.78 1082.33 420.64 C1077.48 420.55 1072.63 420.53 1067.78 420.52 C1065.48 420.5 1063.19 420.46 1060.9 420.4 C1042.53 419.92 1031.48 424.9 1017 436 Z M1014 636 C1013.43 636.52 1012.86 637.04 1012.27 637.58 C1010.78 638.93 1010.78 638.93 1011 641 C1010.34 641 1009.68 641 1009 641 C1007.87 643.35 1006.74 645.71 1005.62 648.06 C1005.31 648.72 1004.99 649.38 1004.66 650.05 C1000.41 658.73 1000.41 658.73 1000 668 C1008.54 678.24 1024.35 679.57 1036.84 680.74 C1037.89 680.82 1038.93 680.91 1040 681 C1041.13 679.44 1042.25 677.88 1043.38 676.31 C1044 675.44 1044.63 674.57 1045.27 673.68 C1048.45 668.76 1049.32 665.72 1048.24 659.91 C1048.03 658.74 1047.82 657.57 1047.6 656.36 C1047.36 655.13 1047.12 653.9 1046.88 652.62 C1046.64 651.37 1046.41 650.12 1046.17 648.83 C1044.5 640.1 1042.59 631.5 1040 623 C1030.95 623 1020.31 630.13 1014 636 Z " fill="#000002" transform="translate(0,0)"/>
<path d="M0 0 C10.79 7.71 15.86 18.04 20 30.38 C24.9 44.06 30.46 55.69 43.25 63.25 C62.42 77.58 71.28 102.91 75.69 125.44 C78.79 141.38 78.79 141.38 89.25 153.25 C91 154.23 92.77 155.16 94.56 156.06 C115.73 167.54 122.69 191.2 129.39 212.94 C134.67 231.03 137.61 248.31 138.78 267.07 C139.37 276.47 140.23 284.81 143.63 293.67 C144.25 296.25 144.25 296.25 143.45 298.46 C143.06 299.05 142.66 299.64 142.25 300.25 C141.76 301.01 141.27 301.77 140.77 302.55 C128.11 320.73 113.58 329.34 92.12 334.79 C88.2 335.42 84.36 335.4 80.39 335.4 C79.5 335.4 78.6 335.4 77.68 335.41 C74.69 335.42 71.69 335.42 68.69 335.43 C66.55 335.43 64.4 335.44 62.25 335.45 C55.17 335.47 48.1 335.48 41.02 335.49 C38.57 335.49 36.12 335.5 33.67 335.5 C22.13 335.52 10.58 335.53 -0.96 335.54 C-14.19 335.55 -27.42 335.58 -40.64 335.62 C-50.92 335.65 -61.19 335.66 -71.47 335.67 C-77.58 335.67 -83.69 335.68 -89.79 335.7 C-113.09 335.8 -136.24 335.63 -159.45 333.47 C-160.32 333.4 -161.19 333.32 -162.09 333.24 C-177.43 331.83 -191.64 328.24 -202.56 316.5 C-214.9 301.33 -214.07 285.1 -214.65 266.47 C-214.71 264.39 -214.79 262.32 -214.87 260.25 C-215.5 244.5 -213.14 234.22 -203.75 221.25 C-203.09 220.26 -202.43 219.27 -201.75 218.25 C-201.09 218.25 -200.43 218.25 -199.75 218.25 C-199.75 217.59 -199.75 216.93 -199.75 216.25 C-195.12 212.34 -190.16 209.35 -184.56 207.06 C-178.16 203.93 -175.63 198.56 -172.75 192.25 C-171.4 187.86 -170.43 183.46 -169.57 178.95 C-168.91 175.51 -168.17 172.09 -167.43 168.66 C-167.28 168 -167.14 167.34 -166.99 166.66 C-165.4 159.42 -163.05 152.91 -159.75 146.25 C-159.42 145.56 -159.08 144.88 -158.74 144.17 C-151.93 130.19 -143.62 115.78 -128.61 109.33 C-120.72 104.75 -117.16 90.45 -114.75 82.25 C-114.06 79.45 -113.43 76.63 -112.81 73.81 C-110.12 61.69 -106.35 50.52 -97.75 41.25 C-97.17 40.6 -96.59 39.96 -96 39.29 C-93.29 36.41 -90.78 34.12 -87.25 32.31 C-83.43 30.33 -81.09 27.48 -78.37 24.19 C-76.31 21.72 -74.02 19.52 -71.75 17.25 C-70.69 15.96 -69.62 14.67 -68.56 13.38 C-51.76 -5.81 -21.82 -13.49 0 0 Z M-20.75 133.25 C-25.43 136.36 -27.17 139.78 -29.12 144.88 C-31.91 151.66 -35.14 157.5 -39.75 163.25 C-40.52 164.24 -41.3 165.23 -42.1 166.25 C-48.9 174.33 -58.78 179.13 -68.46 182.87 C-73.64 184.9 -73.64 184.9 -76.75 189.25 C-77.12 194.75 -76.59 200.01 -75.69 205.44 C-75.6 206.12 -75.52 206.81 -75.43 207.51 C-74.76 211.49 -73.8 213.21 -70.85 215.98 C-66.01 218.98 -60.65 220.65 -55.25 222.38 C-54.19 222.72 -53.12 223.07 -52.03 223.42 C-41.24 226.85 -30.18 230.2 -18.75 229.25 C-17.76 228.59 -16.77 227.93 -15.75 227.25 C-15.75 226.59 -15.75 225.93 -15.75 225.25 C-14.76 224.92 -13.77 224.59 -12.75 224.25 C-7.58 217.81 -4.87 210.42 -2.69 202.56 C-2.46 201.78 -2.23 201 -2 200.19 C-0.49 194.29 -0.97 190.02 -2.75 184.25 C-3.03 183.32 -3.31 182.4 -3.59 181.44 C-4.56 178.29 -5.56 175.14 -6.56 172 C-9.52 162.67 -12.1 153.37 -13.94 143.75 C-14.81 139.59 -15.26 137.72 -18.39 134.68 C-19.56 133.97 -19.56 133.97 -20.75 133.25 Z " fill="#000002" transform="translate(366.75,155.75)"/>
<path d="M0 0 C2.14 -0.01 4.27 -0.02 6.41 -0.03 C13.39 -0.07 20.37 -0.1 27.35 -0.12 C28.54 -0.12 29.73 -0.13 30.96 -0.13 C42.23 -0.17 53.49 -0.2 64.76 -0.22 C79.11 -0.25 93.46 -0.3 107.81 -0.38 C117.93 -0.44 128.05 -0.47 138.17 -0.47 C144.2 -0.48 150.23 -0.5 156.26 -0.55 C161.94 -0.59 167.62 -0.6 173.31 -0.59 C175.38 -0.59 177.44 -0.6 179.51 -0.62 C201.6 -0.88 222.58 4.91 239.1 20.31 C247.74 29.55 247.74 29.55 248.07 35.4 C247.88 39.43 247.21 43.17 246.28 47.07 C246.11 47.81 245.94 48.54 245.77 49.3 C245.41 50.84 245.05 52.39 244.69 53.94 C244.15 56.25 243.61 58.57 243.08 60.89 C242.06 65.35 240.98 69.79 239.89 74.22 C239.73 74.9 239.56 75.57 239.4 76.27 C237.59 83.65 236.08 89.31 230.64 94.72 C230.15 95.22 229.66 95.71 229.16 96.21 C227.76 97.58 226.33 98.91 224.89 100.22 C224.25 100.82 223.61 101.41 222.96 102.02 C213.8 109.6 201.34 115.37 189.57 115.39 C188.71 115.39 187.85 115.4 186.97 115.4 C184.08 115.42 181.18 115.42 178.29 115.43 C176.22 115.44 174.15 115.45 172.08 115.46 C165.26 115.49 158.44 115.51 151.61 115.53 C150.45 115.54 149.28 115.54 148.08 115.54 C137.06 115.57 126.04 115.6 115.02 115.62 C100.99 115.64 86.97 115.68 72.95 115.75 C63.05 115.8 53.16 115.82 43.27 115.83 C37.38 115.83 31.49 115.85 25.61 115.89 C-1.55 116.07 -27.54 115.19 -54.11 109.22 C-54.81 109.07 -55.52 108.92 -56.24 108.76 C-58.41 108.29 -60.56 107.79 -62.72 107.29 C-63.99 107 -65.26 106.7 -66.57 106.4 C-72.59 104.4 -76.74 100.7 -81.11 96.22 C-81.71 95.67 -82.32 95.11 -82.94 94.53 C-93.88 82.65 -94.63 57.39 -97.11 42.22 C-97.27 41.36 -97.42 40.5 -97.58 39.62 C-98.36 34.58 -98.12 31.91 -95.05 27.6 C-94.39 26.67 -93.74 25.75 -93.06 24.79 C-92.42 23.95 -91.77 23.1 -91.11 22.22 C-90.63 21.56 -90.15 20.9 -89.66 20.22 C-83.85 12.78 -74.52 6.18 -65.21 4.53 C-63.75 4.37 -62.28 4.23 -60.82 4.09 C-60.03 4.01 -59.24 3.93 -58.43 3.84 C-55.93 3.58 -53.43 3.34 -50.92 3.1 C-49.26 2.93 -47.6 2.76 -45.94 2.59 C-42.14 2.2 -38.33 1.81 -34.53 1.46 C-33.02 1.31 -31.51 1.15 -30 0.97 C-20.03 -0.13 -10.01 0.04 0 0 Z " fill="#000002" transform="translate(256.11083984375,685.775390625)"/>
<path d="M0 0 C6.07 0.01 12.15 0 18.22 -0.01 C28.37 -0.02 38.53 -0 48.68 0.02 C60.36 0.05 72.05 0.04 83.74 0.01 C93.87 -0.01 104.01 -0.02 114.14 -0 C120.15 0.01 126.16 0.01 132.18 -0.01 C137.8 -0.02 143.43 -0.01 149.06 0.01 C151.11 0.02 153.15 0.02 155.2 0.01 C167.99 -0.05 178.81 1.36 190.87 5.67 C191.84 5.99 192.81 6.31 193.81 6.65 C206.72 10.99 216.93 20.49 224.55 31.48 C226.65 34.67 226.65 34.67 229.24 36.55 C231.76 38.59 233.72 40.63 235.8 43.11 C236.43 43.85 237.06 44.59 237.71 45.36 C238.87 47.67 238.87 47.67 238.33 50.18 C236.69 52.97 234.9 54.93 232.55 57.17 C231.74 57.95 230.93 58.74 230.1 59.54 C229.36 60.25 228.63 60.95 227.87 61.67 C227.02 62.52 226.17 63.36 225.3 64.23 C224.1 65.44 224.1 65.44 222.87 66.67 C222.3 67.29 221.73 67.9 221.14 68.54 C211.51 78.7 200.1 83.01 186.87 86.67 C185.94 86.93 185.01 87.19 184.06 87.45 C173.29 90.1 162.87 90.1 151.84 90.06 C149.75 90.06 147.66 90.07 145.56 90.08 C139.91 90.09 134.26 90.08 128.61 90.07 C122.64 90.07 116.67 90.07 110.7 90.08 C100.65 90.08 90.6 90.08 80.55 90.06 C69.05 90.05 57.54 90.05 46.04 90.07 C36.08 90.08 26.12 90.08 16.17 90.08 C10.26 90.07 4.35 90.07 -1.56 90.08 C-24.31 90.11 -46.97 89.91 -69.67 88.27 C-70.97 88.18 -70.97 88.18 -72.31 88.08 C-91.04 86.7 -108.94 84.72 -122.13 69.67 C-124.47 66.48 -126.35 63.2 -128.13 59.67 C-128.58 58.86 -129.03 58.04 -129.49 57.2 C-131.75 52.57 -132.49 49.35 -131.26 44.3 C-130.61 42.4 -129.9 40.53 -129.13 38.67 C-128.73 37.68 -128.32 36.68 -127.9 35.66 C-121.91 22.52 -111.86 12.7 -98.69 6.87 C-90.97 4.27 -82.81 3.71 -74.74 2.9 C-73.74 2.8 -72.75 2.69 -71.72 2.58 C-47.83 0.11 -23.99 -0.07 0 0 Z " fill="#000002" transform="translate(282.1344721317291,564.3283724784851)"/>
<path d="M0 0 C33.57 0 33.57 0 46.88 11.94 C53.32 18.8 59.37 28.6 61 38 C60.28 40.65 59.49 43.08 58.5 45.62 C58.23 46.34 57.96 47.05 57.68 47.78 C55.26 53.83 52.13 58.95 48 64 C47.22 64.98 46.44 65.96 45.63 66.97 C40.6 72.91 36.27 75.47 29 79 C19.43 79 9.86 79 0 79 C0 52.93 0 26.86 0 0 Z " fill="#000002" transform="translate(0,416)"/>
</svg>
