<?xml version="1.0" encoding="UTF-8"?>
<svg version="1.1" viewBox="0 0 1600 1600" width="1280" height="1280" xmlns="http://www.w3.org/2000/svg">
<path transform="translate(563,129)" d="m0 0c1.07 0.36 2.14 0.721 3.25 1.09 31.9 10.9 62.9 25.8 90.9 44.7 1.33 0.895 2.67 1.78 4 2.67 10.9 7.19 21.2 14.8 31.2 23.2 2.25 1.87 4.56 3.66 6.87 5.46 5.65 4.51 10.9 9.46 16.2 14.4 2.15 2 4.31 3.97 6.48 5.94 6.75 6.15 13.2 12.4 19.2 19.3 1.91 2.18 3.87 4.29 5.85 6.41 6 6.43 11.5 13.2 16.8 20.2 1.23 1.6 2.48 3.19 3.74 4.78 10.3 13.2 20 26.9 28.6 41.3 0.956 1.59 1.98 3.14 3.02 4.67h2c1.52-2.24 2.93-4.49 4.31-6.81 14.4-23.6 31.1-45.8 49.8-66.1 1.32-1.47 2.58-2.98 3.8-4.53 2.21-2.71 4.57-5.1 7.07-7.55 1.02-1.03 2.04-2.06 3.05-3.09 5.15-5.2 10.3-10.4 15.9-15.1 2.18-1.88 4.29-3.83 6.4-5.79 5.69-5.29 11.5-10.3 17.7-15 1.06-0.813 1.06-0.813 2.14-1.64 10.7-8.18 21.5-16.1 32.9-23.4 0.671-0.427 1.34-0.854 2.03-1.29 46.8-29.6 98.6-50.3 153-59.3 1.69-0.277 3.38-0.561 5.07-0.854 11.9-2.06 23.8-3.05 35.9-3.76 0.71-0.0429 1.42-0.0858 2.15-0.13 58.5-3.45 117 6.35 171 27.5 1.98 0.77 3.97 1.52 5.96 2.28 8.53 3.26 16.7 7.12 24.7 11.3 2.56 1.32 5.14 2.62 7.71 3.92 28.8 14.6 54.9 32.6 79.6 53.3 1 0.829 2 1.66 3.03 2.51 8.83 7.4 17.1 15.3 25.2 23.5 2.09 2.1 4.18 4.18 6.28 6.27 7.29 7.28 14.1 14.6 20.5 22.8 1.11 1.35 2.22 2.7 3.34 4.05 60.1 73 94.4 161 108 266 0.0879 0.706 0.176 1.41 0.266 2.14 1.63 13.1 2.13 26.1 2.11 39.3-2.11e-4 1.02-4.23e-4 2.03-6.41e-4 3.08-0.0399 19.4-1.52 38.3-4.37 57.5-0.099 0.674-0.198 1.35-0.3 2.04-2.53 17.1-5.63 34.1-9.7 51-0.351 1.46-0.351 1.46-0.708 2.95-10 40.9-26 80.2-44.3 118-0.504 1.05-1.01 2.09-1.53 3.17-7.24 15-15.1 29.5-23.5 43.8-0.978 1.68-0.978 1.68-1.98 3.4-15.2 26-31.6 51.3-49.5 75.6-1.61 2.19-3.19 4.4-4.77 6.61-6.26 8.75-12.7 17.3-19.4 25.7-1.34 1.69-2.68 3.39-4.01 5.09-6.51 8.34-13.1 16.6-19.8 24.8-1.34 1.64-2.66 3.28-3.99 4.93-4.27 5.27-8.68 10.4-13.3 15.4-2.27 2.55-4.41 5.17-6.55 7.83-4.41 5.46-9.13 10.6-13.9 15.7-2.09 2.25-4.14 4.53-6.14 6.86-3.93 4.54-8.05 8.9-12.2 13.3-2.85 3.04-5.7 6.09-8.51 9.17-6.07 6.65-12.3 13.1-18.7 19.4-3.79 3.76-7.42 7.6-10.9 11.7-2.01 2.35-4.08 4.5-6.36 6.59h-2v2c-1.28 1.25-1.28 1.25-3.16 2.78-3.94 3.35-7.61 6.9-11.2 10.6-0.573 0.576-1.15 1.15-1.74 1.75-1.79 1.8-3.57 3.61-5.36 5.41-14 14.2-14 14.2-19.9 19.1-1.8 1.55-3.46 3.2-5.12 4.9-3.04 3.09-6.25 5.92-9.53 8.75-1.9 1.69-3.69 3.44-5.47 5.25-2.99 3.03-6.11 5.84-9.33 8.62-2.42 2.1-4.79 4.24-7.17 6.38-2.96 2.67-5.93 5.32-8.94 7.94-3.17 2.76-6.28 5.59-9.38 8.44-4.44 4.05-9.01 7.88-13.7 11.7-3.51 2.89-6.95 5.86-10.4 8.85-10.4 9.05-20.9 17.9-31.6 26.6-1.83 1.5-3.67 3-5.5 4.5-0.914 0.748-1.83 1.5-2.77 2.27-1.77 1.45-3.54 2.9-5.3 4.34-1.79 1.46-3.58 2.93-5.37 4.39-1.61 1.32-3.22 2.63-4.83 3.95-8.2 6.73-16.5 13.3-24.9 19.7-4.76 3.62-9.45 7.31-14.1 11.1-5.17 4.16-10.4 8.21-15.7 12.2-3.63 2.7-7.23 5.46-10.8 8.21-15.9 12.2-32.1 24.1-48.4 35.8-2.22 1.6-4.44 3.21-6.65 4.82-14.4 10.4-28.9 20.6-43.5 30.6-3.53 2.42-7.04 4.86-10.5 7.33-28.7 20.3-58.3 39.4-88 58.2-2.48 1.57-4.96 3.15-7.44 4.73-10.5 6.69-21.1 13.2-31.9 19.5-2.07 1.23-4.12 2.48-6.18 3.74-13.2 8.01-25.8 11.7-41.3 9.05-8.95-2.34-16.5-7.06-24.3-11.9-2.76-1.71-5.53-3.39-8.31-5.07-8.57-5.18-17.1-10.4-25.5-15.8-3.21-2.05-6.43-4.08-9.65-6.11-11-6.95-22-13.9-32.9-21.2-1.33-0.885-2.65-1.77-3.98-2.65-0.68-0.454-1.36-0.908-2.06-1.38-2.71-1.81-5.43-3.62-8.15-5.42-2.76-1.83-5.52-3.67-8.27-5.51-1.39-0.924-2.78-1.85-4.17-2.77-9.67-6.43-19.3-12.9-28.8-19.5-2.08-1.44-4.17-2.87-6.26-4.31-3.8-2.61-7.6-5.22-11.4-7.84-0.558-0.384-1.12-0.767-1.69-1.16-26.9-18.5-53.3-37.7-79.4-57.4-1.95-1.46-3.9-2.92-5.86-4.38-8.69-6.48-17.3-13.1-25.8-19.8-3.63-2.83-7.28-5.64-10.9-8.44-5.28-4.05-10.5-8.18-15.7-12.3-4.15-3.33-8.33-6.63-12.5-9.9-6.11-4.78-12.1-9.69-18.1-14.6-3.72-3.07-7.45-6.12-11.2-9.11-5.2-4.13-10.2-8.47-15.2-12.8-3.36-2.9-6.75-5.77-10.1-8.64-0.531-0.45-1.06-0.899-1.61-1.36-2.7-2.28-5.4-4.55-8.11-6.82-5.91-4.96-11.7-10-17.3-15.3-3.16-2.92-6.4-5.67-9.75-8.35-5.05-4.06-9.79-8.4-14.5-12.8-2.96-2.79-5.96-5.53-9.04-8.2-4.2-3.65-8.24-7.44-12.3-11.3-5.17-4.89-10.4-9.76-15.6-14.6-4.83-4.42-9.49-8.97-14.1-13.7-3.22-3.28-6.58-6.19-10.1-9.09-2.37-2.19-2.37-2.19-4-4v-2c-0.836-0.349-0.836-0.349-1.69-0.705-2.91-1.63-4.93-3.66-7.3-6.01-0.935-0.932-1.87-1.86-2.83-2.82-0.481-0.485-0.962-0.97-1.46-1.47-1.48-1.49-2.97-2.97-4.46-4.44-0.929-0.932-1.86-1.86-2.82-2.82-0.854-0.857-1.71-1.71-2.59-2.6-1.86-2.12-1.86-2.12-1.86-4.12-0.99-0.33-1.98-0.66-3-1-1.33-1.36-1.33-1.36-2.81-3.19-3.52-4.17-7.31-7.98-11.2-11.8-4.34-4.29-8.55-8.62-12.5-13.3-1.59-1.83-3.27-3.52-5-5.22-3.02-2.98-5.83-6.09-8.59-9.31-2.99-3.43-6.09-6.75-9.19-10.1-1.72-2.1-1.72-2.1-1.72-4.1h-2c-1.41-1.57-2.76-3.21-4.06-4.88-3.05-3.81-6.14-7.52-9.44-11.1-4.22-4.64-8.2-9.45-12.1-14.3-1.55-1.9-3.12-3.8-4.69-5.69-6.15-7.42-12.2-14.9-18-22.5-1.98-2.6-3.98-5.18-6-7.75-6.21-7.92-12.3-15.9-18.1-24.1-1.8-2.56-3.63-5.09-5.48-7.61-13.5-18.4-26.1-37.5-38.1-57l-1.74-2.83c-9.68-15.8-18.7-31.8-27.3-48.2-0.315-0.601-0.629-1.2-0.953-1.82-34.1-65.1-55.5-134-64-207-0.13-1.1-0.13-1.1-0.262-2.23-0.708-6.44-0.943-12.8-1.01-19.3-0.0187-1.64-0.0187-1.64-0.0378-3.31-0.248-27 0.836-53.2 4.97-79.9 0.334-2.17 0.657-4.34 0.976-6.51 13-87.8 49.2-176 108-243 1.46-1.69 2.9-3.39 4.33-5.1 5.59-6.65 11.4-12.9 17.6-19 2.16-2.16 4.17-4.38 6.15-6.71 2.85-3.34 5.95-6.15 9.29-8.98 2.05-1.8 3.94-3.69 5.84-5.65 4.74-4.79 9.93-8.93 15.2-13.1 1.14-0.926 2.27-1.85 3.41-2.78 22.7-18.5 47-34.3 73-47.8 2.26-1.18 4.51-2.38 6.76-3.58 35.8-18.9 76-30.5 116-36.8 0.83-0.139 1.66-0.278 2.51-0.421 12.4-2.05 24.8-3.04 37.4-3.77 0.732-0.0429 1.46-0.0858 2.22-0.13 50.7-2.9 102 4.1 150 20.3z" fill="#000002"/>
</svg>
