<svg xmlns="http://www.w3.org/2000/svg" version="1.1" xmlns:xlink="http://www.w3.org/1999/xlink" xmlns:svgjs="http://svgjs.dev/svgjs" width="40" height="30" viewBox="0 0 40 30"><g transform="matrix(1,0,0,1,-0.9090909090909918,-0.738301429543867)"><svg viewBox="0 0 396 195" data-background-color="#ffffff" preserveAspectRatio="xMidYMid meet" height="738" width="1500" xmlns="http://www.w3.org/2000/svg" xmlns:xlink="http://www.w3.org/1999/xlink"><g id="tight-bounds" transform="matrix(1,0,0,1,0.2400000000000091,0.1950796460176889)"><svg viewBox="0 0 395.52 194.60984070796462" height="194.60984070796462" width="395.52"><g><svg viewBox="0 0 395.52 194.60984070796462" height="194.60984070796462" width="395.52"><g><svg viewBox="0 0 395.52 194.60984070796462" height="194.60984070796462" width="395.52"><g id="textblocktransform"><svg viewBox="0 0 395.52 194.60984070796462" height="194.60984070796462" width="395.52" id="textblock"><g><svg viewBox="0 0 395.52 194.60984070796462" height="194.60984070796462" width="395.52"><g transform="matrix(1,0,0,1,0,0)"><svg width="395.52" viewBox="0.6549383024633031 -38.550000000000004 169.9950616975367 80.9" height="194.60984070796462" data-palette-color="#010c80"><svg></svg><svg></svg><g class="wordmark-text-0" data-fill-palette-color="primary" id="text-0"><path d="M14.35 0v0c-2.167 0-4.017-0.633-5.55-1.9-1.533-1.267-2.8-3.367-3.8-6.3v0l-3.95-11.4c-0.533-1.5-0.527-2.883 0.02-4.15 0.553-1.267 1.58-2.067 3.08-2.4v0c1.333-0.3 2.51-0.167 3.53 0.4 1.013 0.567 1.737 1.517 2.17 2.85v0l3.9 11.45c0.467 1.333 1.043 2.317 1.73 2.95 0.68 0.633 1.52 0.783 2.52 0.45v0c0.933-0.367 1.443-0.977 1.53-1.83 0.08-0.847-0.113-1.837-0.58-2.97v0c-0.4-1.033-0.933-1.917-1.6-2.65-0.667-0.733-1.267-1.5-1.8-2.3-0.533-0.8-0.8-1.8-0.8-3v0c0-1.733 0.56-3.093 1.68-4.08 1.113-0.98 2.587-1.437 4.42-1.37v0c1.567 0.033 2.85 0.583 3.85 1.65 1 1.067 1.5 2.417 1.5 4.05v0c0 0.9-0.15 1.867-0.45 2.9-0.3 1.033-0.633 2.117-1 3.25v0l-2 6.3c-0.533 1.667-1.123 3.107-1.77 4.32-0.653 1.22-1.487 2.153-2.5 2.8-1.02 0.653-2.397 0.98-4.13 0.98zM40.8 0.1v0c-3.9 0-7.007-1.16-9.32-3.48-2.32-2.313-3.48-5.587-3.48-9.82v0c0-2.6 0.533-4.883 1.6-6.85 1.067-1.967 2.56-3.51 4.48-4.63 1.913-1.113 4.153-1.67 6.72-1.67v0c2.867 0 5.25 0.557 7.15 1.67 1.9 1.12 3.327 2.663 4.28 4.63 0.947 1.967 1.42 4.25 1.42 6.85v0c0 4.233-1.057 7.507-3.17 9.82-2.12 2.32-5.347 3.48-9.68 3.48zM33.95-14.05v0c0 1.033 0.517 1.757 1.55 2.17 1.033 0.42 2.8 0.63 5.3 0.63v0c2.5 0 4.267-0.21 5.3-0.63 1.033-0.413 1.55-1.137 1.55-2.17v0c0-1-0.517-1.7-1.55-2.1-1.033-0.4-2.8-0.6-5.3-0.6v0c-2.5 0-4.267 0.2-5.3 0.6-1.033 0.4-1.55 1.1-1.55 2.1zM68.95 0.15v0c-2.6 0-4.9-0.543-6.9-1.63-2-1.08-3.567-2.62-4.7-4.62-1.133-2-1.7-4.35-1.7-7.05v0c0-2.7 0.567-5.05 1.7-7.05 1.133-2 2.71-3.55 4.73-4.65 2.013-1.1 4.337-1.65 6.97-1.65v0c2.067 0 3.893 0.217 5.48 0.65 1.58 0.433 2.83 1.083 3.75 1.95 0.913 0.867 1.37 1.95 1.37 3.25v0c0 1.567-0.4 2.79-1.2 3.67-0.8 0.887-1.95 1.33-3.45 1.33v0c-1 0-1.99-0.15-2.97-0.45-0.987-0.3-2.247-0.45-3.78-0.45v0c-1.267 0-2.333 0.2-3.2 0.6-0.867 0.4-1.3 1.133-1.3 2.2v0c0 1.1 0.433 1.89 1.3 2.37 0.867 0.487 1.933 0.73 3.2 0.73v0c1.033 0 1.9-0.1 2.6-0.3 0.7-0.2 1.367-0.4 2-0.6 0.633-0.2 1.35-0.3 2.15-0.3v0c1.7 0 2.96 0.49 3.78 1.47 0.813 0.987 1.22 2.247 1.22 3.78v0c0 1.3-0.483 2.457-1.45 3.47-0.967 1.02-2.283 1.82-3.95 2.4-1.667 0.587-3.55 0.88-5.65 0.88zM89.4 0v0c-2.467 0-4.39-0.667-5.77-2-1.387-1.333-2.08-3.2-2.08-5.6v0c0-2.4 0.8-4.143 2.4-5.23 1.6-1.08 3.65-1.62 6.15-1.62v0c1.467 0 2.8 0.1 4 0.3 1.2 0.2 2.283 0.483 3.25 0.85v0h0.15v-0.75c0-0.767-0.283-1.377-0.85-1.83-0.567-0.447-1.283-0.653-2.15-0.62v0c-0.833 0-1.54 0.05-2.12 0.15-0.587 0.1-1.313 0.267-2.18 0.5v0c-1.6 0.4-2.983 0.367-4.15-0.1-1.167-0.467-1.967-1.383-2.4-2.75v0c-0.4-1.433-0.307-2.633 0.28-3.6 0.58-0.967 1.47-1.717 2.67-2.25v0c1.033-0.5 2.193-0.917 3.48-1.25 1.28-0.333 2.67-0.5 4.17-0.5v0c4.367 0 7.577 1.057 9.63 3.17 2.047 2.12 3.07 5.663 3.07 10.63v0 7.75c0 1.367-0.417 2.5-1.25 3.4-0.833 0.9-1.983 1.35-3.45 1.35v0c-1.6 0-2.79-0.45-3.57-1.35-0.787-0.9-1.18-2-1.18-3.3v0-1.15h-1c0 0.867-0.157 1.75-0.47 2.65-0.32 0.9-0.97 1.65-1.95 2.25-0.987 0.6-2.547 0.9-4.68 0.9zM89.9-10.95v0c0 0.567 0.21 0.967 0.63 1.2 0.413 0.233 1.32 0.35 2.72 0.35v0c1.267 0 2.15-0.117 2.65-0.35 0.5-0.233 0.75-0.633 0.75-1.2v0c0-0.533-0.25-0.91-0.75-1.13-0.5-0.213-1.383-0.32-2.65-0.32v0c-1.4 0-2.307 0.107-2.72 0.32-0.42 0.22-0.63 0.597-0.63 1.13zM126.9 0v0c-1.667 0-3.007-0.35-4.02-1.05-1.02-0.7-1.763-1.627-2.23-2.78-0.467-1.147-0.733-2.387-0.8-3.72v0h-0.95v2.8c0 1.367-0.417 2.5-1.25 3.4-0.833 0.9-1.983 1.35-3.45 1.35v0c-1.533 0-2.69-0.45-3.47-1.35-0.787-0.9-1.18-2.033-1.18-3.4v0-28.8c0-1.433 0.383-2.627 1.15-3.58 0.767-0.947 1.933-1.42 3.5-1.42v0c1.567 0 2.743 0.473 3.53 1.42 0.78 0.953 1.17 2.113 1.17 3.48v0 15.15l0.2 0.05c0.333-1.4 0.76-2.683 1.28-3.85 0.513-1.167 1.287-2.1 2.32-2.8 1.033-0.7 2.467-1.05 4.3-1.05v0c2.833 0 5 1.157 6.5 3.47 1.5 2.32 2.25 5.413 2.25 9.28v0c0 4.433-0.76 7.773-2.28 10.02-1.513 2.253-3.703 3.38-6.57 3.38zM118.8-13.8v0c0 0.167 0.01 0.323 0.03 0.47 0.013 0.153 0.037 0.313 0.07 0.48v0c0.167 0.7 0.577 1.223 1.23 1.57 0.647 0.353 1.67 0.53 3.07 0.53v0c1.667 0 2.81-0.25 3.43-0.75 0.613-0.5 0.92-1.267 0.92-2.3v0c0-1.067-0.3-1.85-0.9-2.35-0.6-0.5-1.733-0.75-3.4-0.75v0c-1.433 0-2.473 0.173-3.12 0.52-0.653 0.353-1.063 0.897-1.23 1.63v0c-0.033 0.133-0.057 0.273-0.07 0.42-0.02 0.153-0.03 0.33-0.03 0.53z" fill="#010c80" fill-rule="nonzero" stroke="none" stroke-width="1" stroke-linecap="butt" stroke-linejoin="miter" stroke-miterlimit="10" stroke-dasharray="" stroke-dashoffset="0" font-family="none" font-weight="none" font-size="none" text-anchor="none" style="mix-blend-mode: normal" data-fill-palette-color="primary" opacity="1"></path><path d="M6.05 41.7v0c-1.5 0-2.69-0.443-3.57-1.33-0.887-0.88-1.33-1.97-1.33-3.27v0-16.55c0-1.4 0.427-2.583 1.28-3.55 0.847-0.967 2.053-1.45 3.62-1.45v0c1.533 0 2.683 0.483 3.45 1.45 0.767 0.967 1.15 2.183 1.15 3.65v0 2.5h0.9c0-2.833 0.6-4.81 1.8-5.93 1.2-1.113 2.683-1.67 4.45-1.67v0c2.267 0 3.933 0.7 5 2.1 1.067 1.4 1.6 3.233 1.6 5.5v0h0.9c0-1.9 0.317-3.4 0.95-4.5 0.633-1.1 1.443-1.893 2.43-2.38 0.98-0.48 2.003-0.72 3.07-0.72v0c2.167 0 3.757 0.517 4.77 1.55 1.02 1.033 1.68 2.417 1.98 4.15 0.3 1.733 0.45 3.683 0.45 5.85v0 10c0 1.3-0.44 2.39-1.32 3.27-0.887 0.887-2.063 1.33-3.53 1.33v0c-1.467 0-2.65-0.443-3.55-1.33-0.9-0.88-1.35-1.97-1.35-3.27v0-8.85c0-1.2-0.15-2.133-0.45-2.8-0.3-0.667-0.9-1-1.8-1v0c-0.967 0-1.59 0.367-1.87 1.1-0.287 0.733-0.43 1.667-0.43 2.8v0 8.75c0 1.3-0.417 2.39-1.25 3.27-0.833 0.887-1.983 1.33-3.45 1.33v0c-1.5 0-2.69-0.443-3.57-1.33-0.887-0.88-1.33-1.97-1.33-3.27v0-8.85c0-1.2-0.15-2.133-0.45-2.8-0.3-0.667-0.883-1-1.75-1v0c-0.967 0-1.573 0.367-1.82 1.1-0.253 0.733-0.38 1.667-0.38 2.8v0 8.75c0 1.3-0.4 2.39-1.2 3.27-0.8 0.887-1.933 1.33-3.4 1.33zM48.95 41.7v0c-2.467 0-4.39-0.667-5.77-2-1.387-1.333-2.08-3.2-2.08-5.6v0c0-2.4 0.8-4.143 2.4-5.23 1.6-1.08 3.65-1.62 6.15-1.62v0c1.467 0 2.8 0.1 4 0.3 1.2 0.2 2.283 0.483 3.25 0.85v0h0.15v-0.75c0-0.767-0.283-1.377-0.85-1.83-0.567-0.447-1.283-0.653-2.15-0.62v0c-0.833 0-1.54 0.05-2.12 0.15-0.587 0.1-1.313 0.267-2.18 0.5v0c-1.6 0.4-2.983 0.367-4.15-0.1-1.167-0.467-1.967-1.383-2.4-2.75v0c-0.4-1.433-0.307-2.633 0.28-3.6 0.58-0.967 1.47-1.717 2.67-2.25v0c1.033-0.5 2.193-0.917 3.48-1.25 1.28-0.333 2.67-0.5 4.17-0.5v0c4.367 0 7.577 1.057 9.63 3.17 2.047 2.12 3.07 5.663 3.07 10.63v0 7.75c0 1.367-0.417 2.5-1.25 3.4-0.833 0.9-1.983 1.35-3.45 1.35v0c-1.6 0-2.79-0.45-3.57-1.35-0.787-0.9-1.18-2-1.18-3.3v0-1.15h-1c0 0.867-0.157 1.75-0.47 2.65-0.32 0.9-0.97 1.65-1.95 2.25-0.987 0.6-2.547 0.9-4.68 0.9zM49.45 30.75v0c0 0.567 0.21 0.967 0.63 1.2 0.413 0.233 1.32 0.35 2.72 0.35v0c1.267 0 2.15-0.117 2.65-0.35 0.5-0.233 0.75-0.633 0.75-1.2v0c0-0.533-0.25-0.91-0.75-1.13-0.5-0.213-1.383-0.32-2.65-0.32v0c-1.4 0-2.307 0.107-2.72 0.32-0.42 0.22-0.63 0.597-0.63 1.13zM81.7 42.35v0c-2.3 0-4.423-0.227-6.37-0.68-1.953-0.447-3.513-1.163-4.68-2.15-1.167-0.98-1.75-2.287-1.75-3.92v0c0-1.433 0.433-2.617 1.3-3.55 0.867-0.933 2.017-1.4 3.45-1.4v0c0.9 0 1.81 0.14 2.73 0.42 0.913 0.287 1.887 0.563 2.92 0.83 1.033 0.267 2.15 0.4 3.35 0.4v0c1.067 0 1.783-0.06 2.15-0.18 0.367-0.113 0.55-0.337 0.55-0.67v0c0-0.4-0.227-0.667-0.68-0.8-0.447-0.133-1.203-0.3-2.27-0.5v0l-3.6-0.7c-1.5-0.3-2.96-0.693-4.38-1.18-1.413-0.48-2.58-1.203-3.5-2.17-0.913-0.967-1.37-2.283-1.37-3.95v0c0-2.267 1.01-4.033 3.03-5.3 2.013-1.267 4.937-1.9 8.77-1.9v0c2.2 0 4.177 0.217 5.93 0.65 1.747 0.433 3.137 1.073 4.17 1.92 1.033 0.853 1.55 1.913 1.55 3.18v0c0.033 1.367-0.333 2.467-1.1 3.3-0.767 0.833-1.733 1.25-2.9 1.25v0c-0.833 0-1.677-0.11-2.53-0.33-0.847-0.213-1.763-0.447-2.75-0.7-0.98-0.247-2.103-0.387-3.37-0.42v0c-0.9-0.067-1.633-0.017-2.2 0.15-0.567 0.167-0.85 0.433-0.85 0.8v0c0 0.4 0.333 0.673 1 0.82 0.667 0.153 1.667 0.347 3 0.58v0l3.55 0.65c2.167 0.367 3.893 0.823 5.18 1.37 1.28 0.553 2.203 1.313 2.77 2.28 0.567 0.967 0.85 2.3 0.85 4v0c0 1.767-0.507 3.24-1.52 4.42-1.02 1.187-2.43 2.063-4.23 2.63-1.8 0.567-3.867 0.85-6.2 0.85zM110.6 41.85v0c-1.767 0-3.357-0.4-4.77-1.2-1.42-0.8-2.53-1.943-3.33-3.43-0.8-1.48-1.2-3.22-1.2-5.22v0-8.8l-1.85 0.25c-1 0.133-1.883-0.217-2.65-1.05-0.767-0.833-1.15-1.883-1.15-3.15v0c0-1.267 0.383-2.31 1.15-3.13 0.767-0.813 1.65-1.153 2.65-1.02v0l1.85 0.25-0.05-3.4c-0.033-1.333 0.35-2.393 1.15-3.18 0.8-0.78 1.967-1.17 3.5-1.17v0c1.533 0 2.717 0.39 3.55 1.17 0.833 0.787 1.217 1.847 1.15 3.18v0l-0.1 3.4 2.65-0.35c1.8-0.267 3.167 0.057 4.1 0.97 0.933 0.92 1.4 2.013 1.4 3.28v0c0 1.267-0.457 2.357-1.37 3.27-0.92 0.92-2.247 1.263-3.98 1.03v0l-2.8-0.35v7.45c0 0.433 0.15 0.823 0.45 1.17 0.3 0.353 0.667 0.463 1.1 0.33v0c0.5-0.133 1.027-0.417 1.58-0.85 0.547-0.433 1.253-0.65 2.12-0.65v0c1.3 0 2.3 0.467 3 1.4 0.7 0.933 1.05 2.083 1.05 3.45v0c0 1.067-0.377 2.09-1.13 3.07-0.747 0.987-1.803 1.78-3.17 2.38-1.367 0.6-3 0.9-4.9 0.9zM121.85 28.7v0c0-2.633 0.523-4.95 1.57-6.95 1.053-2 2.553-3.567 4.5-4.7 1.953-1.133 4.28-1.7 6.98-1.7v0c2.1 0 3.99 0.383 5.67 1.15 1.687 0.767 3.013 1.79 3.98 3.07 0.967 1.287 1.45 2.697 1.45 4.23v0c0 1.6-0.467 2.733-1.4 3.4-0.933 0.667-2.317 1-4.15 1v0h-10.5c0 0.867 0.34 1.583 1.02 2.15 0.687 0.567 1.847 0.85 3.48 0.85v0c0.833 0 1.61-0.083 2.33-0.25 0.713-0.167 1.443-0.327 2.19-0.48 0.753-0.147 1.597-0.22 2.53-0.22v0c1.333 0 2.433 0.473 3.3 1.42 0.867 0.953 1.3 2.263 1.3 3.93v0c0 1.967-1.01 3.5-3.03 4.6-2.013 1.1-4.653 1.65-7.92 1.65v0c-2.3 0-4.457-0.45-6.47-1.35-2.02-0.9-3.663-2.327-4.93-4.28-1.267-1.947-1.9-4.453-1.9-7.52zM130.1 26.55h7.95c0.5 0 0.667-0.233 0.5-0.7v0c-0.133-0.467-0.533-0.95-1.2-1.45-0.667-0.5-1.633-0.75-2.9-0.75v0c-1.467 0-2.557 0.317-3.27 0.95-0.72 0.633-1.08 1.283-1.08 1.95zM153.3 41.7v0c-1.567 0-2.783-0.45-3.65-1.35-0.867-0.9-1.3-2.033-1.3-3.4v0-16.4c0-1.433 0.433-2.627 1.3-3.58 0.867-0.947 2.083-1.42 3.65-1.42v0c1.567 0 2.767 0.473 3.6 1.42 0.833 0.953 1.25 2.113 1.25 3.48v0 1.05h0.95c0.133-1.767 0.8-3.217 2-4.35 1.2-1.133 2.617-1.7 4.25-1.7v0c1.633 0 2.923 0.5 3.87 1.5 0.953 1 1.43 2.333 1.43 4v0c0 1.567-0.45 2.867-1.35 3.9-0.9 1.033-2.05 1.55-3.45 1.55v0c-1.167 0-2.14-0.277-2.92-0.83-0.787-0.547-1.363-1.187-1.73-1.92v0c-1.067-0.133-1.84-0.027-2.32 0.32-0.487 0.353-0.73 1.047-0.73 2.08v0 10.9c0 1.367-0.417 2.5-1.25 3.4-0.833 0.9-2.033 1.35-3.6 1.35z" fill="#4b91f1" fill-rule="nonzero" stroke="none" stroke-width="1" stroke-linecap="butt" stroke-linejoin="miter" stroke-miterlimit="10" stroke-dasharray="" stroke-dashoffset="0" font-family="none" font-weight="none" font-size="none" text-anchor="none" style="mix-blend-mode: normal" data-fill-palette-color="secondary" opacity="1"></path></g></svg></g></svg></g></svg></g></svg></g></svg></g><defs></defs></svg><rect width="395.52" height="194.60984070796462" fill="none" stroke="none" visibility="hidden"></rect></g></svg></g></svg>