<?xml version="1.0" encoding="UTF-8"?>
<svg version="1.1" viewBox="0 0 1600 1600" width="1280" height="1280" xmlns="http://www.w3.org/2000/svg">
<path transform="translate(140 238)" d="m0 0c0.941-0.00153 1.88-0.00305 2.85-0.00463 3.15-0.00389 6.3-6.88e-4 9.44 0.00249 2.29-0.00135 4.58-0.00313 6.88-0.00531 6.32-0.00473 12.6-0.00323 19-7.22e-4 6.16 0.00195 12.3-0.00178 18.5-0.00487 12.7-0.00623 25.5-0.00771 38.2-0.00658 12.9 0.00112 25.8 9.05e-5 38.8-0.00357 0.816-2.3e-4 1.63-4.59e-4 2.47-6.96e-4 3.32-9.42e-4 6.65-0.0019 9.97-0.00287 34.7-0.0101 69.3-0.0132 104-0.0138 3.73-6.47e-5 7.46-1.33e-4 11.2-2.03e-4 0.926-1.7e-5 1.85-3.4e-5 2.81-5.15e-5 20.5-4.08e-4 41-0.0026 61.6-0.0051 8.45-0.00103 16.9-0.00202 25.3-0.00302 0.934-1.11e-4 1.87-2.21e-4 2.83-3.35e-4 53.5-0.00632 107-0.0104 161-0.00999 2 1.58e-5 4 3.15e-5 6.01 4.72e-5 9.04 7.34e-5 18.1 1.62e-4 27.1 2.54e-4 4.03 4.11e-5 8.06 8.13e-5 12.1 1.21e-4 2.02 2.04e-5 4.04 4.14e-5 6.05 6.31e-5 63.8 6.8e-4 128-0.00664 191-0.0205 16.1-0.0035 32.2-0.00697 48.2-0.0103 1.48-3.04e-4 1.48-3.04e-4 3-6.15e-4 30.5-0.00621 61-0.00998 91.5-0.0112 0.958-4e-5 1.92-7.99e-5 2.9-1.21e-4 21-8.53e-4 42.1-0.00111 63.1-8.3e-4 7.52 9.65e-5 15 1.49e-4 22.6 1.79e-4 1.87 7.91e-6 3.74 1.81e-5 5.62 3.06e-5 29.8 1.76e-4 59.6-0.00552 89.5-0.0142 30-0.00865 60.1-0.0108 90.1-0.00424 4.15 9.12e-4 8.3 0.00176 12.5 0.00256 0.814 1.6e-4 1.63 3.2e-4 2.47 4.85e-4 12.9 0.00235 25.8-2e-3 38.6-0.00916 12.7-0.0069 25.3-0.00664 38 0.00119 6.78 0.00399 13.6 0.00462 20.3-0.00346 6.17-0.00729 12.3-0.00533 18.5 0.00392 2.21 0.00172 4.43 1.03e-4 6.64-0.0053 15.9-0.0361 31.2 0.45 46.5 5.07 1.33 0.39 1.33 0.39 2.69 0.788 6.17 1.86 11.9 4.14 17.4 7.4-4.88 5.88-10.1 11.3-15.5 16.7-0.964 0.963-1.93 1.93-2.89 2.89-2.63 2.63-5.27 5.26-7.91 7.89-2.85 2.84-5.69 5.69-8.54 8.53-4.93 4.92-9.86 9.85-14.8 14.8-7.13 7.12-14.3 14.2-21.4 21.4-11.6 11.6-23.1 23.1-34.7 34.7-1.04 1.04-1.04 1.04-2.1 2.1-4.92 4.91-9.83 9.82-14.7 14.7-5.62 5.61-11.2 11.2-16.9 16.8-1.04 1.04-1.04 1.04-2.1 2.09-11.5 11.5-23.1 23-34.6 34.6-7.11 7.11-14.2 14.2-21.3 21.3-4.87 4.86-9.74 9.73-14.6 14.6-2.81 2.81-5.62 5.62-8.43 8.42-2.58 2.57-5.15 5.14-7.72 7.71-1.37 1.37-2.74 2.74-4.12 4.11-0.816 0.817-1.63 1.63-2.47 2.48-1.05 1.05-1.05 1.05-2.13 2.13-2.14 2.27-4.05 4.66-5.98 7.11-2.12 2.31-2.12 2.31-4 4h-2c-0.33 0.99-0.66 1.98-1 3h-2c-0.243 0.568-0.486 1.14-0.737 1.72-1.5 2.71-3.28 4.54-5.48 6.74-1.33 1.34-1.33 1.34-2.69 2.7-0.993 0.986-1.99 1.97-2.98 2.96-1.05 1.05-2.1 2.1-3.15 3.15-2.89 2.89-5.78 5.78-8.68 8.66-3.12 3.11-6.24 6.23-9.35 9.34-5.4 5.4-10.8 10.8-16.2 16.2-7.82 7.8-15.6 15.6-23.5 23.4-12.7 12.7-25.4 25.4-38.1 38-0.76 0.759-1.52 1.52-2.3 2.3-0.761 0.76-1.52 1.52-2.31 2.3-10.8 10.8-21.6 21.5-32.4 32.3-1.14 1.14-1.14 1.14-2.3 2.29-12.6 12.6-25.3 25.3-37.9 37.9-7.8 7.79-15.6 15.6-23.4 23.4-5.35 5.34-10.7 10.7-16 16-3.08 3.08-6.17 6.16-9.26 9.24-2.83 2.82-5.65 5.64-8.47 8.46-1.02 1.02-2.04 2.04-3.06 3.06-4.82 4.8-9.46 9.6-13.8 14.9-2 1.67-4 3.34-6 5-0.639 0.804-1.28 1.61-1.94 2.44-2.23 2.77-4.67 4.83-7.4 7.09-2.18 1.94-3.85 4.19-5.66 6.47l-2.94 2.44c-3.14 2.47-3.14 2.47-5.56 5.56-2.59 3.11-5.4 5.42-8.5 8-1.75 1.94-3.36 3.97-5 6-2.19 2.37-2.19 2.37-4 4h-2c-0.235 0.559-0.47 1.12-0.712 1.7-1.6 2.87-3.57 4.85-5.9 7.18-0.472 0.476-0.943 0.953-1.43 1.44-1.58 1.59-3.17 3.18-4.75 4.76-1.14 1.14-2.27 2.28-3.41 3.43-3.08 3.1-6.18 6.2-9.27 9.29-1.93 1.94-3.87 3.87-5.8 5.81-6.75 6.77-13.5 13.5-20.3 20.3-6.29 6.29-12.6 12.6-18.8 18.9-5.39 5.42-10.8 10.8-16.2 16.2-3.22 3.22-6.45 6.45-9.66 9.69-3.03 3.05-6.07 6.09-9.11 9.12-1.11 1.11-2.22 2.22-3.32 3.33-13.6 13.8-26.9 21.1-46.5 21.3-20.4-0.231-33.2-10.2-47-24.1-1.22-1.22-2.43-2.44-3.65-3.65-2.53-2.53-5.05-5.07-7.57-7.62-3.23-3.27-6.48-6.52-9.73-9.77-2.5-2.51-5-5.02-7.5-7.53-1.2-1.2-2.39-2.4-3.59-3.6-1.66-1.67-3.32-3.34-4.98-5.02-0.746-0.744-0.746-0.744-1.51-1.5-3.37-3.43-3.37-3.43-3.37-5.66-0.99-0.33-1.98-0.66-3-1-1.25-1.47-2.49-2.95-3.69-4.46-1.38-1.71-1.38-1.71-3.69-3.41-3.03-2.46-5.4-5.22-7.93-8.17-2.95-3.41-6.05-6.44-9.57-9.27-2.37-1.94-4.33-4.01-6.31-6.34-3.79-4.38-7.82-8.46-11.9-12.5l-2.09-2.08c-1.29-1.28-2.57-2.55-3.86-3.83-2.32-2.3-4.62-4.6-6.93-6.91-1.61-1.6-3.21-3.21-4.82-4.81-0.957-0.955-1.91-1.91-2.87-2.87-0.506-0.506-1.01-1.01-1.53-1.53-2.82-2.82-5.65-5.64-8.47-8.46-0.607-0.606-1.21-1.21-1.84-1.84-27.9-27.9-55.8-55.7-83.7-83.6-4.03-4.02-8.05-8.05-12.1-12.1-0.802-0.801-1.6-1.6-2.43-2.43-13-13-26-26-39-39-13.4-13.3-26.7-26.7-40.1-40-8.24-8.24-16.5-16.5-24.7-24.7-5.64-5.63-11.3-11.3-16.9-16.9-3.26-3.26-6.51-6.51-9.78-9.76-2.98-2.97-5.96-5.95-8.93-8.93-1.08-1.08-2.16-2.16-3.25-3.24-1.46-1.46-2.92-2.92-4.38-4.38-0.814-0.814-1.63-1.63-2.47-2.47-1.72-1.97-1.72-1.97-1.72-3.97-0.598-0.268-1.2-0.536-1.81-0.812-2.19-1.19-3.6-2.28-5.19-4.19v-2c-1.32-0.66-2.64-1.32-4-2v-2c-0.99-0.33-1.98-0.66-3-1v-2c-1.32-0.66-2.64-1.32-4-2v-2c-0.99-0.33-1.98-0.66-3-1-2.19-1.94-2.19-1.94-4-4v-2c-0.99-0.33-1.98-0.66-3-1-2.19-1.94-2.19-1.94-4-4v-2c-0.99-0.33-1.98-0.66-3-1-2.19-1.94-2.19-1.94-4-4v-2h-2c-1.36-1.38-1.36-1.38-2.98-3.35-4.53-5.32-9.45-10.2-14.4-15.1-1.04-1.04-2.08-2.08-3.12-3.12-2.84-2.84-5.69-5.68-8.54-8.52-3.08-3.07-6.15-6.14-9.22-9.21-5.32-5.31-10.6-10.6-16-15.9-7.7-7.68-15.4-15.4-23.1-23.1-12.5-12.5-25-24.9-37.5-37.4-0.747-0.746-1.49-1.49-2.26-2.26-10.6-10.6-21.2-21.2-31.8-31.8-0.749-0.747-1.5-1.49-2.27-2.26-1.12-1.12-1.12-1.12-2.27-2.26-12.5-12.4-24.9-24.9-37.3-37.3-7.68-7.67-15.4-15.3-23-23-5.26-5.24-10.5-10.5-15.8-15.7-3.03-3.03-6.07-6.06-9.11-9.09-2.78-2.77-5.55-5.54-8.32-8.31-1.01-1.01-2.02-2.01-3.03-3.02-1.36-1.36-2.72-2.72-4.08-4.08-0.759-0.757-1.52-1.51-2.3-2.3-1.6-1.85-1.6-1.85-1.6-3.85 9.38-3.7 18.7-7.2 28.6-9.38 1.05-0.233 1.05-0.233 2.12-0.47 8.65-1.79 17.3-2.31 26.1-2.28z" fill="#000002"/>
<path transform="translate(563,867)" d="m0 0c6.33 5.22 12.1 10.9 17.9 16.7 1.08 1.08 2.17 2.16 3.25 3.24 2.93 2.92 5.85 5.84 8.78 8.76 1.83 1.83 3.65 3.65 5.48 5.48 6.38 6.37 12.7 12.7 19.1 19.1 5.94 5.94 11.9 11.9 17.8 17.8 5.11 5.1 10.2 10.2 15.3 15.3 3.05 3.05 6.1 6.1 9.15 9.14 2.86 2.86 5.73 5.72 8.58 8.58 1.05 1.05 2.1 2.1 3.16 3.15 1.43 1.43 2.86 2.86 4.29 4.29 0.802 0.802 1.6 1.6 2.43 2.43 1.7 1.95 1.7 1.95 1.7 3.95 0.99 0.33 1.98 0.66 3 1 1.24 1.47 2.48 2.95 3.68 4.45 1.86 2.18 4.06 3.8 6.32 5.55 2.21 2.15 4.37 4.34 6.5 6.58 4.26 4.41 8.77 8.01 13.8 11.5 0.755 0.522 1.51 1.04 2.29 1.58 2.13 1.46 4.26 2.91 6.4 4.35 0.878 0.602 1.76 1.2 2.66 1.82 18.5 11.9 43.2 19.2 65.1 19.4 0.737 0.00984 1.47 0.0197 2.23 0.0298 15.7 0.167 30.8 0.239 46-4.27 1.26-0.354 1.26-0.354 2.54-0.715 25.4-7.25 47.4-20.5 65.7-39.6 1.79-1.68 1.79-1.68 3.79-1.68 0.228-0.553 0.456-1.11 0.691-1.68 1.69-3 3.82-5.08 6.26-7.51 0.508-0.51 1.02-1.02 1.54-1.54 1.7-1.71 3.41-3.4 5.12-5.1 1.22-1.22 2.44-2.44 3.67-3.67 3.32-3.32 6.64-6.63 9.97-9.94 3.47-3.46 6.94-6.93 10.4-10.4 6.57-6.56 13.1-13.1 19.7-19.7 7.49-7.46 15-14.9 22.4-22.4 15.4-15.4 30.8-30.7 46.2-46.1 0.697 0.6 0.697 0.6 1.41 1.21 0.618 0.531 1.24 1.06 1.87 1.61 0.609 0.524 1.22 1.05 1.85 1.59 1.78 1.51 3.57 2.99 5.37 4.47 3.27 2.79 5.97 5.91 8.75 9.19 2.13 2.36 4.47 4.3 6.92 6.31 1.81 1.61 3.32 3.29 4.89 5.15 4.61 5.33 9.59 10.3 14.6 15.2 1.07 1.07 2.14 2.14 3.21 3.21 2.92 2.92 5.85 5.84 8.78 8.76 3.16 3.15 6.32 6.31 9.48 9.47 5.47 5.46 10.9 10.9 16.4 16.4 7.91 7.9 15.8 15.8 23.7 23.7 12.8 12.8 25.7 25.6 38.5 38.5 0.768 0.767 1.54 1.53 2.33 2.32 10.9 10.9 21.8 21.8 32.7 32.7 0.77 0.768 1.54 1.54 2.33 2.33 1.15 1.15 1.15 1.15 2.33 2.33 12.8 12.8 25.6 25.6 38.4 38.3 7.89 7.89 15.8 15.8 23.7 23.7 5.4 5.39 10.8 10.8 16.2 16.2 3.12 3.12 6.24 6.23 9.36 9.35 2.86 2.84 5.71 5.69 8.55 8.54 1.04 1.04 2.07 2.07 3.11 3.1 1.4 1.39 2.8 2.79 4.19 4.2 0.78 0.779 1.56 1.56 2.36 2.36 1.65 1.89 1.65 1.89 1.65 3.89 0.99 0.33 1.98 0.66 3 1v2c1.32 0.66 2.64 1.32 4 2v2c0.99 0.33 1.98 0.66 3 1v2c1.32 0.66 2.64 1.32 4 2v2c0.99 0.33 1.98 0.66 3 1 2.19 1.94 2.19 1.94 4 4v2c0.99 0.33 1.98 0.66 3 1 2.19 1.94 2.19 1.94 4 4v2c0.99 0.33 1.98 0.66 3 1 1.54 1.59 1.54 1.59 3.06 3.5 2.11 2.68 2.11 2.68 4.94 4.5v2h2c1.3 1.36 1.3 1.36 2.75 3.19 1.98 2.4 3.77 4.24 6.19 6.25 2.35 1.96 4.04 3.63 5.97 5.93 5.24 6.06 11 11.6 16.6 17.3 1.26 1.26 2.52 2.52 3.79 3.79 3.41 3.41 6.82 6.81 10.2 10.2 3.57 3.56 7.14 7.13 10.7 10.7 6.75 6.74 13.5 13.5 20.3 20.2 7.69 7.68 15.4 15.4 23.1 23 15.8 15.8 31.6 31.6 47.4 47.4-3.11 3.43-6.68 4.54-11 5.94-0.792 0.259-1.58 0.517-2.4 0.784-5.76 1.83-11.6 3.32-17.5 4.59-0.735 0.159-1.47 0.318-2.23 0.482-13.6 2.73-27.3 2.35-41.1 2.33-2.28 0.00135-4.55 0.00313-6.83 0.00531-6.26 0.00473-12.5 0.00323-18.8 7.22e-4 -6.11-0.00146-12.2 0.00178-18.3 0.00487-12.6 0.00623-25.3 0.00771-37.9 0.00658-12.8-0.00112-25.6-8.9e-5 -38.4 0.00357-0.81 2.3e-4 -1.62 4.59e-4 -2.45 6.96e-4 -3.3 9.42e-4 -6.6 0.0019-9.89 0.00287-34.4 0.0101-68.8 0.0132-103 0.0138-3.7 6.47e-5 -7.4 1.33e-4 -11.1 2.03e-4 -1.38 2.55e-5 -1.38 2.55e-5 -2.78 5.15e-5 -20.4 4.09e-4 -40.7 0.0026-61.1 0.0051-8.38 0.00103-16.8 0.00202-25.2 0.00302-0.926 1.11e-4 -1.85 2.21e-4 -2.81 3.35e-4 -53.1 0.00632-106 0.0104-159 0.00999-1.99-1.58e-5 -3.97-3.15e-5 -5.96-4.72e-5 -8.97-7.34e-5 -17.9-1.62e-4 -26.9-2.54e-4 -4-4.11e-5 -8-8.13e-5 -12-1.21e-4 -2-2.04e-5 -4-4.14e-5 -6.01-6.31e-5 -63.3-6.8e-4 -127 0.00664-190 0.0205-15.9 0.0035-31.9 0.00697-47.8 0.0103-0.982 2.03e-4 -1.96 4.06e-4 -2.98 6.15e-4 -30.3 0.00622-60.5 0.00998-90.8 0.0112-0.95 4e-5 -1.9 7.99e-5 -2.88 1.21e-4 -20.9 8.53e-4 -41.7 0.00111-62.6 8.3e-4 -7.47-9.65e-5 -14.9-1.49e-4 -22.4-1.79e-4 -1.86-7.91e-6 -3.71-1.81e-5 -5.57-3.06e-5 -29.6-1.76e-4 -59.2 0.00552-88.8 0.0142-29.8 0.00865-59.6 0.0108-89.4 0.00424-4.12-9.12e-4 -8.24-0.00176-12.4-0.00256-0.808-1.6e-4 -1.62-3.2e-4 -2.45-4.85e-4 -12.8-0.00235-25.5 2e-3 -38.3 0.00916-12.6 0.0069-25.1 0.00663-37.7-0.00119-6.72-0.00399-13.4-0.00463-20.2 0.00346-6.12 0.0073-12.2 0.00531-18.4-0.00392-2.19-0.00171-4.39-1.17e-4 -6.58 0.0053-17.2 0.0396-34.2-0.457-50.9-5.07-0.927-0.235-1.85-0.471-2.81-0.713-6.49-1.73-12.2-4.27-18.1-7.47 5.35-6.5 11.3-12.4 17.2-18.3 1.13-1.13 2.26-2.26 3.4-3.39 2.43-2.42 4.85-4.84 7.28-7.26 3.84-3.83 7.67-7.65 11.5-11.5 8.13-8.12 16.3-16.2 24.4-24.4 8.8-8.78 17.6-17.6 26.4-26.3 3.81-3.81 7.63-7.62 11.4-11.4 2.37-2.36 4.73-4.72 7.1-7.09 1.1-1.1 2.2-2.2 3.3-3.29 1.5-1.49 3-2.99 4.49-4.48 0.839-0.837 1.68-1.67 2.54-2.54 1.95-1.88 1.95-1.88 2.9-4.02h2c0.33-0.99 0.66-1.98 1-3 1.94-2.19 1.94-2.19 4-4h2c0.33-0.99 0.66-1.98 1-3 1.94-2.19 1.94-2.19 4-4h2c0.66-1.32 1.32-2.64 2-4h2c0.66-1.32 1.32-2.64 2-4h2c0.33-0.99 0.66-1.98 1-3h2c0.66-1.32 1.32-2.64 2-4h2c0.33-0.99 0.66-1.98 1-3h2c0.264-0.589 0.529-1.18 0.801-1.78 1.24-2.3 2.55-3.82 4.39-5.67 0.616-0.619 1.23-1.24 1.87-1.88 0.642-0.634 1.28-1.27 1.95-1.92 0.642-0.65 1.28-1.3 1.95-1.97 0.616-0.614 1.23-1.23 1.87-1.86 0.563-0.561 1.13-1.12 1.71-1.7 1.48-1.22 1.48-1.22 3.48-1.22 0.24-0.565 0.48-1.13 0.727-1.71 1.54-2.77 3.4-4.66 5.64-6.9 0.924-0.927 1.85-1.85 2.8-2.81 1.03-1.03 2.06-2.05 3.1-3.08 1.09-1.09 2.18-2.18 3.27-3.28 3-3.01 6.01-6 9.02-9 3.24-3.23 6.48-6.47 9.72-9.71 5.61-5.61 11.2-11.2 16.9-16.8 8.13-8.11 16.3-16.2 24.4-24.3 13.2-13.2 26.4-26.4 39.6-39.5 0.79-0.789 1.58-1.58 2.39-2.39 0.791-0.79 1.58-1.58 2.4-2.39 11.2-11.2 22.4-22.4 33.6-33.6 0.788-0.787 1.58-1.57 2.39-2.39 13.1-13.1 26.3-26.2 39.4-39.4 8.11-8.1 16.2-16.2 24.3-24.3 5.56-5.55 11.1-11.1 16.7-16.6 3.21-3.2 6.41-6.4 9.62-9.6 2.94-2.93 5.87-5.86 8.81-8.79 1.06-1.06 2.12-2.12 3.19-3.18 4.93-4.91 9.69-9.8 14.1-15.2 2-1.67 4-3.33 6-5 1.67-2 3.34-4 5-6 0.804-0.639 1.61-1.28 2.44-1.94 2.2-1.77 3.77-3.41 5.56-5.56 2.43-2.92 5.02-5.13 8-7.5 0.917-1.04 1.81-2.11 2.69-3.19 2.31-2.81 2.31-2.81 4.31-3.81z" fill="#000002"/>
<path transform="translate(14,318)" d="m0 0c4.06 0.537 5.93 2.56 8.77 5.4 0.459 0.455 0.918 0.911 1.39 1.38 1.51 1.5 3.01 3.02 4.51 4.53 1.05 1.05 2.1 2.1 3.14 3.14 2.19 2.19 4.38 4.39 6.57 6.59 2.81 2.83 5.62 5.64 8.44 8.46 2.16 2.16 4.32 4.33 6.48 6.49 1.04 1.04 2.08 2.08 3.11 3.12 1.45 1.45 2.89 2.9 4.33 4.36 0.823 0.827 1.65 1.65 2.49 2.51 1.76 2.02 1.76 2.02 1.76 4.02 1.48 0.495 1.48 0.495 3 1v2c1.32 0.66 2.64 1.32 4 2v2c1.48 0.495 1.48 0.495 3 1v2c1.32 0.66 2.64 1.32 4 2v2c0.897 0.402 0.897 0.402 1.81 0.812 2.19 1.19 3.6 2.28 5.19 4.19v2c1.98 0.99 1.98 0.99 4 2v2l3 1v2c1.98 0.99 1.98 0.99 4 2v2l3 1v2l3 1c1.22 1.45 2.44 2.91 3.62 4.4 1.73 2.01 3.75 3.57 5.81 5.23 1.67 1.47 3.04 3.03 4.47 4.74 5.27 6.09 11 11.7 16.7 17.4 1.29 1.29 2.58 2.58 3.87 3.86 3.53 3.53 7.06 7.05 10.6 10.6 3.81 3.8 7.62 7.61 11.4 11.4 6.6 6.59 13.2 13.2 19.8 19.8 9.54 9.53 19.1 19.1 28.6 28.6 15.5 15.5 31 30.9 46.4 46.4 0.926 0.925 1.85 1.85 2.81 2.8 13.2 13.1 26.3 26.3 39.5 39.4 0.928 0.927 1.86 1.85 2.81 2.81 0.927 0.926 1.85 1.85 2.81 2.81 15.4 15.4 30.9 30.8 46.3 46.2 9.52 9.51 19 19 28.6 28.5 6.52 6.51 13 13 19.5 19.5 3.76 3.76 7.53 7.52 11.3 11.3 3.44 3.43 6.88 6.87 10.3 10.3 1.25 1.25 2.5 2.5 3.75 3.74 1.69 1.68 3.38 3.37 5.06 5.06 0.497 0.491 0.994 0.983 1.51 1.49 3.33 3.36 3.33 3.36 3.33 5.59h2c1.48 1.5 1.48 1.5 3.19 3.56 3.42 4.02 7.04 7.74 10.8 11.4 1.67 1.67 3.33 3.33 5 5 1.5 1.51 3.01 3.01 4.51 4.51 12.8 12.8 25.7 25.7 38.5 38.5-1.59 3.85-4.04 6.28-6.97 9.2-0.51 0.511-1.02 1.02-1.55 1.55-1.71 1.71-3.43 3.41-5.14 5.12-1.23 1.23-2.45 2.45-3.68 3.68-2.64 2.64-5.29 5.27-7.93 7.91-4.19 4.16-8.36 8.33-12.5 12.5-6.61 6.6-13.2 13.2-19.8 19.8-11.8 11.8-23.7 23.6-35.5 35.4-4.15 4.15-8.31 8.29-12.5 12.4-2.59 2.58-5.17 5.15-7.76 7.73-1.2 1.2-2.4 2.39-3.6 3.58-1.64 1.63-3.27 3.26-4.91 4.9-0.916 0.913-1.83 1.83-2.78 2.77-2.32 2.33-2.32 2.33-4.01 4.76-0.431 0.553-0.862 1.11-1.31 1.68h-2v2h-2l-1 3h-2l-2 4h-2c-0.236 0.561-0.472 1.12-0.715 1.7-1.59 2.85-3.53 4.8-5.84 7.1-0.468 0.471-0.937 0.942-1.42 1.43-1.58 1.58-3.16 3.16-4.75 4.73-1.14 1.14-2.28 2.28-3.42 3.43-3.14 3.14-6.29 6.28-9.43 9.42-3.39 3.38-6.78 6.77-10.2 10.2-5.87 5.87-11.7 11.7-17.6 17.6-8.5 8.48-17 17-25.5 25.5-13.8 13.8-27.6 27.6-41.4 41.3-13.4 13.4-26.8 26.7-40.2 40.1-0.824 0.824-1.65 1.65-2.5 2.5-4.13 4.13-8.27 8.26-12.4 12.4-28.5 28.5-57 57-85.5 85.5-0.608 0.608-1.22 1.22-1.84 1.84-2.82 2.81-5.63 5.63-8.45 8.44-0.501 0.5-1 1-1.52 1.52-1.32 1.32-2.65 2.65-3.97 3.97-1.68 1.68-3.37 3.36-5.05 5.05-1.61 1.61-3.23 3.21-4.85 4.81-5.37 5.26-5.37 5.26-10.3 10.9-2.19 2.63-4.51 4.52-7.19 6.62l-2 3h-2l-1 3c-1.94 2.19-1.94 2.19-4 4h-2c-0.66 1.32-1.32 2.64-2 4h-2c-0.66 1.32-1.32 2.64-2 4h-2l-1 3c-1.64 1.37-3.31 2.69-5 4-2.62 2.55-5.16 5.17-7.69 7.81-2.31 2.19-2.31 2.19-4.31 2.19-7.2-17.5-14.1-36.2-14.1-55.4-0.00378-1.25-0.00757-2.51-0.0115-3.8 8.32e-4 -1.38 0.00176-2.76 0.00276-4.15-0.00256-1.48-0.00556-2.97-0.00894-4.45-0.00806-4.08-0.0099-8.17-0.0107-12.3-0.00197-4.44-0.00965-8.88-0.0166-13.3-0.0128-8.81-0.0202-17.6-0.0259-26.4-0.00706-10.6-0.0198-21.1-0.0325-31.7-0.0319-26.7-0.0517-53.4-0.0693-80.2-0.00477-7.24-0.00978-14.5-0.0148-21.7-0.0311-44.9-0.0577-89.9-0.0744-135-0.00394-10.4-0.00795-20.8-0.012-31.2-5.02e-4 -1.29-1e-3 -2.59-0.00152-3.92-0.0164-41.9-0.0549-83.9-0.106-126-0.0523-43.1-0.085-86.2-0.0923-129-0.00103-6.09-0.00226-12.2-0.00362-18.3-2.58e-4 -1.2-5.16e-4 -2.4-7.82e-4 -3.63-0.00469-19.3-0.0296-38.5-0.062-57.8-0.0321-19.4-0.042-38.8-0.0296-58.2 0.00672-11.5-0.00311-23-0.0371-34.5-0.0211-7.7-0.0201-15.4-0.00167-23.1 0.00986-4.38 0.0107-8.76-0.0157-13.1-0.151-26.7 2.6-52.5 14.8-76.9z" fill="#000002"/>
<path transform="translate(1584,317)" d="m0 0c3.37 1.69 4.02 5.51 5.31 8.88 0.308 0.8 0.617 1.6 0.934 2.42 3.27 8.72 5.72 17.6 7.75 26.7 0.262 1.16 0.262 1.16 0.53 2.33 1.61 7.84 1.75 15.5 1.73 23.5 3e-3 1.48 0.00687 2.96 0.0115 4.45 0.0102 4.06 0.00813 8.13 0.00394 12.2-0.00237 4.43 0.00681 8.85 0.0145 13.3 0.0118 7.75 0.0162 15.5 0.0157 23.3-7.94e-4 11.5 0.00976 23.1 0.0224 34.6 0.0247 23 0.0335 46 0.0385 69 2.61e-4 1.19 5.22e-4 2.38 7.91e-4 3.61 2.6e-4 1.19 5.21e-4 2.39 7.89e-4 3.62 0.00308 13.2 0.00959 26.5 0.0162 39.7 0.0196 40 0.0361 79.9 0.0389 120 9.41e-5 1.28 1.88e-4 2.56 2.85e-4 3.87 3.78e-4 5.18 7.42e-4 10.4 0.0011 15.5 2.72e-4 3.9 5.48e-4 7.8 8.25e-4 11.7 8.8e-5 1.29 1.76e-4 2.58 2.67e-4 3.9 0.0029 40.5 0.025 80.9 0.0613 121 0.0408 45.5 0.0644 90.9 0.0647 136 9.68e-5 4.85 2.64e-4 9.7 4.8e-4 14.6 4.41e-5 1.19 8.82e-5 2.39 1.34e-4 3.62 0.00112 19.2 0.0185 38.4 0.0417 57.6 0.0229 19.3 0.027 38.6 0.0125 57.9-0.00813 11.5-0.00253 22.9 0.0232 34.4 0.0158 7.67 0.0132 15.3-0.00391 23-0.00922 4.36-0.0109 8.72 0.00997 13.1 0.128 28.7-3.78 54-14.6 80.7-5.7-2.66-10-6.71-14-11.5-4.82-5.56-10-10.7-15.3-15.9-1.14-1.14-2.28-2.28-3.42-3.42-3.12-3.12-6.24-6.23-9.36-9.34-3.37-3.36-6.74-6.73-10.1-10.1-5.83-5.83-11.7-11.6-17.5-17.5-8.44-8.42-16.9-16.8-25.3-25.3-13.7-13.7-27.4-27.3-41.1-41-0.818-0.817-1.64-1.63-2.48-2.48-11.6-11.6-23.3-23.2-34.9-34.9-1.23-1.23-1.23-1.23-2.49-2.48-0.82-0.818-1.64-1.64-2.48-2.48-13.6-13.6-27.3-27.2-40.9-40.9-8.42-8.41-16.8-16.8-25.3-25.2-5.76-5.75-11.5-11.5-17.3-17.3-3.33-3.32-6.65-6.65-9.98-9.97-3.04-3.03-6.08-6.07-9.12-9.11-1.1-1.1-2.21-2.21-3.32-3.31-1.5-1.49-2.98-2.98-4.47-4.47-0.832-0.83-1.66-1.66-2.52-2.52-1.76-2-1.76-2-1.76-4h-2c-1.48-1.54-1.48-1.54-3.19-3.62-2.3-2.71-4.56-5.13-7.31-7.38-2.53-2.07-4.66-4.24-6.77-6.73-3.47-4.01-7.11-7.79-10.9-11.5-0.684-0.685-1.37-1.37-2.07-2.07-2.27-2.27-4.54-4.54-6.82-6.81-1.64-1.64-3.27-3.27-4.91-4.91-4.43-4.43-8.86-8.85-13.3-13.3-4.64-4.63-9.27-9.26-13.9-13.9-7.77-7.77-15.5-15.5-23.3-23.3-8-8-16-16-24-24-0.494-0.494-0.988-0.987-1.5-1.5-2.48-2.48-4.96-4.95-7.44-7.43-20.5-20.5-41.1-41-61.6-61.6 1.67-3.56 3.61-5.83 6.43-8.59 0.878-0.867 1.76-1.73 2.66-2.63 0.919-0.898 1.84-1.8 2.79-2.72 1.81-1.78 3.62-3.56 5.43-5.34 1.21-1.18 1.21-1.18 2.44-2.38 2.26-2.34 4.23-4.81 6.26-7.34 1.67-1.33 3.33-2.67 5-4 1.36-1.65 2.69-3.31 4-5 2.12-2.31 2.12-2.31 4-4h2v-2c2.38-2.62 2.38-2.62 5-5h2v-2c1.38-1.62 1.38-1.62 3-3h2c0.66-1.32 1.32-2.64 2-4h2v-2c1.62-1.71 3.3-3.37 5-5 0.804-0.804 1.61-1.61 2.44-2.44 0.859-0.858 1.72-1.72 2.6-2.6 1.01-1.01 2.01-2.01 3.02-3.02 0.534-0.533 1.07-1.07 1.62-1.62 2.97-2.97 5.95-5.95 8.92-8.92 0.639-0.639 1.28-1.28 1.94-1.94 29.4-29.4 58.8-58.8 88.2-88.2 4.25-4.25 8.49-8.49 12.7-12.7 0.845-0.845 1.69-1.69 2.56-2.56 13.7-13.7 27.4-27.4 41.1-41.1 14.1-14.1 28.2-28.1 42.2-42.2 8.68-8.68 17.4-17.4 26.1-26 5.95-5.94 11.9-11.9 17.8-17.8 3.43-3.43 6.86-6.86 10.3-10.3 3.14-3.14 6.28-6.28 9.42-9.42 1.14-1.14 2.27-2.27 3.41-3.41 1.55-1.54 3.09-3.09 4.63-4.63 0.858-0.858 1.72-1.72 2.6-2.6 2.35-2.41 2.35-2.41 4.44-5.09 2.32-2.89 5.01-5 7.88-7.34 1.68-1.66 3.34-3.32 5-5 0.837-0.825 1.67-1.65 2.54-2.5 0.834-0.825 1.67-1.65 2.53-2.5 0.837-0.825 1.67-1.65 2.54-2.5 2.3-2.4 4.36-4.88 6.4-7.5 2.12-2.31 2.12-2.31 4-4h2c0.66-1.32 1.32-2.64 2-4h2c0.33-0.99 0.66-1.98 1-3h2c0.371-0.866 0.371-0.866 0.75-1.75 1.43-2.58 3.03-4.31 5.25-6.25h2c0.33-0.99 0.66-1.98 1-3h2c0.66-1.32 1.32-2.64 2-4h2c0.33-0.99 0.66-1.98 1-3h2c0.403-0.891 0.403-0.891 0.814-1.8 1.19-2.21 2.39-3.65 4.16-5.42 0.913-0.917 0.913-0.917 1.84-1.85 0.666-0.659 1.33-1.32 2.02-2 0.703-0.703 1.41-1.41 2.13-2.13 2.32-2.32 4.65-4.63 6.98-6.95 1.61-1.61 3.22-3.22 4.83-4.83 4.24-4.23 8.49-8.46 12.7-12.7 4.33-4.31 8.66-8.63 13-13 8.49-8.47 17-16.9 25.5-25.4z" fill="#000002"/>
</svg>
