<?xml version="1.0" encoding="UTF-8"?>
<!-- Generator: visioncortex VTracer 0.6.3 -->
<svg version="1.1" xmlns="http://www.w3.org/2000/svg" width="1280" height="1280">
<path d="M0 0 C2.26 -0 4.52 -0 6.78 -0 C11.47 -0 16.15 -0 20.84 0 C26.77 0.01 32.71 0 38.64 -0 C43.29 -0 47.94 -0 52.59 -0 C54.78 -0 56.96 -0 59.15 -0 C122.4 -0.06 122.4 -0.06 139.2 15.91 C147.29 24.41 151.56 35.62 151.46 47.27 C151.24 52.33 150.47 57.27 149.65 62.26 C149.47 63.35 149.3 64.44 149.11 65.56 C145.59 86.25 145.59 86.25 140.34 94.13 C140.68 97.67 141.41 98.19 144.21 100.7 C149.91 104.48 156.27 105.92 163.02 106.38 C168.4 104.36 171.28 100.93 174.34 96.13 C175.81 92.86 176.96 89.48 178.12 86.09 C182.37 73.96 190.11 65.45 201.65 59.88 C210.82 55.7 220.52 53.75 230.45 52.31 C231.46 52.16 232.47 52.01 233.51 51.85 C235.63 51.54 237.74 51.22 239.86 50.92 C243.09 50.44 246.32 49.96 249.55 49.47 C251.62 49.17 253.69 48.86 255.76 48.56 C256.72 48.41 257.67 48.27 258.66 48.12 C266.61 46.98 273.16 46.54 280.71 49.7 C281.37 49.97 282.02 50.24 282.7 50.51 C294.15 55.46 302.11 63.56 307.09 75.01 C312.29 88.53 313.23 98.61 310.21 112.76 C309.99 113.81 309.76 114.87 309.53 115.96 C306.92 127.68 303.45 137.76 296.11 147.42 C293.91 150.78 292.47 154.24 290.96 157.95 C286.76 168.08 281.11 176.94 273.01 184.46 C271.08 186.38 269.52 188.45 267.9 190.63 C264.53 195.1 260.68 198.63 256.34 202.13 C259.24 204.07 260.95 204.66 264.27 205.43 C265.25 205.66 266.22 205.9 267.22 206.14 C268.25 206.38 269.28 206.63 270.34 206.88 C278.75 208.99 286.2 211.03 293.34 216.13 C293.99 216.59 294.65 217.05 295.32 217.53 C306.68 226.35 311.5 241.33 313.34 255.13 C313.61 260.96 313.59 266.79 313.57 272.62 C313.57 274.34 313.56 276.05 313.57 277.76 C313.56 281.35 313.56 284.94 313.54 288.53 C313.52 293.04 313.52 297.55 313.52 302.06 C313.52 318.44 313.46 334.81 312.93 351.17 C312.9 352.28 312.87 353.38 312.84 354.52 C312.52 362.86 311.26 370.27 308.34 378.13 C307.96 379.2 307.59 380.27 307.21 381.38 C302.15 394.77 293.74 402.86 280.99 408.97 C275.39 411.42 269.68 413.52 263.77 415.07 C261.13 415.89 261.13 415.89 260.4 418.4 C260.05 419.3 259.7 420.2 259.34 421.13 C250.24 435.11 235.11 443.57 219.34 448.13 C192.49 451.95 164.08 450.33 137.01 450.41 C135.6 450.41 135.6 450.41 134.17 450.41 C125.26 450.44 116.36 450.46 107.46 450.47 C96.24 450.49 85.01 450.52 73.79 450.58 C65.8 450.62 57.81 450.64 49.83 450.64 C45.1 450.65 40.37 450.66 35.64 450.69 C12.66 450.85 -9.06 449.54 -31.66 445.13 C-32.63 444.95 -33.59 444.77 -34.58 444.59 C-49.68 441.76 -61.44 435.39 -70.46 422.58 C-71.02 421.73 -71.58 420.88 -72.16 420.01 C-75.01 415.77 -77.96 413.15 -82.06 410.18 C-85.41 407.55 -88.4 404.64 -91.41 401.63 C-91.96 401.1 -92.5 400.56 -93.06 400.01 C-95.75 397.31 -98.1 394.61 -100.25 391.45 C-102.34 388.42 -104.48 386.51 -107.6 384.51 C-118.04 377.73 -126.69 369.29 -129.38 356.78 C-130.07 352.97 -130.6 349.16 -131.1 345.32 C-131.33 343.78 -131.56 342.24 -131.79 340.7 C-132.33 337.11 -132.84 333.52 -133.3 329.92 C-133.57 327.85 -133.86 325.8 -134.16 323.74 C-135.51 313.93 -135.95 304.38 -135.91 294.49 C-135.91 292.89 -135.91 291.29 -135.91 289.69 C-135.92 285.4 -135.91 281.1 -135.9 276.8 C-135.89 272.24 -135.89 267.68 -135.89 263.12 C-135.89 255.44 -135.88 247.76 -135.87 240.08 C-135.85 231.33 -135.85 222.57 -135.85 213.82 C-135.85 204.36 -135.84 194.91 -135.83 185.45 C-135.83 182.8 -135.83 180.14 -135.83 177.49 C-135.83 165.7 -135.78 153.92 -135.66 142.13 C-135.65 141.2 -135.65 140.26 -135.64 139.3 C-135.58 133.43 -135.49 127.56 -135.39 121.69 C-135.36 119.82 -135.33 117.96 -135.31 116.09 C-135.14 102.8 -134.17 90.85 -127.85 78.88 C-127.5 78.2 -127.15 77.52 -126.79 76.82 C-121.79 67.33 -115.42 59.3 -106.48 53.26 C-101.96 49.95 -100.48 46.32 -98.66 41.13 C-93.6 27.09 -87.76 15.92 -74.23 8.45 C-62.59 3.2 -51.29 0.84 -38.58 0.5 C-36.88 0.45 -36.88 0.45 -35.15 0.39 C-23.43 0.04 -11.72 -0.01 0 0 Z M102.94 124.72 C102.07 124.85 101.19 124.97 100.29 125.1 C98.52 125.36 96.75 125.62 94.98 125.89 C79.14 128.16 63.43 129.29 47.43 129.12 C45.52 129.11 45.52 129.11 43.57 129.1 C32.71 129.04 32.71 129.04 27.81 128.91 C23.91 128.81 20.02 128.81 16.12 128.81 C14.93 128.77 13.75 128.72 12.53 128.67 C9.09 128.71 6.55 128.89 3.34 130.13 C0.03 133.74 -1.81 137.63 -3.66 142.13 C-4.21 143.34 -4.21 143.34 -4.78 144.58 C-7.05 150.25 -6.72 155.12 -5.86 161.07 C-5.75 162 -5.63 162.93 -5.51 163.88 C-5.15 166.82 -4.75 169.76 -4.35 172.7 C-2 190.5 -1.05 207.09 -3.04 224.99 C-5.09 243.42 -6.32 261.91 -6.91 280.45 C-7 282.93 -7.1 285.42 -7.22 287.9 C-8.47 303.06 -8.47 303.06 -3.2 316.73 C5.49 323.16 18.03 321.02 28.21 320.51 C30.63 320.42 33.04 320.34 35.45 320.26 C52.66 319.63 69.82 318.35 86.94 316.51 C106.43 314.41 124.37 315.58 143.79 318.22 C146.67 318.61 149.55 318.97 152.43 319.33 C153.29 319.46 154.16 319.58 155.04 319.71 C163.98 320.8 170.72 317.73 178.4 313.45 C179.52 312.82 180.65 312.2 181.81 311.56 C182.64 311.09 183.48 310.62 184.34 310.13 C182.78 299.64 175.75 288.54 168.34 281.13 C166.7 280.08 165.04 279.06 163.34 278.13 C162.96 278.63 162.58 279.13 162.19 279.64 C157.36 285.6 151.97 289.35 145.34 293.13 C144.69 293.51 144.04 293.89 143.38 294.28 C136.79 297.87 129.48 299.93 122.34 302.13 C121.13 302.53 121.13 302.53 119.89 302.93 C107.93 306.29 93.35 302.59 81.31 300.71 C78.77 300.32 76.24 299.94 73.7 299.57 C55.51 296.81 37.36 293.34 25.58 277.82 C17.04 264.46 15.76 249.23 13.65 233.88 C13.34 231.69 13.03 229.5 12.72 227.31 C12.02 222.42 11.33 217.52 10.67 212.62 C10.45 211.01 10.23 209.41 10 207.8 C8.58 197.7 13.65 187.84 19.27 179.6 C27.92 169.25 41.29 164.21 54.34 162.13 C58.66 161.86 62.97 161.86 67.3 161.85 C69.82 161.81 72.33 161.78 74.85 161.73 C78.78 161.68 82.71 161.63 86.65 161.63 C103.81 162.46 103.81 162.46 118.62 155.41 C121.3 152.46 122.26 150.97 122.62 146.99 C121.84 139.21 118.07 131.61 113.27 125.51 C110.06 123.23 106.63 124.17 102.94 124.72 Z " fill="#000002" transform="translate(182.6640625,143.8671875)"/>
<path d="M0 0 C1.34 -0.01 1.34 -0.01 2.71 -0.02 C5.69 -0.03 8.66 -0.04 11.63 -0.05 C13.77 -0.06 15.92 -0.07 18.06 -0.08 C25.07 -0.11 32.08 -0.13 39.09 -0.15 C40.29 -0.15 41.48 -0.15 42.72 -0.16 C54.01 -0.19 65.3 -0.22 76.6 -0.23 C91 -0.25 105.41 -0.3 119.81 -0.37 C129.96 -0.41 140.11 -0.44 150.27 -0.44 C156.32 -0.45 162.37 -0.46 168.42 -0.5 C174.12 -0.54 179.82 -0.55 185.52 -0.54 C187.6 -0.54 189.68 -0.55 191.76 -0.57 C204.64 -0.69 214.86 0.63 226.55 6.16 C227.61 6.66 228.67 7.16 229.77 7.67 C240.32 12.84 249.07 21.43 255.55 31.16 C257.59 32.21 257.59 32.21 259.99 32.99 C260.88 33.31 261.77 33.63 262.69 33.96 C264.11 34.46 264.11 34.46 265.55 34.97 C279.79 40.23 291.49 46.09 298.37 60.47 C311.78 93.1 306.75 132.68 306.79 167.25 C306.79 169.24 306.8 171.23 306.8 173.21 C306.82 184.94 306.83 196.67 306.84 208.4 C306.84 211.24 306.85 214.08 306.85 216.93 C306.85 217.63 306.85 218.34 306.85 219.07 C306.86 230.51 306.88 241.96 306.92 253.4 C306.95 265.24 306.97 277.08 306.97 288.93 C306.97 295.54 306.98 302.15 307.01 308.76 C307.2 362.51 307.2 362.51 302.55 385.16 C302.35 386.15 302.15 387.15 301.94 388.17 C299.76 398.5 297.19 408.1 291.55 417.16 C291.06 417.95 290.58 418.75 290.07 419.57 C278.29 436.56 258.06 440.4 239.09 444.05 C223.41 446.78 208.37 447.45 192.48 447.4 C190.08 447.4 187.69 447.41 185.29 447.41 C179.5 447.41 173.71 447.41 167.92 447.4 C161.14 447.39 154.37 447.39 147.59 447.39 C135.47 447.39 123.36 447.38 111.24 447.37 C99.55 447.35 87.86 447.35 76.17 447.35 C75.09 447.35 75.09 447.35 73.99 447.35 C72.91 447.35 72.91 447.35 71.81 447.35 C58.42 447.35 45.03 447.34 31.64 447.33 C26.95 447.33 22.25 447.33 17.56 447.33 C11.2 447.33 4.84 447.32 -1.52 447.31 C-3.83 447.31 -6.14 447.31 -8.45 447.31 C-20.44 447.31 -32.41 447.18 -44.39 446.78 C-45.44 446.76 -46.5 446.73 -47.59 446.7 C-63.83 446.09 -80.3 441.64 -92.76 430.72 C-99.99 422.87 -104.39 411.6 -107.36 401.49 C-109.55 396.78 -113.95 393.69 -117.8 390.32 C-131.28 378.41 -140.14 362.66 -141.78 344.52 C-141.96 340.07 -142.05 335.64 -142.11 331.2 C-142.14 329.37 -142.17 327.54 -142.2 325.71 C-142.32 318.86 -142.38 312.01 -142.45 305.16 C-142.46 303.72 -142.47 302.27 -142.49 300.83 C-142.69 279.79 -142.8 258.75 -142.84 237.7 C-142.86 228.19 -142.89 218.68 -142.95 209.17 C-143.73 89.82 -143.73 89.82 -123.17 68.84 C-119.92 65.83 -116.79 63.21 -112.82 61.22 C-108.92 58.84 -107 56.29 -104.32 52.66 C-98.42 44.79 -91.62 37.69 -83.45 32.16 C-82.79 32.16 -82.13 32.16 -81.45 32.16 C-81.06 31.07 -81.06 31.07 -80.67 29.97 C-76.26 19.88 -66.38 10.75 -56.45 6.16 C-53.66 5.41 -50.88 5.04 -48.02 4.71 C-47.23 4.61 -46.45 4.51 -45.63 4.4 C-43.14 4.08 -40.64 3.77 -38.13 3.47 C-36.47 3.26 -34.8 3.05 -33.14 2.83 C-28.58 2.25 -24.01 1.68 -19.45 1.16 C-18.31 1.03 -18.31 1.03 -17.16 0.9 C-11.42 0.28 -5.77 0.01 0 0 Z M-11.7 134.01 C-15.04 140.02 -14.81 146.15 -14.69 152.82 C-14.7 154.38 -14.71 155.94 -14.73 157.51 C-14.76 161.72 -14.73 165.94 -14.69 170.16 C-14.65 174.59 -14.67 179.03 -14.68 183.46 C-14.68 190.92 -14.65 198.37 -14.59 205.82 C-14.52 214.4 -14.51 222.98 -14.53 231.56 C-14.55 239.85 -14.54 248.14 -14.5 256.43 C-14.49 259.94 -14.48 263.45 -14.49 266.96 C-14.5 271.11 -14.47 275.25 -14.42 279.4 C-14.41 280.91 -14.41 282.42 -14.42 283.93 C-14.49 295.53 -11.67 303.93 -6.45 314.16 C-5.59 315.87 -5.59 315.87 -4.72 317.62 C-4.3 318.46 -3.88 319.3 -3.45 320.16 C17.35 320.39 38.16 320.57 58.96 320.68 C68.62 320.73 78.28 320.8 87.94 320.92 C96.36 321.01 104.78 321.08 113.2 321.1 C117.66 321.11 122.12 321.14 126.57 321.22 C130.78 321.29 134.98 321.31 139.18 321.29 C140.71 321.29 142.25 321.31 143.78 321.35 C151.57 321.54 157.39 321.11 163.49 315.78 C165.21 313.94 166.9 312.06 168.55 310.16 C169.42 309.32 170.29 308.48 171.19 307.62 C177.22 301.38 178.7 296.06 178.67 287.51 C178.64 286.02 178.61 284.53 178.57 283.04 C178.57 281.44 178.57 279.85 178.58 278.25 C178.58 273.94 178.53 269.64 178.47 265.33 C178.41 260.82 178.4 256.31 178.39 251.8 C178.37 243.27 178.29 234.74 178.2 226.22 C178.1 216.5 178.05 206.79 178.01 197.07 C177.91 177.1 177.75 157.13 177.55 137.16 C174.78 135.68 172.01 134.2 169.24 132.72 C168.45 132.3 167.67 131.88 166.86 131.45 C166.1 131.04 165.35 130.64 164.56 130.23 C163.52 129.67 163.52 129.67 162.45 129.1 C158.57 127.18 155.43 127.02 151.15 126.97 C150.17 126.96 150.17 126.96 149.17 126.95 C146.98 126.92 144.78 126.91 142.59 126.89 C141.02 126.87 139.45 126.86 137.88 126.84 C123.54 126.69 109.19 126.62 94.85 126.56 C84.25 126.52 73.65 126.44 63.06 126.32 C55.6 126.24 48.14 126.19 40.69 126.18 C36.24 126.17 31.79 126.14 27.34 126.07 C23.14 126.01 18.95 125.99 14.76 126.01 C13.23 126.01 11.69 125.99 10.16 125.96 C1.05 125.75 -5.52 126.71 -11.7 134.01 Z " fill="#000002" transform="translate(189.44692993164063,688.8393707275391)"/>
<path d="M0 0 C2.25 -0.01 4.5 -0.01 6.74 -0.02 C12.84 -0.04 18.95 -0.03 25.05 -0.02 C30.98 -0.01 36.9 -0.02 42.83 -0.03 C55.69 -0.06 68.54 -0.06 81.4 -0.04 C92.65 -0.03 103.9 -0.03 115.15 -0.03 C115.9 -0.03 116.65 -0.03 117.42 -0.04 C120.46 -0.04 123.51 -0.04 126.55 -0.04 C155.02 -0.06 183.5 -0.04 211.97 -0.01 C237.22 0.01 262.46 0.01 287.71 -0.02 C316.14 -0.04 344.56 -0.05 372.99 -0.04 C376.02 -0.04 379.06 -0.04 382.09 -0.03 C382.84 -0.03 383.59 -0.03 384.36 -0.03 C395.6 -0.03 406.83 -0.03 418.07 -0.05 C430.86 -0.06 443.65 -0.06 456.44 -0.03 C462.96 -0.02 469.48 -0.01 475.99 -0.03 C481.97 -0.04 487.95 -0.03 493.94 -0.01 C496.08 -0 498.23 -0.01 500.38 -0.02 C525.6 -0.15 551.16 3.46 570.62 20.63 C572.16 21.81 573.7 22.98 575.25 24.13 C581.47 28.97 588.05 34.49 591.62 41.63 C590.59 55.38 580.06 68.34 570.62 77.63 C569.96 77.63 569.3 77.63 568.62 77.63 C568.32 78.79 568.32 78.79 568 79.96 C560.44 100.09 546.99 117.01 527.49 126.28 C520.11 129.41 512.94 130.1 504.99 130.29 C503.79 130.32 502.59 130.36 501.36 130.39 C482.64 130.87 463.92 130.78 445.2 130.77 C439.39 130.76 433.58 130.77 427.76 130.77 C416.41 130.77 405.06 130.77 393.71 130.77 C384.48 130.77 375.24 130.77 366.01 130.77 C365.35 130.77 364.69 130.77 364.01 130.77 C361.33 130.77 358.66 130.77 355.98 130.77 C330.93 130.77 305.88 130.77 280.83 130.76 C258.65 130.76 236.46 130.76 214.28 130.77 C189.27 130.77 164.26 130.77 139.25 130.77 C136.58 130.77 133.91 130.77 131.24 130.77 C129.92 130.77 128.61 130.77 127.25 130.77 C118.04 130.77 108.83 130.77 99.62 130.77 C88.38 130.77 77.14 130.77 65.89 130.77 C60.17 130.77 54.45 130.76 48.72 130.77 C9.37 130.79 9.37 130.79 -7.74 130.28 C-8.83 130.26 -9.91 130.23 -11.02 130.2 C-27.14 129.61 -41.37 122.33 -52.32 110.54 C-56.65 105.55 -59.97 100.16 -63.25 94.45 C-63.82 93.49 -64.39 92.53 -64.97 91.54 C-67.19 87.74 -69.17 84.29 -70.51 80.08 C-71.12 77.52 -71.12 77.52 -73.21 76.58 C-73.92 76.27 -74.64 75.96 -75.38 75.63 C-81.51 69.61 -86.1 62.92 -89.94 55.26 C-90.27 54.59 -90.61 53.93 -90.95 53.24 C-92.78 49.41 -94.22 45.9 -94.38 41.63 C-93.22 39.36 -93.22 39.36 -91.44 37.26 C-90.79 36.49 -90.13 35.72 -89.46 34.93 C-88.77 34.17 -88.09 33.42 -87.38 32.63 C-86.44 31.59 -86.44 31.59 -85.48 30.53 C-81.31 26.14 -76.83 22.65 -71.8 19.29 C-69.63 17.81 -67.65 16.24 -65.63 14.57 C-47.32 1.02 -21.89 -0.12 0 0 Z " fill="#000002" transform="translate(631.376953125,783.3650817871094)"/>
<path d="M0 0 C0.91 -0 1.81 -0.01 2.75 -0.01 C5.8 -0.03 8.85 -0.02 11.9 -0.02 C14.1 -0.03 16.31 -0.03 18.51 -0.04 C24.58 -0.06 30.65 -0.07 36.72 -0.07 C42.59 -0.07 48.46 -0.09 54.33 -0.1 C70.06 -0.14 85.78 -0.16 101.51 -0.17 C108.96 -0.18 116.4 -0.18 123.84 -0.19 C149.33 -0.22 174.81 -0.25 200.3 -0.26 C201.9 -0.26 203.5 -0.26 205.1 -0.26 C206.29 -0.26 206.29 -0.26 207.5 -0.26 C211.52 -0.27 215.54 -0.27 219.56 -0.27 C220.76 -0.27 220.76 -0.27 221.98 -0.27 C247.83 -0.28 273.68 -0.32 299.53 -0.38 C326.87 -0.44 354.21 -0.47 381.55 -0.47 C384.56 -0.47 387.56 -0.48 390.57 -0.48 C391.67 -0.48 391.67 -0.48 392.81 -0.48 C404.69 -0.48 416.58 -0.51 428.46 -0.54 C440.42 -0.58 452.37 -0.59 464.33 -0.57 C470.8 -0.56 477.27 -0.56 483.75 -0.6 C489.68 -0.63 495.61 -0.62 501.54 -0.6 C503.68 -0.59 505.82 -0.6 507.96 -0.62 C525.08 -0.77 538.3 2.55 552.06 13.27 C552.74 13.79 553.42 14.31 554.13 14.84 C559.58 19.28 563.21 24.44 567.06 30.27 C568.63 32.54 570.22 34.81 571.81 37.08 C579.06 47.48 579.06 47.48 579.06 50.27 C579.62 50.49 580.18 50.71 580.76 50.95 C588.52 55.4 593.72 64.85 597.62 72.64 C597.96 73.31 598.29 73.97 598.63 74.66 C600.46 78.49 601.9 82 602.06 86.27 C600.91 88.54 600.91 88.54 599.12 90.64 C598.47 91.41 597.82 92.18 597.14 92.97 C596.11 94.11 596.11 94.11 595.06 95.27 C594.12 96.31 594.12 96.31 593.16 97.38 C588.99 101.77 584.51 105.25 579.48 108.61 C577.31 110.09 575.33 111.66 573.31 113.33 C555 126.88 529.57 128.03 507.68 127.9 C505.43 127.91 503.19 127.91 500.94 127.92 C494.84 127.94 488.74 127.93 482.63 127.92 C476.71 127.91 470.78 127.92 464.85 127.94 C451.99 127.96 439.14 127.96 426.28 127.94 C415.03 127.93 403.78 127.93 392.53 127.93 C391.41 127.94 391.41 127.94 390.26 127.94 C387.22 127.94 384.18 127.94 381.14 127.94 C352.66 127.96 324.19 127.94 295.71 127.92 C270.46 127.89 245.22 127.89 219.97 127.92 C191.55 127.94 163.12 127.95 134.69 127.94 C131.66 127.94 128.62 127.94 125.59 127.93 C124.84 127.93 124.09 127.93 123.32 127.93 C112.09 127.93 100.85 127.93 89.61 127.95 C76.82 127.96 64.03 127.96 51.24 127.93 C44.72 127.92 38.21 127.91 31.69 127.93 C25.71 127.94 19.73 127.94 13.75 127.91 C11.6 127.9 9.45 127.91 7.3 127.92 C-17.92 128.05 -43.48 124.44 -62.94 107.27 C-64.48 106.09 -66.02 104.92 -67.57 103.77 C-73.79 98.93 -80.37 93.41 -83.94 86.27 C-82.91 72.52 -72.38 59.56 -62.94 50.27 C-62.28 50.27 -61.62 50.27 -60.94 50.27 C-60.68 49.55 -60.41 48.83 -60.14 48.09 C-51.11 26.79 -34.88 11.13 -13.94 2.27 C-13.24 1.92 -12.54 1.56 -11.81 1.2 C-7.84 -0.09 -4.16 -0.02 0 0 Z " fill="#000002" transform="translate(620.9414567947388,208.7343511581421)"/>
<path d="M0 0 C4.03 0.01 8.06 -0 12.09 -0.01 C19.96 -0.03 27.82 -0.02 35.68 -0.01 C42.09 0.01 48.49 0.01 54.9 0.01 C56.27 0.01 56.27 0.01 57.68 0.01 C59.54 0.01 61.41 0.01 63.27 0 C79.71 -0 96.15 0.01 112.58 0.04 C128.45 0.07 144.33 0.08 160.2 0.06 C177.56 0.05 194.92 0.04 212.28 0.06 C214.14 0.06 216 0.06 217.86 0.06 C218.77 0.07 219.69 0.07 220.63 0.07 C227.01 0.07 233.39 0.07 239.76 0.06 C247.56 0.06 255.36 0.06 263.16 0.09 C267.13 0.1 271.09 0.11 275.05 0.09 C348.48 -0.1 348.48 -0.1 370.72 20.08 C376.72 26.58 382.2 35.28 383.79 44.1 C383.64 46.47 383.09 48.38 382.35 50.64 C382.04 51.81 381.73 52.97 381.42 54.17 C376.21 73.24 367.08 87.87 352.28 100.97 C349.69 103.33 347.3 105.77 344.91 108.33 C327.95 125.38 302.92 131.02 279.75 131.15 C276.49 131.15 273.22 131.14 269.96 131.12 C266.41 131.1 262.86 131.11 259.3 131.12 C252.36 131.12 245.42 131.11 238.48 131.08 C230.37 131.06 222.26 131.06 214.15 131.06 C199.64 131.05 185.14 131.03 170.64 131 C156.63 130.96 142.63 130.94 128.62 130.93 C127.76 130.93 126.9 130.93 126.01 130.93 C122.54 130.93 119.08 130.93 115.62 130.93 C101.38 130.92 87.14 130.9 72.89 130.88 C69.67 130.88 66.45 130.88 63.23 130.87 C54.75 130.86 46.27 130.85 37.79 130.83 C34.29 130.82 30.79 130.81 27.3 130.81 C13.54 130.8 -0.22 130.68 -13.97 130.28 C-15.12 130.26 -16.26 130.23 -17.44 130.21 C-32.84 129.69 -46.58 123.68 -57.56 112.73 C-62.78 107.12 -66.72 101.08 -70.53 94.45 C-71.1 93.49 -71.66 92.53 -72.25 91.55 C-74.46 87.75 -76.45 84.29 -77.79 80.09 C-78.4 77.52 -78.4 77.52 -80.48 76.58 C-81.2 76.27 -81.91 75.96 -82.65 75.64 C-88.78 69.61 -93.38 62.92 -97.22 55.26 C-97.55 54.6 -97.88 53.93 -98.23 53.25 C-100.06 49.41 -101.5 45.91 -101.65 41.64 C-100.5 39.37 -100.5 39.37 -98.72 37.26 C-98.06 36.5 -97.41 35.73 -96.74 34.94 C-96.05 34.18 -95.36 33.42 -94.65 32.64 C-93.71 31.59 -93.71 31.59 -92.75 30.53 C-88.59 26.14 -84.1 22.65 -79.07 19.29 C-76.91 17.81 -74.93 16.24 -72.9 14.58 C-52.39 -0.6 -24.32 -0.12 0 0 Z " fill="#000002" transform="translate(638.6530460119247,943.3610357046127)"/>
<path d="M0 0 C1.69 -0.01 1.69 -0.01 3.41 -0.02 C5.26 -0.02 5.26 -0.02 7.14 -0.02 C8.46 -0.02 9.77 -0.03 11.12 -0.04 C14.76 -0.05 18.41 -0.06 22.05 -0.06 C25.98 -0.06 29.91 -0.08 33.84 -0.09 C42.43 -0.12 51.03 -0.13 59.62 -0.14 C65 -0.14 70.37 -0.15 75.75 -0.16 C90.64 -0.18 105.54 -0.21 120.44 -0.21 C121.39 -0.21 122.35 -0.21 123.33 -0.21 C124.28 -0.21 125.24 -0.21 126.22 -0.21 C128.16 -0.22 130.1 -0.22 132.03 -0.22 C133.48 -0.22 133.48 -0.22 134.95 -0.22 C150.48 -0.23 166.01 -0.26 181.54 -0.31 C197.51 -0.36 213.48 -0.38 229.44 -0.38 C238.4 -0.38 247.36 -0.4 256.31 -0.43 C263.95 -0.46 271.58 -0.47 279.22 -0.46 C283.1 -0.45 286.99 -0.45 290.88 -0.48 C307.87 -0.6 323.32 0.21 339.38 6.26 C340.59 6.7 341.8 7.14 343.05 7.6 C354.82 12.08 364.31 18.63 373.38 27.26 C374.39 28.16 375.41 29.05 376.43 29.93 C391.24 42.89 398.25 58.57 403.38 77.26 C403.65 78.07 403.92 78.88 404.2 79.72 C405.99 87.07 401.27 94.28 397.59 100.4 C389.87 112.34 377.11 119.01 363.53 122.04 C359.17 122.94 354.78 123.59 350.38 124.26 C349.07 124.47 349.07 124.47 347.72 124.67 C329.99 127.31 312.4 127.71 294.51 127.68 C290.47 127.68 286.42 127.7 282.38 127.71 C274.49 127.73 266.61 127.73 258.72 127.73 C252.3 127.73 245.88 127.73 239.47 127.74 C219.21 127.77 198.96 127.77 178.71 127.76 C162.8 127.76 146.89 127.78 130.98 127.81 C114.57 127.84 98.16 127.86 81.75 127.86 C72.57 127.85 63.38 127.86 54.2 127.88 C46.38 127.9 38.57 127.91 30.75 127.89 C26.78 127.88 22.8 127.88 18.83 127.9 C-9.18 128.04 -37.68 126.63 -59.62 107.26 C-61.15 106.09 -62.69 104.92 -64.24 103.76 C-70.47 98.93 -77.04 93.41 -80.62 86.26 C-79.59 72.52 -69.06 59.56 -59.62 50.26 C-58.96 50.26 -58.3 50.26 -57.62 50.26 C-57.35 49.54 -57.09 48.82 -56.81 48.08 C-47.79 26.79 -31.55 11.13 -10.62 2.26 C-9.85 1.91 -9.08 1.56 -8.28 1.2 C-5.35 0.17 -3.1 0.01 0 0 Z " fill="#000002" transform="translate(617.6166076660156,368.73714447021484)"/>
</svg>
