<?xml version="1.0" encoding="UTF-8"?>
<!-- Generator: visioncortex VTracer 0.6.3 -->
<svg version="1.1" xmlns="http://www.w3.org/2000/svg" width="1280" height="1280">
<path d="M0 0 C0.88 -0 1.77 -0 2.68 -0.01 C5.6 -0.01 8.52 -0.01 11.45 -0 C13.48 -0 15.5 -0.01 17.53 -0.01 C21.79 -0.01 26.04 -0.01 30.29 -0 C35.75 0 41.21 0 46.67 -0 C50.86 -0.01 55.05 -0.01 59.24 -0 C61.25 -0 63.26 -0 65.28 -0.01 C68.09 -0.01 70.9 -0.01 73.71 0 C74.54 -0 75.38 -0 76.24 -0.01 C79.53 0.01 82.21 0.08 85.35 1.13 C88.15 1.31 90.93 1.45 93.73 1.57 C101.39 1.94 108.79 2.83 116.35 4.13 C117.92 4.37 119.49 4.62 121.06 4.86 C121.89 4.98 122.73 5.11 123.58 5.24 C125.21 5.49 126.84 5.74 128.47 5.99 C135.05 7.01 141.51 8.3 147.91 10.16 C152.42 11.43 156.96 12.2 161.57 12.98 C165.4 13.67 168.78 14.62 172.35 16.13 C173.96 16.35 173.96 16.35 175.6 16.57 C179.19 17.1 182.19 18 185.59 19.18 C189.03 20.36 192.5 21.43 195.98 22.5 C217.13 29.08 217.13 29.08 226.71 33.04 C229.37 34.14 232.05 35.19 234.73 36.24 C245.12 40.34 255.2 45 265.17 50.05 C266.99 50.95 268.86 51.77 270.73 52.57 C278.77 56.03 286.44 60.07 293.89 64.65 C296.32 66.11 298.79 67.44 301.29 68.75 C314.85 76.09 327.67 84.84 340.28 93.68 C342.56 95.27 344.84 96.84 347.13 98.41 C348.7 99.51 350.28 100.6 351.85 101.69 C352.6 102.2 353.35 102.72 354.12 103.25 C355.9 104.49 357.63 105.8 359.35 107.13 C359.35 107.79 359.35 108.45 359.35 109.13 C360.28 109.59 360.28 109.59 361.23 110.07 C362.6 110.75 363.98 111.44 365.35 112.13 C365.35 112.79 365.35 113.45 365.35 114.13 C366.67 114.46 367.99 114.79 369.35 115.13 C369.35 115.79 369.35 116.45 369.35 117.13 C370.22 117.53 370.22 117.53 371.1 117.94 C373.41 119.16 375.37 120.43 377.35 122.13 C377.35 122.79 377.35 123.45 377.35 124.13 C377.93 124.4 378.51 124.67 379.1 124.95 C381.39 126.15 383.35 127.5 385.42 129.07 C386.42 129.82 386.42 129.82 387.45 130.59 C389.23 132.03 390.85 133.41 392.35 135.13 C392.35 135.79 392.35 136.45 392.35 137.13 C393.31 137.53 393.31 137.53 394.29 137.94 C396.35 139.13 396.35 139.13 397.35 142.13 C398.67 142.83 400.01 143.49 401.35 144.13 C402.69 145.29 403.99 146.5 405.24 147.75 C405.95 148.46 406.66 149.17 407.39 149.9 C408.12 150.63 408.85 151.37 409.6 152.13 C410.35 152.87 411.09 153.6 411.86 154.36 C412.92 155.42 412.92 155.42 413.99 156.5 C414.64 157.15 415.28 157.8 415.95 158.47 C417.35 160.13 417.35 160.13 417.35 162.13 C418.31 162.53 418.31 162.53 419.29 162.94 C421.35 164.13 421.35 164.13 422.35 167.13 C423.01 167.13 423.67 167.13 424.35 167.13 C425.94 168.7 425.94 168.7 427.73 170.82 C428.35 171.55 428.96 172.27 429.6 173.02 C430.18 173.72 430.76 174.41 431.35 175.13 C432.16 176.08 432.96 177.03 433.79 178 C435.35 180.13 435.35 180.13 435.35 182.13 C436.01 182.13 436.67 182.13 437.35 182.13 C442.35 187.61 442.35 187.61 442.35 190.13 C443.01 190.13 443.67 190.13 444.35 190.13 C444.68 191.45 445.01 192.77 445.35 194.13 C446.01 194.13 446.67 194.13 447.35 194.13 C448.8 195.86 450.16 197.67 451.48 199.5 C452.2 200.5 452.93 201.5 453.67 202.53 C455.35 205.13 455.35 205.13 455.35 207.13 C456.01 207.13 456.67 207.13 457.35 207.13 C458.75 208.79 458.75 208.79 460.37 211.12 C460.96 211.96 461.55 212.81 462.15 213.68 C462.78 214.59 463.4 215.5 464.04 216.44 C464.99 217.81 464.99 217.81 465.96 219.22 C469.77 224.74 473.49 230.29 477.02 236 C478.22 237.92 479.49 239.77 480.79 241.63 C482.35 244.13 482.35 244.13 482.35 247.13 C483.01 247.13 483.67 247.13 484.35 247.13 C485.08 248.44 485.81 249.75 486.54 251.07 C487 251.9 487.46 252.73 487.94 253.58 C488.8 255.13 489.66 256.69 490.52 258.24 C492.37 261.58 494.23 264.92 496.17 268.21 C501.08 276.61 505.34 285.18 509.38 294.02 C510.33 296.08 511.3 298.12 512.27 300.16 C515.34 306.58 518.13 312.99 520.46 319.72 C521.29 321.95 522.24 323.97 523.35 326.07 C525.58 330.31 526.96 334.77 528.42 339.33 C529.35 342.26 529.35 342.26 530.85 345.5 C532.68 349.93 533.9 354.42 535.18 359.03 C536.72 364.5 538.48 369.9 540.25 375.29 C541.72 379.86 542.92 384.41 543.92 389.11 C544.46 391.63 545.14 394.09 545.85 396.57 C547.03 400.8 548 405.03 548.82 409.34 C549.22 411.44 549.64 413.54 550.07 415.63 C552.51 427.53 554.35 439.41 555.66 451.48 C555.99 454.52 556.38 457.22 557.35 460.13 C557.49 461.61 557.58 463.1 557.63 464.59 C557.67 465.45 557.71 466.32 557.75 467.21 C557.78 468.11 557.82 469.01 557.85 469.94 C558.07 475.44 558.43 480.7 559.35 486.13 C559.62 489.36 559.77 492.58 559.92 495.82 C559.96 496.77 560 497.72 560.04 498.7 C560.9 520.35 561.44 542.64 558.35 564.13 C558.25 566.11 558.14 568.09 558.06 570.08 C557.47 585.42 554.97 600.5 552.04 615.55 C551.41 618.86 550.83 622.18 550.29 625.5 C549.15 632.46 547.91 639.31 545.94 646.09 C545.27 648.41 544.65 650.73 544.02 653.06 C541.04 664.17 537.91 675.19 534.35 686.13 C534.14 686.8 533.92 687.46 533.7 688.15 C531.5 694.94 529.18 701.57 526.35 708.13 C525.4 710.65 524.47 713.17 523.54 715.69 C519.55 726.43 515.09 736.87 509.88 747.09 C507.23 752.37 504.8 757.75 502.35 763.13 C501.69 763.13 501.03 763.13 500.35 763.13 C500.17 764.24 500.17 764.24 499.99 765.37 C499.37 768.07 498.55 769.93 497.17 772.32 C496.72 773.09 496.27 773.87 495.81 774.66 C493.81 778.04 491.8 781.41 489.77 784.77 C487.14 789.14 484.56 793.53 482.35 798.13 C481.69 798.13 481.03 798.13 480.35 798.13 C480.26 798.68 480.16 799.23 480.06 799.79 C479.17 802.75 477.72 804.97 476.04 807.57 C475.45 808.49 474.85 809.42 474.24 810.38 C472.35 813.13 472.35 813.13 470.19 815.79 C468.19 818.07 468.19 818.07 467.35 821.13 C466.69 821.13 466.03 821.13 465.35 821.13 C465.04 821.91 464.73 822.7 464.42 823.5 C463.35 826.13 463.35 826.13 462.35 828.13 C461.69 828.13 461.03 828.13 460.35 828.13 C460.13 828.82 459.9 829.51 459.67 830.22 C458.04 833.82 455.77 836.7 453.29 839.75 C452.56 840.66 452.56 840.66 451.82 841.59 C450.34 843.44 448.85 845.29 447.35 847.13 C446.89 847.7 446.43 848.27 445.96 848.85 C443.44 851.95 440.9 855.05 438.35 858.13 C442.18 862.71 446.14 867.06 450.38 871.27 C451.25 872.13 451.25 872.13 452.13 873.02 C454.06 874.95 456 876.87 457.93 878.8 C459.33 880.2 460.73 881.6 462.13 883 C465.18 886.04 468.22 889.07 471.27 892.11 C476.23 897.05 481.18 901.99 486.13 906.94 C493.32 914.12 500.52 921.29 507.71 928.47 C518.6 939.33 529.49 950.21 540.38 961.08 C542.79 963.49 545.21 965.91 547.63 968.32 C548.11 968.8 548.59 969.29 549.09 969.78 C550.07 970.76 551.04 971.73 552.02 972.71 C553 973.69 553.98 974.67 554.96 975.64 C566.52 987.18 578.07 998.72 589.63 1010.26 C590.39 1011.02 590.39 1011.02 591.16 1011.79 C607.55 1028.16 623.95 1044.51 640.35 1060.87 C657.22 1077.7 674.08 1094.54 690.94 1111.38 C693.32 1113.76 695.7 1116.14 698.09 1118.52 C698.56 1118.99 699.02 1119.46 699.51 1119.94 C707.5 1127.93 715.51 1135.91 723.52 1143.89 C730.64 1150.99 737.75 1158.09 744.86 1165.2 C748.96 1169.3 753.06 1173.4 757.17 1177.49 C760.94 1181.23 764.7 1184.99 768.45 1188.75 C769.8 1190.11 771.16 1191.46 772.52 1192.81 C792.01 1212.11 792.01 1212.11 792.55 1219.97 C792.48 1220.68 792.42 1221.39 792.35 1222.13 C793.01 1222.13 793.67 1222.13 794.35 1222.13 C794.5 1226.42 794.59 1230.71 794.67 1235 C794.71 1236.21 794.75 1237.41 794.79 1238.65 C794.9 1246.82 793.61 1252.19 789.35 1259.13 C788.67 1260.46 788 1261.79 787.35 1263.13 C786.69 1263.13 786.03 1263.13 785.35 1263.13 C785.11 1263.71 784.86 1264.28 784.6 1264.88 C783.17 1267.46 781.57 1269.19 779.35 1271.13 C778.69 1271.13 778.03 1271.13 777.35 1271.13 C777.35 1271.79 777.35 1272.45 777.35 1273.13 C775.96 1273.92 774.56 1274.72 773.17 1275.5 C772 1276.17 772 1276.17 770.81 1276.84 C763.97 1280.43 758.23 1280.5 750.6 1280.5 C749.46 1280.53 748.32 1280.55 747.14 1280.58 C730.74 1280.64 719.97 1271.03 708.81 1259.97 C706.86 1258.02 704.91 1256.07 702.97 1254.11 C701.54 1252.68 700.11 1251.26 698.69 1249.83 C694.78 1245.93 690.89 1242.03 686.99 1238.12 C682.79 1233.9 678.57 1229.69 674.35 1225.47 C667.06 1218.18 659.77 1210.88 652.48 1203.58 C644.85 1195.92 637.2 1188.27 629.56 1180.62 C629.08 1180.14 628.61 1179.67 628.12 1179.18 C625.7 1176.76 623.28 1174.34 620.86 1171.92 C603.75 1154.8 586.65 1137.68 569.55 1120.55 C552.94 1103.92 536.34 1087.29 519.72 1070.66 C519.21 1070.15 518.7 1069.64 518.17 1069.11 C513.02 1063.96 507.87 1058.81 502.73 1053.66 C492.24 1043.16 481.76 1032.67 471.28 1022.18 C470.79 1021.7 470.31 1021.21 469.81 1020.72 C437.65 988.53 405.5 956.33 373.35 924.13 C372.07 925.09 370.79 926.05 369.51 927.01 C368.79 927.54 368.08 928.08 367.35 928.63 C365.14 930.29 362.97 931.99 360.81 933.71 C360.05 934.31 359.28 934.91 358.5 935.54 C356.93 936.78 355.36 938.02 353.8 939.27 C352.66 940.17 352.66 940.17 351.5 941.08 C350.82 941.62 350.14 942.16 349.45 942.71 C347.17 944.25 344.93 945.2 342.35 946.13 C342.35 946.79 342.35 947.45 342.35 948.13 C340.67 949.42 340.67 949.42 338.48 950.75 C337.76 951.2 337.04 951.65 336.3 952.11 C334.35 953.13 334.35 953.13 332.35 953.13 C332.35 953.79 332.35 954.45 332.35 955.13 C330.49 956.64 330.49 956.64 328.04 958.25 C327.24 958.79 326.44 959.33 325.62 959.89 C323.35 961.13 323.35 961.13 320.35 961.13 C320.35 961.79 320.35 962.45 320.35 963.13 C312.92 967.56 312.92 967.56 309.35 968.13 C309.35 968.79 309.35 969.45 309.35 970.13 C301.61 974.64 293.85 978.99 285.78 982.9 C283.19 984.15 283.19 984.15 280.35 986.13 C279.36 986.13 278.37 986.13 277.35 986.13 C277.35 986.79 277.35 987.45 277.35 988.13 C274.77 989.47 272.19 990.8 269.6 992.13 C268.51 992.7 268.51 992.7 267.39 993.29 C266.33 993.83 266.33 993.83 265.24 994.38 C264.59 994.71 263.95 995.05 263.28 995.4 C261.35 996.13 261.35 996.13 257.35 996.13 C257.35 996.79 257.35 997.45 257.35 998.13 C256.78 998.35 256.21 998.57 255.62 998.79 C249.44 1001.21 243.43 1003.91 237.43 1006.76 C234.45 1008.09 231.46 1009.12 228.35 1010.13 C227.34 1010.58 226.33 1011.04 225.29 1011.5 C220.83 1013.47 216.16 1014.75 211.5 1016.16 C207.71 1017.33 204.05 1018.69 200.35 1020.13 C199 1020.65 197.65 1021.17 196.29 1021.69 C195.7 1021.92 195.11 1022.15 194.51 1022.38 C188.83 1024.35 183.01 1025.72 177.17 1027.07 C175.67 1027.42 174.18 1027.76 172.69 1028.11 C171.96 1028.28 171.23 1028.46 170.47 1028.63 C167.43 1029.35 164.39 1030.07 161.35 1030.82 C160.4 1031.05 159.46 1031.28 158.48 1031.52 C156.39 1031.93 156.39 1031.93 155.35 1033.13 C153.99 1033.46 152.61 1033.74 151.23 1034 C146.81 1034.85 142.39 1035.73 137.98 1036.63 C127.51 1038.71 117.11 1040.35 106.49 1041.43 C102.4 1041.83 102.4 1041.83 98.36 1042.64 C96.29 1043.14 94.4 1043.32 92.27 1043.41 C91.12 1043.47 91.12 1043.47 89.95 1043.52 C89.15 1043.56 88.36 1043.59 87.54 1043.63 C83.29 1043.82 79.11 1044.02 74.89 1044.63 C53.69 1047.65 31.3 1046.62 9.98 1045.69 C8.62 1045.63 8.62 1045.63 7.24 1045.57 C0.99 1045.26 0.99 1045.26 -2.12 1044.62 C-6.26 1043.82 -10.44 1043.84 -14.65 1043.69 C-25.34 1043.25 -35.58 1041.8 -46.06 1039.63 C-51.23 1038.63 -56.44 1037.91 -61.65 1037.13 C-68.83 1036.04 -75.82 1034.67 -82.86 1032.84 C-85.22 1032.24 -87.58 1031.7 -89.96 1031.19 C-94.13 1030.28 -98.27 1029.22 -102.4 1028.13 C-103.65 1027.8 -104.9 1027.47 -106.19 1027.13 C-109.12 1026.28 -111.83 1025.26 -114.65 1024.13 C-116.53 1023.62 -118.43 1023.14 -120.33 1022.69 C-128.34 1020.73 -135.88 1018.58 -143.36 1015.1 C-145.78 1014.07 -148.18 1013.34 -150.71 1012.63 C-154.61 1011.52 -157.97 1010.05 -161.54 1008.15 C-163.89 1007.01 -166.25 1006.17 -168.71 1005.32 C-175.21 1003.02 -181.38 1000.08 -187.59 997.1 C-189.73 996.09 -191.88 995.1 -194.03 994.11 C-201 990.9 -207.76 987.65 -214.26 983.56 C-216.98 981.93 -219.79 980.57 -222.65 979.19 C-227.57 976.79 -231.89 973.97 -236.31 970.74 C-239.6 968.47 -243.02 966.81 -246.65 965.13 C-246.65 964.47 -246.65 963.81 -246.65 963.13 C-247.19 963.04 -247.73 962.94 -248.29 962.84 C-251.34 961.92 -253.7 960.4 -256.4 958.69 C-257.87 957.77 -257.87 957.77 -259.38 956.82 C-260.13 956.26 -260.88 955.7 -261.65 955.13 C-261.65 954.47 -261.65 953.81 -261.65 953.13 C-262.17 953.06 -262.69 952.98 -263.22 952.91 C-266.69 951.79 -269.45 949.76 -272.4 947.69 C-273.3 947.08 -273.3 947.08 -274.22 946.46 C-275.74 945.4 -277.2 944.27 -278.65 943.13 C-278.65 942.47 -278.65 941.81 -278.65 941.13 C-279.31 940.92 -279.97 940.72 -280.65 940.5 C-284.72 938.64 -288.33 936.15 -291.65 933.13 C-291.65 932.47 -291.65 931.81 -291.65 931.13 C-292.97 930.8 -294.29 930.47 -295.65 930.13 C-295.65 929.47 -295.65 928.81 -295.65 928.13 C-296.22 927.86 -296.8 927.59 -297.4 927.32 C-299.7 926.1 -301.67 924.83 -303.65 923.13 C-303.65 922.47 -303.65 921.81 -303.65 921.13 C-304.22 920.87 -304.8 920.61 -305.39 920.35 C-307.84 919.02 -309.65 917.5 -311.71 915.63 C-313.98 913.57 -316.08 911.84 -318.65 910.13 C-318.65 909.47 -318.65 908.81 -318.65 908.13 C-319.31 908.13 -319.97 908.13 -320.65 908.13 C-320.65 907.47 -320.65 906.81 -320.65 906.13 C-321.64 905.8 -322.63 905.47 -323.65 905.13 C-323.65 904.47 -323.65 903.81 -323.65 903.13 C-324.23 902.87 -324.81 902.62 -325.4 902.36 C-327.88 901 -329.54 899.49 -331.54 897.5 C-332.25 896.8 -332.96 896.09 -333.69 895.36 C-334.42 894.63 -335.14 893.89 -335.9 893.13 C-336.64 892.39 -337.39 891.65 -338.15 890.9 C-338.86 890.19 -339.56 889.48 -340.29 888.75 C-340.93 888.11 -341.58 887.46 -342.24 886.79 C-343.65 885.13 -343.65 885.13 -343.65 883.13 C-344.29 882.86 -344.93 882.59 -345.58 882.32 C-347.65 881.13 -347.65 881.13 -348.65 878.13 C-349.31 878.13 -349.97 878.13 -350.65 878.13 C-352.21 876.44 -353.7 874.67 -355.15 872.88 C-355.94 871.9 -356.73 870.93 -357.55 869.93 C-359.23 867.68 -360.53 865.68 -361.65 863.13 C-362.31 863.13 -362.97 863.13 -363.65 863.13 C-368.65 857.65 -368.65 857.65 -368.65 855.13 C-369.31 855.13 -369.97 855.13 -370.65 855.13 C-370.98 853.81 -371.31 852.49 -371.65 851.13 C-372.31 851.13 -372.97 851.13 -373.65 851.13 C-376.65 847.67 -376.65 847.67 -376.65 845.13 C-377.31 845.13 -377.97 845.13 -378.65 845.13 C-380.55 842.67 -382.33 840.19 -384.08 837.63 C-384.62 836.85 -385.16 836.08 -385.71 835.28 C-386.83 833.67 -387.94 832.06 -389.05 830.45 C-390.47 828.38 -391.91 826.33 -393.36 824.28 C-406.99 804.89 -421.51 784.09 -430.75 762.19 C-432.58 757.99 -434.6 753.88 -436.58 749.75 C-441.24 740.06 -445.65 730.31 -449.65 720.32 C-450.17 719.01 -450.17 719.01 -450.71 717.67 C-452.91 712.11 -454.97 706.54 -456.76 700.83 C-457.47 698.67 -458.25 696.53 -459.06 694.4 C-460.79 689.83 -462.26 685.18 -463.71 680.5 C-464.22 678.87 -464.73 677.23 -465.24 675.59 C-465.48 674.82 -465.72 674.05 -465.97 673.26 C-466.55 671.44 -467.16 669.62 -467.77 667.81 C-468.52 665.51 -469.1 663.3 -469.58 660.94 C-470.32 657.49 -471.19 654.09 -472.15 650.69 C-474.43 642.43 -475.86 634.07 -477.18 625.6 C-477.53 623.14 -477.53 623.14 -478.65 621.13 C-480.12 613.29 -481.04 605.34 -481.95 597.42 C-482.3 594.51 -482.71 591.92 -483.65 589.13 C-483.78 587.76 -483.87 586.38 -483.93 585 C-483.97 584.22 -484 583.43 -484.04 582.61 C-484.11 580.96 -484.18 579.3 -484.25 577.65 C-484.29 576.86 -484.33 576.07 -484.37 575.25 C-484.4 574.54 -484.43 573.82 -484.46 573.07 C-484.59 570.91 -484.59 570.91 -485.65 568.13 C-485.74 565.2 -485.78 562.3 -485.78 559.38 C-485.78 558.03 -485.78 558.03 -485.78 556.66 C-485.79 553.7 -485.78 550.74 -485.78 547.78 C-485.78 545.73 -485.78 543.67 -485.78 541.62 C-485.78 537.32 -485.78 533.01 -485.78 528.71 C-485.77 523.18 -485.77 517.65 -485.78 512.12 C-485.78 507.88 -485.78 503.64 -485.78 499.4 C-485.78 497.36 -485.78 495.33 -485.78 493.29 C-485.79 490.44 -485.78 487.6 -485.78 484.75 C-485.78 483.91 -485.78 483.06 -485.78 482.18 C-485.76 476.36 -485.76 476.36 -484.65 474.13 C-484.49 471.82 -484.37 469.51 -484.27 467.19 C-483.94 460.66 -483.18 454.27 -482.15 447.82 C-482.02 447 -481.89 446.18 -481.75 445.34 C-481.23 442.17 -480.66 439.18 -479.65 436.13 C-479.52 434.55 -479.42 432.96 -479.33 431.38 C-478.83 425.27 -477.28 419.58 -475.62 413.7 C-474.61 410 -473.85 406.3 -473.15 402.53 C-472.58 399.8 -471.84 397.13 -471.08 394.44 C-470.23 391.41 -469.58 388.63 -469.15 385.5 C-468.74 382.75 -468.2 380.58 -467.3 377.98 C-467.03 377.18 -466.76 376.39 -466.48 375.57 C-466.21 374.77 -465.93 373.96 -465.65 373.13 C-465.15 371.64 -464.65 370.15 -464.15 368.66 C-463.9 367.93 -463.66 367.2 -463.4 366.45 C-460.65 358.27 -460.65 358.27 -458.15 350 C-455.01 339.34 -450.77 329.09 -446.01 319.06 C-444.82 316.51 -443.77 313.95 -442.77 311.32 C-440.19 304.71 -436.88 298.45 -433.66 292.14 C-432.71 290.26 -431.78 288.37 -430.85 286.48 C-427.34 279.32 -423.58 272.37 -419.58 265.48 C-416.48 260.1 -413.42 254.68 -410.65 249.13 C-409.99 249.13 -409.33 249.13 -408.65 249.13 C-408.51 248.31 -408.51 248.31 -408.36 247.47 C-407.45 244.47 -405.94 242.24 -404.21 239.63 C-402.17 236.52 -400.23 233.5 -398.65 230.13 C-397.99 230.13 -397.33 230.13 -396.65 230.13 C-396.4 229.43 -396.15 228.73 -395.9 228 C-394.47 224.73 -392.77 221.99 -390.65 219.13 C-389.99 219.13 -389.33 219.13 -388.65 219.13 C-388.52 218.53 -388.4 217.93 -388.27 217.32 C-387.65 215.13 -387.65 215.13 -385.65 212.13 C-384.99 212.13 -384.33 212.13 -383.65 212.13 C-383.65 211.14 -383.65 210.15 -383.65 209.13 C-382.99 209.13 -382.33 209.13 -381.65 209.13 C-381.32 207.81 -380.99 206.49 -380.65 205.13 C-379.99 205.13 -379.33 205.13 -378.65 205.13 C-378.34 204.51 -378.03 203.89 -377.71 203.25 C-377.02 201.88 -376.33 200.5 -375.65 199.13 C-374.99 199.13 -374.33 199.13 -373.65 199.13 C-373.28 198.06 -373.28 198.06 -372.9 196.96 C-371.51 193.82 -369.8 191.49 -367.65 188.82 C-366.95 187.93 -366.24 187.05 -365.52 186.14 C-364.9 185.48 -364.28 184.81 -363.65 184.13 C-362.99 184.13 -362.33 184.13 -361.65 184.13 C-361.42 183.59 -361.2 183.04 -360.96 182.48 C-359.23 179.39 -357 177.08 -354.58 174.5 C-351.23 171.09 -351.23 171.09 -348.65 167.13 C-347.99 167.13 -347.33 167.13 -346.65 167.13 C-346.32 166.14 -345.99 165.15 -345.65 164.13 C-344.99 164.13 -344.33 164.13 -343.65 164.13 C-343.65 163.47 -343.65 162.81 -343.65 162.13 C-342.99 162.13 -342.33 162.13 -341.65 162.13 C-341.32 161.14 -340.99 160.15 -340.65 159.13 C-339.99 159.13 -339.33 159.13 -338.65 159.13 C-338.4 158.56 -338.15 157.98 -337.9 157.4 C-336.45 154.78 -334.76 152.98 -332.65 150.88 C-331.59 149.82 -331.59 149.82 -330.52 148.74 C-328.65 147.13 -328.65 147.13 -326.65 147.13 C-326.32 146.14 -325.99 145.15 -325.65 144.13 C-324.99 144.13 -324.33 144.13 -323.65 144.13 C-323.65 143.47 -323.65 142.81 -323.65 142.13 C-322.99 142.13 -322.33 142.13 -321.65 142.13 C-321.32 141.14 -320.99 140.15 -320.65 139.13 C-319.99 139.13 -319.33 139.13 -318.65 139.13 C-318.65 138.47 -318.65 137.81 -318.65 137.13 C-316.95 135.61 -315.19 134.16 -313.4 132.75 C-310.59 130.54 -307.91 128.4 -305.41 125.84 C-303.65 124.13 -303.65 124.13 -301.65 124.13 C-301.65 123.47 -301.65 122.81 -301.65 122.13 C-299.56 120.33 -297.47 118.66 -295.27 117 C-294.67 116.54 -294.06 116.07 -293.44 115.59 C-288.91 112.13 -288.91 112.13 -286.65 112.13 C-286.32 111.14 -285.99 110.15 -285.65 109.13 C-283.08 107.94 -283.08 107.94 -280.65 107.13 C-280.65 106.47 -280.65 105.81 -280.65 105.13 C-279.33 104.8 -278.01 104.47 -276.65 104.13 C-276.65 103.47 -276.65 102.81 -276.65 102.13 C-275.66 102.13 -274.67 102.13 -273.65 102.13 C-273.65 101.47 -273.65 100.81 -273.65 100.13 C-271.09 97.83 -270.17 97.13 -266.65 97.13 C-266.65 96.47 -266.65 95.81 -266.65 95.13 C-264.75 93.62 -264.75 93.62 -262.27 92 C-261.46 91.47 -260.65 90.93 -259.81 90.37 C-257.65 89.13 -257.65 89.13 -255.65 89.13 C-255.65 88.47 -255.65 87.81 -255.65 87.13 C-254.68 86.59 -253.71 86.06 -252.71 85.5 C-249.03 83.41 -245.54 81.09 -242.05 78.69 C-239.59 77.09 -237.05 75.63 -234.49 74.19 C-232.68 73.15 -230.89 72.07 -229.1 70.98 C-221.45 66.3 -213.73 62.03 -205.65 58.13 C-202.83 56.74 -200.02 55.34 -197.21 53.94 C-196.53 53.61 -195.86 53.28 -195.16 52.93 C-192.36 51.54 -189.64 50.12 -186.96 48.5 C-184.72 47.17 -182.58 46.23 -180.15 45.32 C-176.13 43.76 -172.23 42.03 -168.33 40.19 C-159.72 36.17 -150.89 32.79 -141.85 29.86 C-139.47 29.07 -137.12 28.2 -134.77 27.32 C-127.18 24.53 -119.45 22.19 -111.73 19.79 C-109.92 19.22 -108.13 18.62 -106.33 18.01 C-104.04 17.26 -101.82 16.67 -99.46 16.19 C-96.02 15.46 -92.65 14.59 -89.27 13.63 C-84.7 12.36 -80.14 11.46 -75.46 10.66 C-72.49 10.1 -69.62 9.35 -66.71 8.57 C-61.58 7.24 -56.65 6.71 -51.38 6.37 C-48.38 6.11 -45.7 5.46 -42.81 4.67 C-34.33 2.55 -25.64 1.87 -16.94 1.47 C-11.17 1.19 -5.85 -0.01 0 0 Z M-7.65 92.13 C-9.79 92.26 -11.94 92.36 -14.08 92.44 C-21.58 92.83 -28.81 94.16 -36.15 95.67 C-40.21 96.5 -44.21 97.23 -48.34 97.63 C-52.27 98.03 -55.86 98.91 -59.65 100.07 C-63.4 101.19 -67.11 102.29 -70.96 103.07 C-76.83 104.3 -82.54 106.12 -88.28 107.84 C-91.03 108.66 -93.78 109.45 -96.54 110.2 C-102.41 111.81 -107.95 113.53 -113.45 116.13 C-115.91 117.25 -118.41 118.16 -120.96 119.07 C-131.91 122.99 -142.25 127.82 -152.6 133.09 C-154.57 134.09 -156.56 135.07 -158.56 136.04 C-169.22 141.23 -179.45 147.07 -189.65 153.13 C-190.34 153.54 -191.04 153.95 -191.75 154.37 C-193.62 155.47 -195.48 156.58 -197.33 157.69 C-198.37 158.31 -199.4 158.93 -200.47 159.57 C-201.55 160.34 -201.55 160.34 -202.65 161.13 C-202.65 161.79 -202.65 162.45 -202.65 163.13 C-203.24 163.25 -203.83 163.36 -204.43 163.49 C-206.75 164.16 -208.12 164.98 -210.04 166.42 C-210.66 166.88 -211.28 167.35 -211.92 167.82 C-212.58 168.32 -213.23 168.81 -213.9 169.32 C-214.57 169.82 -215.25 170.32 -215.94 170.84 C-217.85 172.27 -219.75 173.7 -221.65 175.13 C-222.41 175.69 -223.17 176.26 -223.95 176.84 C-225.86 178.26 -227.75 179.69 -229.65 181.13 C-230.43 181.72 -230.43 181.72 -231.24 182.31 C-233.04 183.66 -234.85 185.02 -236.65 186.38 C-237.24 186.82 -237.83 187.25 -238.43 187.7 C-239.87 188.8 -241.27 189.96 -242.65 191.13 C-242.65 191.79 -242.65 192.45 -242.65 193.13 C-243.22 193.4 -243.8 193.67 -244.4 193.94 C-246.7 195.16 -248.67 196.43 -250.65 198.13 C-250.65 198.79 -250.65 199.45 -250.65 200.13 C-251.2 200.38 -251.76 200.62 -252.33 200.88 C-255.07 202.36 -257.32 204.06 -259.65 206.13 C-259.65 206.79 -259.65 207.45 -259.65 208.13 C-260.64 208.46 -261.63 208.79 -262.65 209.13 C-262.65 209.79 -262.65 210.45 -262.65 211.13 C-263.31 211.13 -263.97 211.13 -264.65 211.13 C-264.65 211.79 -264.65 212.45 -264.65 213.13 C-265.64 213.46 -266.63 213.79 -267.65 214.13 C-267.65 214.79 -267.65 215.45 -267.65 216.13 C-268.31 216.13 -268.97 216.13 -269.65 216.13 C-269.65 216.79 -269.65 217.45 -269.65 218.13 C-270.64 218.46 -271.63 218.79 -272.65 219.13 C-272.65 219.79 -272.65 220.45 -272.65 221.13 C-273.31 221.13 -273.97 221.13 -274.65 221.13 C-276.32 222.78 -276.32 222.78 -278.02 224.88 C-279.98 227.2 -281.91 229.38 -284.08 231.5 C-285.88 232.99 -285.88 232.99 -285.65 235.13 C-286.31 235.13 -286.97 235.13 -287.65 235.13 C-291.28 238.61 -291.28 238.61 -292.65 243.13 C-293.31 243.13 -293.97 243.13 -294.65 243.13 C-296.19 244.81 -296.19 244.81 -297.77 247 C-300.23 250.27 -302.74 253.47 -305.33 256.63 C-323.91 279.88 -338.95 305.79 -352.65 332.13 C-353.15 333.1 -353.66 334.08 -354.19 335.08 C-356.6 339.8 -358.7 344.57 -360.62 349.51 C-361.72 352.32 -362.9 355.1 -364.08 357.88 C-366.4 363.42 -368.45 369.04 -370.44 374.71 C-371.28 377.09 -372.16 379.46 -373.08 381.81 C-375.07 387.1 -376.59 392.52 -378.15 397.94 C-378.44 398.96 -378.74 399.97 -379.04 401.02 C-380.98 407.71 -382.86 414.4 -384.65 421.13 C-384.9 422.08 -385.16 423.03 -385.43 424.01 C-387.38 431.49 -388.67 438.98 -389.77 446.63 C-390.11 448.91 -390.44 451.19 -390.78 453.47 C-390.92 454.47 -391.07 455.46 -391.21 456.48 C-391.65 459.13 -391.65 459.13 -392.18 461.26 C-392.95 464.34 -392.97 467.47 -393.15 470.63 C-393.37 474.63 -393.68 478.26 -394.65 482.13 C-398.56 523.9 -398.56 523.9 -394.14 565.16 C-393.4 568.13 -393.44 571.08 -393.33 574.13 C-392.98 581.6 -391.7 588.74 -390.11 596.04 C-389.26 599.95 -388.53 603.77 -388.14 607.76 C-387.73 611.85 -386.83 615.66 -385.71 619.63 C-384.56 623.74 -383.45 627.83 -382.58 632 C-381.8 635.71 -380.69 639.23 -379.43 642.79 C-378.8 644.66 -378.24 646.56 -377.7 648.45 C-373.85 661.93 -368.74 674.71 -362.88 687.43 C-362.08 689.19 -361.28 690.96 -360.5 692.73 C-357.23 700.15 -353.47 707.26 -349.6 714.38 C-348.76 715.92 -347.94 717.48 -347.12 719.04 C-343.93 725.06 -340.39 730.77 -336.63 736.45 C-334.95 739 -333.62 741.21 -332.65 744.13 C-331.99 744.13 -331.33 744.13 -330.65 744.13 C-330.43 744.79 -330.22 745.45 -329.99 746.13 C-328.18 750.17 -325.68 753.55 -323.08 757.13 C-322 758.64 -320.91 760.16 -319.83 761.68 C-319.29 762.43 -318.75 763.18 -318.2 763.95 C-316.78 765.94 -315.4 767.94 -314.03 769.96 C-313.63 770.54 -313.24 771.12 -312.83 771.72 C-311.78 773.28 -310.73 774.84 -309.68 776.4 C-307.55 779.26 -305.19 781.63 -302.65 784.13 C-301.22 785.82 -299.83 787.52 -298.46 789.25 C-297.78 790.1 -297.11 790.95 -296.42 791.82 C-295.09 793.55 -293.85 795.32 -292.65 797.13 C-291.99 797.13 -291.33 797.13 -290.65 797.13 C-290.38 797.72 -290.11 798.31 -289.83 798.92 C-288.64 801.15 -287.38 802.69 -285.64 804.51 C-285.07 805.12 -284.49 805.73 -283.9 806.36 C-283.3 806.99 -282.7 807.61 -282.08 808.25 C-280.89 809.51 -279.7 810.76 -278.52 812.01 C-277.99 812.56 -277.46 813.11 -276.92 813.68 C-275.65 815.13 -275.65 815.13 -274.65 817.13 C-273.99 817.13 -273.33 817.13 -272.65 817.13 C-272.65 817.79 -272.65 818.45 -272.65 819.13 C-271.31 820.8 -271.31 820.8 -269.65 822.13 C-268.99 822.13 -268.33 822.13 -267.65 822.13 C-267.65 822.79 -267.65 823.45 -267.65 824.13 C-266.31 825.8 -266.31 825.8 -264.65 827.13 C-263.99 827.13 -263.33 827.13 -262.65 827.13 C-262.65 827.79 -262.65 828.45 -262.65 829.13 C-261.31 830.8 -261.31 830.8 -259.65 832.13 C-258.99 832.13 -258.33 832.13 -257.65 832.13 C-257.65 832.79 -257.65 833.45 -257.65 834.13 C-256.2 835.63 -256.2 835.63 -254.27 837.19 C-249.99 840.82 -245.86 844.59 -241.75 848.41 C-239.84 850.34 -239.84 850.34 -237.65 850.13 C-237.65 850.79 -237.65 851.45 -237.65 852.13 C-235.72 853.75 -233.79 855.26 -231.77 856.75 C-230.58 857.65 -229.39 858.55 -228.2 859.44 C-227.6 859.89 -227 860.34 -226.39 860.8 C-223.04 863.35 -219.81 866.05 -216.57 868.73 C-214.77 870.33 -214.77 870.33 -212.65 870.13 C-212.65 870.79 -212.65 871.45 -212.65 872.13 C-211 873.53 -211 873.53 -208.84 874.92 C-208.04 875.47 -207.23 876.01 -206.4 876.57 C-205.53 877.15 -204.66 877.72 -203.77 878.32 C-202.02 879.5 -200.26 880.68 -198.51 881.86 C-197.66 882.43 -196.82 882.99 -195.95 883.58 C-193.26 885.39 -190.6 887.25 -187.96 889.13 C-180.89 894.75 -180.89 894.75 -172.65 897.13 C-172.65 897.79 -172.65 898.45 -172.65 899.13 C-171.99 899.48 -171.34 899.83 -170.66 900.2 C-165.58 902.94 -160.55 905.75 -155.58 908.69 C-146.19 914.74 -146.19 914.74 -135.65 917.13 C-135.65 917.79 -135.65 918.45 -135.65 919.13 C-132.26 920.95 -128.93 922.41 -125.27 923.57 C-122.3 924.51 -119.64 925.59 -116.9 927.07 C-112.4 929.43 -107.66 930.71 -102.79 932.13 C-100.15 932.97 -97.81 933.91 -95.33 935.13 C-87.23 938.93 -77.92 940.44 -69.21 942.32 C-65.65 943.13 -65.65 943.13 -64.65 944.13 C-62.67 944.5 -60.69 944.83 -58.71 945.13 C-52.86 946.02 -52.86 946.02 -50.65 947.13 C-48.98 947.33 -47.32 947.49 -45.65 947.63 C-40.87 948.02 -40.87 948.02 -38.65 949.13 C-36 949.5 -33.36 949.83 -30.71 950.13 C-23.04 951 -23.04 951 -19.65 952.13 C-16.87 952.33 -14.11 952.5 -11.33 952.63 C-9.84 952.7 -8.34 952.77 -6.85 952.85 C-5.85 952.89 -5.85 952.89 -4.84 952.94 C-2.65 953.13 -2.65 953.13 0.08 953.63 C3.44 954.14 6.6 954.26 10 954.26 C11.3 954.26 12.6 954.27 13.94 954.27 C15.35 954.27 16.76 954.26 18.17 954.26 C19.62 954.26 21.08 954.26 22.54 954.27 C25.58 954.27 28.63 954.26 31.67 954.26 C35.57 954.25 39.46 954.26 43.36 954.26 C46.36 954.27 49.37 954.27 52.37 954.26 C53.81 954.26 55.24 954.26 56.68 954.27 C58.69 954.27 60.7 954.26 62.71 954.26 C63.85 954.26 64.99 954.26 66.17 954.26 C69.31 954.13 72.26 953.68 75.35 953.13 C78.84 952.91 82.32 952.74 85.81 952.61 C90.38 952.39 94.58 951.7 99.03 950.64 C103.14 949.74 107.31 949.29 111.48 948.75 C120.38 947.56 128.73 945.61 137.35 943.13 C141.08 942.23 144.83 941.44 148.58 940.67 C152.3 939.89 155.9 939 159.5 937.77 C160.67 937.38 160.67 937.38 161.87 936.97 C162.69 936.69 163.51 936.42 164.35 936.13 C166.01 935.58 167.67 935.03 169.33 934.48 C174.68 932.71 180.02 930.92 185.35 929.13 C186.41 928.78 186.41 928.78 187.49 928.42 C194.83 925.96 201.68 923.11 208.55 919.54 C211.93 917.84 215.38 916.49 218.91 915.13 C223.18 913.38 227.25 911.24 231.35 909.13 C232.3 908.67 233.24 908.2 234.22 907.72 C237.64 905.98 240.97 904.11 244.29 902.19 C245.47 901.52 246.64 900.84 247.82 900.16 C248.4 899.83 248.98 899.49 249.58 899.15 C250.78 898.46 251.99 897.77 253.2 897.09 C256.51 895.22 259.72 893.28 262.85 891.13 C267.84 887.77 272.93 884.73 278.35 882.13 C278.35 881.47 278.35 880.81 278.35 880.13 C279.05 879.88 279.76 879.63 280.48 879.38 C283.75 877.96 286.49 876.26 289.35 874.13 C289.35 873.47 289.35 872.81 289.35 872.13 C290.14 871.82 290.92 871.51 291.73 871.19 C294.28 870.2 294.28 870.2 296.35 869.13 C296.35 868.47 296.35 867.81 296.35 867.13 C296.93 866.86 297.51 866.59 298.1 866.32 C300.41 865.1 302.35 863.72 304.42 862.13 C306.7 860.38 308.96 858.73 311.35 857.13 C311.35 856.47 311.35 855.81 311.35 855.13 C311.93 854.86 312.51 854.59 313.1 854.31 C315.39 853.11 317.35 851.75 319.42 850.19 C320.09 849.69 320.76 849.18 321.45 848.66 C323.23 847.23 324.85 845.85 326.35 844.13 C326.35 843.47 326.35 842.81 326.35 842.13 C326.94 841.87 327.52 841.62 328.13 841.35 C330.55 840.02 332.09 838.56 333.98 836.57 C337.16 833.23 337.16 833.23 339.35 832.13 C339.35 831.47 339.35 830.81 339.35 830.13 C340.01 830.13 340.67 830.13 341.35 830.13 C342.89 828.61 342.89 828.61 344.48 826.63 C347.73 822.78 351.2 819.27 354.85 815.79 C356.58 814.26 356.58 814.26 356.35 812.13 C357.01 812.13 357.67 812.13 358.35 812.13 C359.79 810.79 359.79 810.79 361.29 808.94 C361.91 808.22 362.52 807.49 363.15 806.75 C363.88 805.88 364.61 805.02 365.35 804.13 C366.26 803.07 367.17 802.01 368.08 800.95 C376.78 792.37 376.78 792.37 381.35 782.13 C382.01 782.13 382.67 782.13 383.35 782.13 C385.67 778.91 385.67 778.91 386.35 775.13 C387.01 775.13 387.67 775.13 388.35 775.13 C389.95 773.18 389.95 773.18 391.48 770.75 C392.29 769.54 392.29 769.54 393.11 768.29 C394.52 766.26 394.52 766.26 394.35 764.13 C395.01 764.13 395.67 764.13 396.35 764.13 C396.89 763.16 397.43 762.19 397.98 761.19 C399.65 758.25 401.46 755.43 403.35 752.63 C405.47 749.49 407.45 746.32 409.29 743 C410.6 740.7 411.98 738.45 413.35 736.19 C415.92 731.93 418.19 727.61 420.35 723.13 C421.14 721.54 421.93 719.96 422.73 718.38 C423.15 717.54 423.57 716.7 424 715.83 C424.95 713.94 425.9 712.06 426.87 710.18 C430.04 703.93 432.87 697.68 435.35 691.13 C436.19 688.96 437.02 686.8 437.85 684.63 C438.27 683.53 438.69 682.43 439.13 681.3 C440.21 678.5 441.34 675.72 442.48 672.94 C444.11 668.89 445.37 664.8 446.58 660.61 C447.34 658.16 448.28 655.86 449.29 653.5 C451.89 647.21 453.32 640.61 454.9 634 C455.52 631.47 456.21 628.95 456.92 626.44 C459.87 615.72 461.96 605.01 463.48 594 C463.81 591.63 464.15 589.25 464.49 586.87 C464.63 585.84 464.77 584.81 464.92 583.74 C465.35 581.13 465.35 581.13 466.35 578.13 C466.56 575.36 466.73 572.59 466.85 569.82 C466.92 568.32 467 566.82 467.07 565.33 C467.12 564.34 467.12 564.34 467.16 563.32 C467.35 561.13 467.35 561.13 467.86 558.41 C468.37 555.05 468.48 551.88 468.48 548.48 C468.49 547.18 468.49 545.88 468.49 544.54 C468.49 543.13 468.49 541.72 468.49 540.32 C468.49 538.86 468.49 537.4 468.49 535.95 C468.49 532.9 468.49 529.85 468.48 526.81 C468.48 522.91 468.48 519.02 468.49 515.13 C468.49 512.12 468.49 509.12 468.49 506.11 C468.49 504.67 468.49 503.24 468.49 501.8 C468.49 499.79 468.49 497.78 468.48 495.77 C468.48 494.63 468.48 493.49 468.48 492.32 C468.36 489.17 467.91 486.23 467.35 483.13 C467.18 480.38 467.04 477.63 466.92 474.88 C466.63 469.24 466.1 463.87 464.83 458.35 C464.16 455.23 463.88 452.11 463.6 448.94 C463.44 447.03 463.44 447.03 462.35 445.13 C462.17 443.57 462.03 442.01 461.92 440.44 C461.53 436.13 460.61 432.28 459.35 428.13 C459.01 425.8 458.68 423.46 458.35 421.13 C458.02 420.8 457.69 420.47 457.35 420.13 C456.9 418.13 456.45 416.13 456.01 414.13 C453.21 400.93 453.21 400.93 448.35 388.4 C447.09 385.52 446.24 382.59 445.35 379.57 C444.03 375.11 442.53 371.13 440.33 367.04 C439.29 365.01 438.48 362.96 437.67 360.82 C432.67 348.14 426.59 336.05 419.41 324.48 C417.59 321.51 415.92 318.52 414.29 315.44 C411.61 310.44 408.54 305.78 405.35 301.09 C403.5 298.34 401.73 295.56 399.98 292.75 C397.11 288.23 394.12 283.82 391.04 279.44 C390.39 278.5 390.39 278.5 389.73 277.55 C388.66 276.04 387.51 274.58 386.35 273.13 C385.69 273.13 385.03 273.13 384.35 273.13 C384.08 272.55 383.8 271.96 383.52 271.36 C382.39 269.2 381.15 267.36 379.67 265.41 C379.16 264.73 378.64 264.04 378.11 263.33 C377.57 262.63 377.03 261.92 376.48 261.19 C375.95 260.49 375.42 259.79 374.87 259.06 C373.37 257.08 371.86 255.1 370.35 253.13 C369.61 252.14 368.86 251.15 368.1 250.13 C367.23 249.14 367.23 249.14 366.35 248.13 C365.69 248.13 365.03 248.13 364.35 248.13 C364.12 247.58 363.89 247.03 363.66 246.47 C361.98 243.45 359.83 241.21 357.48 238.69 C354.92 235.95 352.45 233.25 350.16 230.28 C349.56 229.57 348.97 228.86 348.35 228.13 C347.69 228.13 347.03 228.13 346.35 228.13 C346.35 227.47 346.35 226.81 346.35 226.13 C345.02 224.46 345.02 224.46 343.35 223.13 C342.69 223.13 342.03 223.13 341.35 223.13 C341.35 222.47 341.35 221.81 341.35 221.13 C340.02 219.46 340.02 219.46 338.35 218.13 C337.69 218.13 337.03 218.13 336.35 218.13 C336.35 217.47 336.35 216.81 336.35 216.13 C335.02 214.46 335.02 214.46 333.35 213.13 C332.69 213.13 332.03 213.13 331.35 213.13 C331.35 212.47 331.35 211.81 331.35 211.13 C329.67 209.35 329.67 209.35 327.54 207.57 C326.83 206.95 326.13 206.33 325.4 205.69 C323.34 203.95 323.34 203.95 320.35 203.13 C320.35 202.47 320.35 201.81 320.35 201.13 C318.87 199.55 318.87 199.55 316.98 198 C316.35 197.47 315.73 196.93 315.08 196.37 C313.44 194.93 313.44 194.93 311.35 195.13 C311.35 194.47 311.35 193.81 311.35 193.13 C309.18 191.08 309.18 191.08 306.48 189 C305.57 188.28 304.67 187.56 303.74 186.81 C301.57 184.94 301.57 184.94 299.35 185.13 C299.35 184.47 299.35 183.81 299.35 183.13 C296.72 180.73 296.72 180.73 293.35 180.13 C293.35 179.47 293.35 178.81 293.35 178.13 C290.89 176.23 288.42 174.45 285.85 172.69 C285.09 172.17 284.34 171.64 283.55 171.1 C281.96 169.99 280.37 168.89 278.77 167.8 C276.42 166.17 274.07 164.53 271.73 162.89 C270.29 161.89 268.86 160.88 267.42 159.88 C266.74 159.4 266.06 158.92 265.36 158.43 C262.15 155.97 262.15 155.97 258.35 155.13 C258.35 154.47 258.35 153.81 258.35 153.13 C257.66 152.77 256.97 152.4 256.26 152.03 C251.71 149.59 247.27 147.15 243.04 144.19 C238.77 141.26 234.24 139 229.59 136.74 C225.97 134.98 222.52 133.08 219.1 130.94 C215.18 128.52 211.27 126.8 206.96 125.18 C204.13 124.04 201.49 122.68 198.79 121.25 C192.5 118.04 186.01 115.78 179.33 113.51 C176.18 112.43 173.11 111.24 170.04 109.94 C165.51 108.07 160.89 106.92 156.12 105.84 C153.35 105.13 153.35 105.13 151.13 104.17 C146.93 102.59 142.57 101.89 138.17 101.07 C136.36 100.72 134.55 100.38 132.75 100.03 C131.95 99.88 131.16 99.73 130.34 99.58 C128.35 99.13 128.35 99.13 126.35 98.13 C124.43 97.78 122.51 97.48 120.58 97.19 C119.42 97.02 118.27 96.85 117.08 96.67 C115.87 96.49 114.66 96.31 113.42 96.13 C111.03 95.78 108.65 95.42 106.26 95.07 C105.2 94.91 104.14 94.75 103.05 94.59 C100.35 94.13 100.35 94.13 97.35 93.13 C94.7 92.93 92.07 92.76 89.42 92.63 C85.28 92.43 81.38 92.14 77.35 91.13 C34.56 87.37 34.56 87.37 -7.65 92.13 Z " fill="#000000" transform="translate(485.646484375,-0.12939453125)"/>
</svg>
