<?xml version="1.0" encoding="UTF-8"?>
<!DOCTYPE svg PUBLIC "-//W3C//DTD SVG 1.1//EN" "http://www.w3.org/Graphics/SVG/1.1/DTD/svg11.dtd">
<svg xmlns="http://www.w3.org/2000/svg" version="1.1" width="96px" height="96px" style="shape-rendering:geometricPrecision; text-rendering:geometricPrecision; image-rendering:optimizeQuality; fill-rule:evenodd; clip-rule:evenodd" xmlns:xlink="http://www.w3.org/1999/xlink">
<g><path style="opacity:0.945" fill="#000000" d="M 17.5,11.5 C 20.5184,11.3354 23.5184,11.502 26.5,12C 27.8333,13.6667 27.8333,15.3333 26.5,17C 24.1218,17.5112 21.7885,18.1779 19.5,19C 18.8095,20.0674 18.3095,21.2341 18,22.5C 17.0414,40.2328 17.3747,57.8995 19,75.5C 20.0674,76.1905 21.2341,76.6905 22.5,77C 30.8333,77.3333 39.1667,77.6667 47.5,78C 48.8333,79.6667 48.8333,81.3333 47.5,83C 37.5,83.6667 27.5,83.6667 17.5,83C 15,81.8333 13.1667,80 12,77.5C 11.3333,57.5 11.3333,37.5 12,17.5C 13.3597,14.9774 15.193,12.9774 17.5,11.5 Z"/></g>
<g><path style="opacity:0.954" fill="#000000" d="M 35.5,11.5 C 50.2637,11.0334 64.9304,11.5334 79.5,13C 81.0488,14.214 82.2155,15.714 83,17.5C 83.8326,29.5139 83.6659,41.5139 82.5,53.5C 81.1667,54.8333 79.8333,54.8333 78.5,53.5C 77.6677,43.1827 77.1677,32.8494 77,22.5C 76.6905,21.2341 76.1905,20.0674 75.5,19C 62.2357,17.7217 48.9024,17.055 35.5,17C 34.2475,15.1722 34.2475,13.3388 35.5,11.5 Z"/></g>
<g><path style="opacity:0.972" fill="#000000" d="M 23.5,31.5 C 39.5,31.5 55.5,31.5 71.5,31.5C 71.5,33.5 71.5,35.5 71.5,37.5C 55.5,37.5 39.5,37.5 23.5,37.5C 23.5,35.5 23.5,33.5 23.5,31.5 Z"/></g>
<g><path style="opacity:0.946" fill="#000000" d="M 23.5,45.5 C 32.8393,45.3335 42.1726,45.5002 51.5,46C 52.8333,47.6667 52.8333,49.3333 51.5,51C 42.1726,51.4998 32.8393,51.6665 23.5,51.5C 23.5,49.5 23.5,47.5 23.5,45.5 Z"/></g>
<g><path style="opacity:0.844" fill="#000000" d="M 53.5,50.5 C 62.7664,50.0149 70.2664,53.3483 76,60.5C 76.6586,63.3534 75.492,65.0201 72.5,65.5C 69.7624,64.2717 67.4291,62.4383 65.5,60C 59.5954,57.5772 58.0954,59.4105 61,65.5C 65.5,70 70,74.5 74.5,79C 76.92,78.6284 78.92,77.2951 80.5,75C 78.2256,73.2349 76.5589,71.0682 75.5,68.5C 75.5743,66.2606 76.741,65.2606 79,65.5C 84.2116,68.7001 88.8783,72.7001 93,77.5C 96.6976,90.8004 91.8642,95.9671 78.5,93C 70.6667,85.1667 62.8333,77.3333 55,69.5C 51.4162,63.2272 50.9162,56.8939 53.5,50.5 Z M 84.5,80.5 C 86.7224,80.5587 87.7224,81.7253 87.5,84C 86.0025,88.2817 83.6692,88.615 80.5,85C 82.0414,83.6288 83.3747,82.1288 84.5,80.5 Z"/></g>
<g><path style="opacity:0.933" fill="#000000" d="M 23.5,59.5 C 30.5,59.5 37.5,59.5 44.5,59.5C 44.5,61.5 44.5,63.5 44.5,65.5C 37.5,65.5 30.5,65.5 23.5,65.5C 23.5,63.5 23.5,61.5 23.5,59.5 Z"/></g>
</svg>
